<svg width="150" height="150" viewBox="0 0 150 150" fill="none" xmlns="http://www.w3.org/2000/svg">
<g clip-path="url(#clip0_283_64)">
<path d="M38.5225 71.4892V76.5342H41.045C41.3907 76.5342 41.7159 76.4697 42.0206 76.3408C42.3252 76.206 42.5918 76.0244 42.8204 75.7959C43.0489 75.5674 43.2276 75.3008 43.3565 74.9961C43.4913 74.6855 43.5586 74.3574 43.5586 74.0117C43.5586 73.666 43.4913 73.3408 43.3565 73.0361C43.2276 72.7256 43.0489 72.456 42.8204 72.2275C42.5918 71.999 42.3252 71.8203 42.0206 71.6914C41.7159 71.5566 41.3907 71.4892 41.045 71.4892H38.5225ZM38.5225 81.5703H36V68.9668H41.045C41.5079 68.9668 41.9532 69.0283 42.3809 69.1514C42.8086 69.2685 43.2071 69.4385 43.5762 69.6611C43.9512 69.8779 44.2911 70.1416 44.5957 70.4521C44.9063 70.7568 45.17 71.0967 45.3868 71.4717C45.6094 71.8467 45.7793 72.248 45.8965 72.6758C46.0196 73.1035 46.0811 73.5488 46.0811 74.0117C46.0811 74.7031 45.9493 75.3564 45.6856 75.9717C45.4219 76.581 45.0616 77.1142 44.6045 77.5713C44.1475 78.0283 43.6114 78.3887 42.9961 78.6523C42.3868 78.916 41.7364 79.0478 41.045 79.0478H38.5225V81.5703ZM49.711 81.5703H47.3116V72.1572H47.8916L48.6827 73.2734C49.0694 72.9219 49.5088 72.6523 50.001 72.4648C50.4932 72.2715 51.003 72.1748 51.5303 72.1748H53.6485V74.5654H51.5303C51.2784 74.5654 51.0411 74.6123 50.8184 74.706C50.5957 74.7998 50.4024 74.9287 50.2383 75.0928C50.0743 75.2568 49.9454 75.4502 49.8516 75.6728C49.7579 75.8955 49.711 76.1328 49.711 76.3848V81.5703ZM57.5948 69.5996C57.5948 69.8223 57.5508 70.0303 57.4629 70.2236C57.3809 70.417 57.2666 70.5869 57.1202 70.7334C56.9737 70.874 56.8008 70.9883 56.6016 71.0762C56.4082 71.1582 56.2002 71.1992 55.9776 71.1992C55.7549 71.1992 55.544 71.1582 55.3448 71.0762C55.1514 70.9883 54.9815 70.874 54.835 70.7334C54.6944 70.5869 54.5801 70.417 54.4922 70.2236C54.4102 70.0303 54.3692 69.8223 54.3692 69.5996C54.3692 69.3828 54.4102 69.1777 54.4922 68.9844C54.5801 68.7851 54.6944 68.6152 54.835 68.4746C54.9815 68.3281 55.1514 68.2139 55.3448 68.1318C55.544 68.0439 55.7549 68 55.9776 68C56.2002 68 56.4082 68.0439 56.6016 68.1318C56.8008 68.2139 56.9737 68.3281 57.1202 68.4746C57.2666 68.6152 57.3809 68.7851 57.4629 68.9844C57.5508 69.1777 57.5948 69.3828 57.5948 69.5996ZM57.1817 81.5703H54.7647V72.1572H57.1817V81.5703ZM67.2452 74.0293L65.4873 75.7959C65.3995 75.5498 65.2793 75.3301 65.127 75.1367C64.9747 74.9375 64.8018 74.7705 64.6084 74.6357C64.4209 74.501 64.2159 74.3984 63.9932 74.3281C63.7706 74.2578 63.542 74.2226 63.3077 74.2226C62.9795 74.2226 62.669 74.29 62.376 74.4248C62.0889 74.5596 61.837 74.75 61.6202 74.9961C61.4092 75.2363 61.2422 75.5234 61.1192 75.8574C60.9961 76.1914 60.9346 76.5605 60.9346 76.9648C60.9346 77.293 60.9961 77.6006 61.1192 77.8877C61.2422 78.1748 61.4092 78.4267 61.6202 78.6435C61.837 78.8603 62.0889 79.0303 62.376 79.1533C62.669 79.2764 62.9795 79.3379 63.3077 79.3379C63.542 79.3379 63.7676 79.3057 63.9844 79.2412C64.2012 79.1767 64.4034 79.0859 64.5909 78.9687C64.7842 78.8457 64.9541 78.6992 65.1006 78.5293C65.253 78.3535 65.376 78.1601 65.4698 77.9492L67.2276 79.7158C67.0049 80.0322 66.7471 80.3164 66.4541 80.5683C66.167 80.8203 65.8536 81.0342 65.5137 81.2099C65.1797 81.3857 64.8252 81.5176 64.4502 81.6055C64.0811 81.6992 63.7002 81.7461 63.3077 81.7461C62.6456 81.7461 62.0215 81.623 61.4356 81.3769C60.8555 81.125 60.3457 80.7822 59.9063 80.3486C59.4727 79.915 59.1299 79.4082 58.878 78.8281C58.626 78.248 58.5 77.6269 58.5 76.9648C58.5 76.2441 58.626 75.5703 58.878 74.9433C59.1299 74.3164 59.4727 73.7715 59.9063 73.3086C60.3457 72.8398 60.8555 72.4707 61.4356 72.2012C62.0215 71.9316 62.6456 71.7969 63.3077 71.7969C63.7002 71.7969 64.084 71.8467 64.459 71.9463C64.8399 72.0459 65.2002 72.1924 65.5401 72.3857C65.8858 72.5732 66.2022 72.8047 66.4893 73.0801C66.7823 73.3555 67.0342 73.6719 67.2452 74.0293ZM72.0264 79.2676C72.1202 79.2969 72.2139 79.3174 72.3077 79.3291C72.4014 79.3349 72.4952 79.3379 72.5889 79.3379C72.8233 79.3379 73.0489 79.3057 73.2657 79.2412C73.4825 79.1767 73.6846 79.0859 73.8721 78.9687C74.0655 78.8457 74.2354 78.6992 74.3819 78.5293C74.5342 78.3535 74.6573 78.1601 74.751 77.9492L76.5088 79.7158C76.2862 80.0322 76.0284 80.3164 75.7354 80.5683C75.4483 80.8203 75.1348 81.0342 74.795 81.2099C74.461 81.3857 74.1065 81.5176 73.7315 81.6055C73.3623 81.6992 72.9815 81.7461 72.5889 81.7461C71.9268 81.7461 71.3028 81.623 70.7168 81.3769C70.1368 81.1308 69.627 80.7881 69.1875 80.3486C68.754 79.9092 68.4112 79.3877 68.1592 78.7842C67.9073 78.1748 67.7813 77.5068 67.7813 76.7803C67.7813 76.0361 67.9073 75.3564 68.1592 74.7412C68.4112 74.126 68.754 73.6015 69.1875 73.168C69.627 72.7344 70.1368 72.3974 70.7168 72.1572C71.3028 71.917 71.9268 71.7969 72.5889 71.7969C72.9815 71.7969 73.3653 71.8437 73.7403 71.9375C74.1153 72.0312 74.4698 72.166 74.8038 72.3418C75.1436 72.5176 75.46 72.7344 75.753 72.9922C76.0459 73.2441 76.3038 73.5283 76.5264 73.8447L72.0264 79.2676ZM73.2569 74.3193C73.1456 74.2783 73.0342 74.2519 72.9229 74.2402C72.8174 74.2285 72.7061 74.2226 72.5889 74.2226C72.2608 74.2226 71.9502 74.2842 71.6573 74.4072C71.3702 74.5244 71.1182 74.6943 70.9014 74.917C70.6905 75.1396 70.5235 75.4092 70.4004 75.7256C70.2774 76.0361 70.2159 76.3877 70.2159 76.7803C70.2159 76.8682 70.2188 76.9678 70.2247 77.0791C70.2364 77.1904 70.251 77.3047 70.2686 77.4219C70.292 77.5332 70.3184 77.6416 70.3477 77.7471C70.377 77.8525 70.4151 77.9463 70.462 78.0283L73.2569 74.3193ZM89.6221 78.1689C89.6221 78.6611 89.5284 79.1269 89.3409 79.5664C89.1534 80 88.8956 80.3779 88.5674 80.7002C88.2452 81.0224 87.8643 81.2773 87.4249 81.4648C86.9913 81.6523 86.5254 81.7461 86.0274 81.7461C85.5821 81.7461 85.1543 81.6699 84.7442 81.5176C84.334 81.3594 83.962 81.1308 83.628 80.832C83.2999 81.1308 82.9307 81.3594 82.5206 81.5176C82.1163 81.6699 81.6885 81.7461 81.2373 81.7461C80.7393 81.7461 80.2735 81.6523 79.8399 81.4648C79.4063 81.2773 79.0254 81.0224 78.6973 80.7002C78.375 80.3779 78.1202 80 77.9327 79.5664C77.7452 79.1269 77.6514 78.6611 77.6514 78.1689V72.1748H80.0508V78.1689C80.0508 78.333 80.0801 78.4883 80.1387 78.6348C80.2032 78.7754 80.2881 78.9014 80.3936 79.0127C80.5049 79.1182 80.6309 79.2031 80.7715 79.2676C80.918 79.3262 81.0733 79.3555 81.2373 79.3555C81.4014 79.3555 81.5567 79.3262 81.7032 79.2676C81.8497 79.2031 81.9786 79.1182 82.0899 79.0127C82.2012 78.9014 82.2862 78.7754 82.3448 78.6348C82.4092 78.4883 82.4415 78.333 82.4415 78.1689V72.1748H84.8321V78.1689C84.8321 78.333 84.8643 78.4883 84.9288 78.6348C84.9932 78.7754 85.0782 78.9014 85.1836 79.0127C85.295 79.1182 85.4209 79.2031 85.5616 79.2676C85.7081 79.3262 85.8633 79.3555 86.0274 79.3555C86.1915 79.3555 86.3467 79.3262 86.4932 79.2676C86.6397 79.2031 86.7657 79.1182 86.8711 79.0127C86.9825 78.9014 87.0704 78.7754 87.1348 78.6348C87.1993 78.4883 87.2315 78.333 87.2315 78.1689V72.1748H89.6221V78.1689ZM94.1924 69.5996C94.1924 69.8223 94.1485 70.0303 94.0606 70.2236C93.9786 70.417 93.8643 70.5869 93.7178 70.7334C93.5713 70.874 93.3985 70.9883 93.1993 71.0762C93.0059 71.1582 92.7979 71.1992 92.5752 71.1992C92.3526 71.1992 92.1416 71.1582 91.9424 71.0762C91.7491 70.9883 91.5791 70.874 91.4327 70.7334C91.292 70.5869 91.1778 70.417 91.0899 70.2236C91.0079 70.0303 90.9668 69.8223 90.9668 69.5996C90.9668 69.3828 91.0079 69.1777 91.0899 68.9844C91.1778 68.7851 91.292 68.6152 91.4327 68.4746C91.5791 68.3281 91.7491 68.2139 91.9424 68.1318C92.1416 68.0439 92.3526 68 92.5752 68C92.7979 68 93.0059 68.0439 93.1993 68.1318C93.3985 68.2139 93.5713 68.3281 93.7178 68.4746C93.8643 68.6152 93.9786 68.7851 94.0606 68.9844C94.1485 69.1777 94.1924 69.3828 94.1924 69.5996ZM93.7793 81.5703H91.3623V72.1572H93.7793V81.5703ZM100.784 81.5703H95.2999V79.1797H100.784C100.948 79.1797 101.089 79.1211 101.206 79.0039C101.323 78.8867 101.382 78.7461 101.382 78.582C101.382 78.4121 101.323 78.3008 101.206 78.248C101.089 78.1953 100.948 78.1689 100.784 78.1689H98.2881C97.8721 78.1689 97.4825 78.0898 97.1192 77.9316C96.7559 77.7734 96.4395 77.5596 96.17 77.29C95.9004 77.0146 95.6866 76.6953 95.5284 76.332C95.376 75.9687 95.2999 75.5791 95.2999 75.1631C95.2999 74.7471 95.376 74.3574 95.5284 73.9941C95.6866 73.6308 95.9004 73.3144 96.17 73.0449C96.4395 72.7754 96.7559 72.5644 97.1192 72.4121C97.4825 72.2539 97.8721 72.1748 98.2881 72.1748H103.148V74.5654H98.2881C98.1241 74.5654 97.9834 74.624 97.8663 74.7412C97.7491 74.8584 97.6905 74.999 97.6905 75.1631C97.6905 75.333 97.7491 75.4795 97.8663 75.6025C97.9834 75.7197 98.1241 75.7783 98.2881 75.7783H100.784C101.194 75.7783 101.581 75.8486 101.944 75.9892C102.308 76.124 102.624 76.3144 102.893 76.5605C103.163 76.8066 103.377 77.1025 103.535 77.4482C103.693 77.7939 103.772 78.1719 103.772 78.582C103.772 78.998 103.693 79.3877 103.535 79.751C103.377 80.1084 103.163 80.4248 102.893 80.7002C102.624 80.9697 102.308 81.1836 101.944 81.3418C101.581 81.4941 101.194 81.5703 100.784 81.5703ZM108.8 79.2676C108.893 79.2969 108.987 79.3174 109.081 79.3291C109.175 79.3349 109.269 79.3379 109.362 79.3379C109.597 79.3379 109.822 79.3057 110.039 79.2412C110.256 79.1767 110.458 79.0859 110.645 78.9687C110.839 78.8457 111.009 78.6992 111.155 78.5293C111.308 78.3535 111.431 78.1601 111.524 77.9492L113.282 79.7158C113.06 80.0322 112.802 80.3164 112.509 80.5683C112.222 80.8203 111.908 81.0342 111.568 81.2099C111.234 81.3857 110.88 81.5176 110.505 81.6055C110.136 81.6992 109.755 81.7461 109.362 81.7461C108.7 81.7461 108.076 81.623 107.49 81.3769C106.91 81.1308 106.4 80.7881 105.961 80.3486C105.527 79.9092 105.185 79.3877 104.933 78.7842C104.681 78.1748 104.555 77.5068 104.555 76.7803C104.555 76.0361 104.681 75.3564 104.933 74.7412C105.185 74.126 105.527 73.6015 105.961 73.168C106.4 72.7344 106.91 72.3974 107.49 72.1572C108.076 71.917 108.7 71.7969 109.362 71.7969C109.755 71.7969 110.139 71.8437 110.514 71.9375C110.889 72.0312 111.243 72.166 111.577 72.3418C111.917 72.5176 112.233 72.7344 112.526 72.9922C112.819 73.2441 113.077 73.5283 113.3 73.8447L108.8 79.2676ZM110.03 74.3193C109.919 74.2783 109.808 74.2519 109.696 74.2402C109.591 74.2285 109.479 74.2226 109.362 74.2226C109.034 74.2226 108.724 74.2842 108.431 74.4072C108.143 74.5244 107.892 74.6943 107.675 74.917C107.464 75.1396 107.297 75.4092 107.174 75.7256C107.051 76.0361 106.989 76.3877 106.989 76.7803C106.989 76.8682 106.992 76.9678 106.998 77.0791C107.01 77.1904 107.024 77.3047 107.042 77.4219C107.065 77.5332 107.092 77.6416 107.121 77.7471C107.15 77.8525 107.188 77.9463 107.235 78.0283L110.03 74.3193Z" fill="#404553" fill-opacity="0.7"/>
</g>
<defs>
<clipPath id="clip0_283_64">
<rect width="150" height="150" fill="white"/>
</clipPath>
</defs>
</svg>
