<svg width="145" height="25" viewBox="0 0 145 25" fill="none" xmlns="http://www.w3.org/2000/svg">
<path d="M6.552 18.752V24H0.92V4H9.72C11.4267 4 12.8027 4.24533 13.848 4.736C14.9147 5.20533 15.6827 5.97333 16.152 7.04C16.6427 8.10667 16.888 9.504 16.888 11.232C16.888 13.8133 16.344 15.712 15.256 16.928C14.1893 18.144 12.504 18.752 10.2 18.752H6.552ZM6.552 14.624H9.496C10.0507 14.624 10.4347 14.528 10.648 14.336C10.8827 14.144 11 13.792 11 13.28V9.984C11 9.472 10.8827 9.12 10.648 8.928C10.4347 8.736 10.0507 8.64 9.496 8.64H6.552V14.624ZM22.9415 8L24.5415 10.208C25.2455 9.504 25.9815 8.93867 26.7495 8.512C27.5175 8.064 28.3282 7.73333 29.1815 7.52L29.5655 12.992C29.2242 13.0347 28.7975 13.1413 28.2855 13.312C27.7735 13.4827 27.2935 13.6747 26.8455 13.888C26.3975 14.08 26.0455 14.272 25.7895 14.464V24H20.1575V8H22.9415ZM32.52 8.672L38.152 7.936V24H32.52V8.672ZM35.336 6.304C34.1627 6.304 33.352 6.10133 32.904 5.696C32.4773 5.26933 32.264 4.46933 32.264 3.296C32.264 2.10133 32.4773 1.29067 32.904 0.863998C33.352 0.437332 34.1627 0.223999 35.336 0.223999C36.488 0.223999 37.2773 0.437332 37.704 0.863998C38.1307 1.29067 38.344 2.10133 38.344 3.296C38.344 4.46933 38.1413 5.26933 37.736 5.696C37.3307 6.10133 36.5307 6.304 35.336 6.304ZM48.9655 24.448C47.7282 24.448 46.6722 24.2987 45.7975 24C44.9228 23.68 44.2082 23.1787 43.6535 22.496C43.0988 21.8133 42.6828 20.9387 42.4055 19.872C42.1495 18.8053 42.0215 17.5147 42.0215 16C42.0215 14.4853 42.1495 13.1947 42.4055 12.128C42.6828 11.04 43.0988 10.1653 43.6535 9.504C44.2082 8.82133 44.9228 8.33067 45.7975 8.032C46.6722 7.712 47.7282 7.552 48.9655 7.552C49.5842 7.552 50.2348 7.584 50.9175 7.648C51.6215 7.712 52.2828 7.78667 52.9015 7.872C53.5202 7.95733 54.0108 8.064 54.3735 8.192L53.8615 12.16C53.3068 11.9893 52.7415 11.872 52.1655 11.808C51.6108 11.744 51.0135 11.712 50.3735 11.712C49.5202 11.712 48.9228 11.8933 48.5815 12.256C48.2402 12.6187 48.0695 13.248 48.0695 14.144V20.096C48.4962 20.224 49.1682 20.288 50.0855 20.288C50.8108 20.288 51.5042 20.224 52.1655 20.096C52.8268 19.9467 53.4988 19.7333 54.1815 19.456L54.6935 23.392C53.8402 23.7333 52.9228 23.9893 51.9415 24.16C50.9815 24.352 49.9895 24.448 48.9655 24.448ZM65.1638 24.448C63.7771 24.448 62.5824 24.288 61.5798 23.968C60.5771 23.648 59.7558 23.1467 59.1158 22.464C58.4758 21.7813 57.9958 20.9067 57.6758 19.84C57.3771 18.7733 57.2278 17.4933 57.2278 16C57.2278 13.9947 57.5051 12.3733 58.0598 11.136C58.6358 9.89867 59.5104 8.992 60.6838 8.416C61.8784 7.84 63.4144 7.552 65.2918 7.552C67.1691 7.552 68.6304 7.712 69.6758 8.032C70.7211 8.352 71.4571 8.896 71.8838 9.664C72.3318 10.432 72.5558 11.488 72.5558 12.832C72.5558 13.8347 72.3958 14.6773 72.0758 15.36C71.7771 16.0213 71.2758 16.5547 70.5718 16.96C69.8678 17.3653 68.9184 17.6533 67.7238 17.824C66.5291 17.9947 65.0464 18.08 63.2758 18.08H62.3158V15.136H65.1638C66.0384 15.136 66.6358 15.04 66.9558 14.848C67.2971 14.6347 67.4678 14.2507 67.4678 13.696V11.712H65.5798C64.7051 11.712 64.0971 11.808 63.7558 12C63.4358 12.192 63.2758 12.5547 63.2758 13.088V20.096C63.5744 20.16 63.9158 20.2133 64.2998 20.256C64.7051 20.2773 65.2064 20.288 65.8038 20.288C66.6998 20.288 67.6064 20.224 68.5238 20.096C69.4411 19.9467 70.4118 19.7333 71.4358 19.456L72.1398 23.392C71.0944 23.7333 69.9851 23.9893 68.8118 24.16C67.6384 24.352 66.4224 24.448 65.1638 24.448Z" fill="#595B63"/>
<path d="M88.859 24L85.563 8H89.691L91.867 19.104H92.187L94.107 8H99.611L96.379 24H88.859ZM78.235 24L75.003 8H80.507L82.427 19.104H82.747L84.891 8H89.051L85.723 24H78.235ZM102.439 8.672L108.071 7.936V24H102.439V8.672ZM105.255 6.304C104.081 6.304 103.271 6.10133 102.823 5.696C102.396 5.26933 102.183 4.46933 102.183 3.296C102.183 2.10133 102.396 1.29067 102.823 0.863998C103.271 0.437332 104.081 0.223999 105.255 0.223999C106.407 0.223999 107.196 0.437332 107.623 0.863998C108.049 1.29067 108.263 2.10133 108.263 3.296C108.263 4.46933 108.06 5.26933 107.655 5.696C107.249 6.10133 106.449 6.304 105.255 6.304ZM111.972 12.768C111.972 10.976 112.527 9.65333 113.636 8.8C114.746 7.94667 116.484 7.52 118.852 7.52C120.004 7.52 121.135 7.584 122.244 7.712C123.354 7.81867 124.399 7.98933 125.38 8.224L124.708 12.128C124.175 11.9787 123.588 11.872 122.948 11.808C122.308 11.744 121.636 11.712 120.932 11.712C120.378 11.712 119.834 11.744 119.3 11.808C118.788 11.8507 118.351 11.9147 117.988 12V13.792C119.567 13.9627 120.879 14.1867 121.924 14.464C122.97 14.72 123.802 15.0613 124.42 15.488C125.039 15.8933 125.487 16.3947 125.764 16.992C126.042 17.568 126.18 18.2827 126.18 19.136C126.18 20.3733 125.903 21.3867 125.348 22.176C124.815 22.9653 123.983 23.552 122.852 23.936C121.722 24.2987 120.25 24.48 118.436 24.48C117.263 24.48 116.09 24.384 114.916 24.192C113.743 24.0213 112.676 23.7653 111.716 23.424L112.452 19.328C113.988 19.968 115.706 20.288 117.604 20.288C117.967 20.288 118.351 20.2667 118.756 20.224C119.162 20.1813 119.62 20.1067 120.132 20V18.144C118.468 17.952 117.103 17.7387 116.036 17.504C114.991 17.248 114.17 16.928 113.572 16.544C112.975 16.1387 112.559 15.6373 112.324 15.04C112.09 14.4213 111.972 13.664 111.972 12.768ZM137.02 24.448C135.633 24.448 134.439 24.288 133.436 23.968C132.433 23.648 131.612 23.1467 130.972 22.464C130.332 21.7813 129.852 20.9067 129.532 19.84C129.233 18.7733 129.084 17.4933 129.084 16C129.084 13.9947 129.361 12.3733 129.916 11.136C130.492 9.89867 131.367 8.992 132.54 8.416C133.735 7.84 135.271 7.552 137.148 7.552C139.025 7.552 140.487 7.712 141.532 8.032C142.577 8.352 143.313 8.896 143.74 9.664C144.188 10.432 144.412 11.488 144.412 12.832C144.412 13.8347 144.252 14.6773 143.932 15.36C143.633 16.0213 143.132 16.5547 142.428 16.96C141.724 17.3653 140.775 17.6533 139.58 17.824C138.385 17.9947 136.903 18.08 135.132 18.08H134.172V15.136H137.02C137.895 15.136 138.492 15.04 138.812 14.848C139.153 14.6347 139.324 14.2507 139.324 13.696V11.712H137.436C136.561 11.712 135.953 11.808 135.612 12C135.292 12.192 135.132 12.5547 135.132 13.088V20.096C135.431 20.16 135.772 20.2133 136.156 20.256C136.561 20.2773 137.063 20.288 137.66 20.288C138.556 20.288 139.463 20.224 140.38 20.096C141.297 19.9467 142.268 19.7333 143.292 19.456L143.996 23.392C142.951 23.7333 141.841 23.9893 140.668 24.16C139.495 24.352 138.279 24.448 137.02 24.448Z" fill="#7BAAA8"/>
</svg>
