<svg id="Layer_1" data-name="Layer 1" xmlns="http://www.w3.org/2000/svg" viewBox="0 0 997 768"><defs><style>.cls-1{fill:#404553;}.cls-2{fill:#4acbc5;}</style></defs><title>logo</title><path class="cls-1" d="M321.88,400.29v15.86H308.67v-55.4h23.49a25.25,25.25,0,0,1,10.68,1.9,11.62,11.62,0,0,1,5.86,6.21q1.82,4.31,1.81,11.48,0,10.46-4.07,15.2t-12.95,4.75Zm0-9.84h9.93a6.44,6.44,0,0,0,3.77-.8,3.57,3.57,0,0,0,1-2.93V375.38a3.57,3.57,0,0,0-1-2.93,6.44,6.44,0,0,0-3.77-.8h-9.93Z"/><path class="cls-1" d="M365.76,371.83l4,6.47a36.31,36.31,0,0,1,6.34-5.05,24.39,24.39,0,0,1,6.34-2.75l1,12.85a29.65,29.65,0,0,0-3.77,1.11,40.83,40.83,0,0,0-4,1.69A21.91,21.91,0,0,0,372.5,388v28.19H359.29V371.83Z"/><path class="cls-1" d="M398.21,366.07q-4.26,0-5.81-1.51c-1-1-1.55-2.93-1.55-5.76s.51-4.86,1.55-5.9,3-1.55,5.89-1.55,4.69.52,5.72,1.55,1.55,3,1.55,5.9-.5,4.75-1.5,5.76S401.1,366.07,398.21,366.07Zm-6.65,7.18,13.21-1.78v44.68H391.56Z"/><path class="cls-1" d="M434.2,417.22a27,27,0,0,1-8.47-1.15,11.54,11.54,0,0,1-5.54-3.9,17.89,17.89,0,0,1-3.1-7.19,52.09,52.09,0,0,1-1-11,52.94,52.94,0,0,1,1-11,17.54,17.54,0,0,1,3.1-7.18,11.65,11.65,0,0,1,5.54-3.85,26.73,26.73,0,0,1,8.47-1.16c1.65,0,3.41.08,5.27.23s3.64.34,5.32.57a23.45,23.45,0,0,1,4.12.89l-1.24,9.4a41.66,41.66,0,0,0-5.18-.93,45.84,45.84,0,0,0-5.46-.31c-2.54,0-4.31.51-5.32,1.55s-1.5,2.85-1.5,5.45v19.06a24.76,24.76,0,0,0,6.82.71,30.23,30.23,0,0,0,5.68-.53,40.68,40.68,0,0,0,5.94-1.69l1.24,9.22a34.15,34.15,0,0,1-7.4,2.13A48.14,48.14,0,0,1,434.2,417.22Z"/><path class="cls-1" d="M477.46,417.22a32.21,32.21,0,0,1-9.4-1.2,13.28,13.28,0,0,1-6.29-3.94,16.89,16.89,0,0,1-3.5-7.18A45.69,45.69,0,0,1,457.16,394q0-8.5,2.12-13.61A13.76,13.76,0,0,1,466,373q4.61-2.26,12.24-2.27A42.38,42.38,0,0,1,489.87,372a9.44,9.44,0,0,1,5.89,4.3c1.16,2,1.73,4.89,1.73,8.55a18.88,18.88,0,0,1-1.15,7.14,8.76,8.76,0,0,1-4,4.38,22.06,22.06,0,0,1-8,2.22,110.75,110.75,0,0,1-13.08.62h-2.66V392h10.2q3.9,0,5.36-.93c1-.62,1.46-1.79,1.46-3.5v-6.83H478q-3.81,0-5.28.89c-1,.59-1.46,1.74-1.46,3.46v21.63a25.12,25.12,0,0,0,3.37.53c1.24.12,2.75.18,4.52.18a52.3,52.3,0,0,0,7.4-.53,80.23,80.23,0,0,0,8.2-1.69l1.6,9.22a43.94,43.94,0,0,1-8.78,2.13A70.54,70.54,0,0,1,477.46,417.22Z"/><path class="cls-2" d="M513.45,416.15l-9.57-44.32h12.94l6.38,32.89h.89l6.82-32.89h9.93l-9.57,44.32Zm28.63,0-9.57-44.32h9.93l6.82,32.89h.89l6.38-32.89h13l-9.58,44.32Z"/><path class="cls-2" d="M583.84,366.07q-4.26,0-5.81-1.51t-1.55-5.76c0-2.9.52-4.86,1.55-5.9s3-1.55,5.9-1.55,4.68.52,5.72,1.55,1.55,3,1.55,5.9-.51,4.75-1.51,5.76S586.73,366.07,583.84,366.07Zm-6.65,7.18,13.21-1.78v44.68H577.19Z"/><path class="cls-2" d="M601.66,384.59q0-7.26,4.43-10.68t13.83-3.41a74.85,74.85,0,0,1,8.73.49,62.59,62.59,0,0,1,8.11,1.46l-1.59,9.31a35,35,0,0,0-5-1,45.43,45.43,0,0,0-5.67-.35c-1.6,0-3.18.07-4.74.22a26.39,26.39,0,0,0-4,.66v6.92a97,97,0,0,1,11.44,1.9,23.47,23.47,0,0,1,7.09,2.8,9.46,9.46,0,0,1,3.64,4.12,15.13,15.13,0,0,1,1.06,6,15.29,15.29,0,0,1-2,8.29,11.58,11.58,0,0,1-6.56,4.7,39,39,0,0,1-11.79,1.46,58.37,58.37,0,0,1-9.09-.71,55.66,55.66,0,0,1-8.64-2l1.86-9.93a36.82,36.82,0,0,0,14.36,2.74,29.93,29.93,0,0,0,3.68-.22c1.21-.14,2.62-.4,4.21-.75v-7.09q-7.35-.89-11.92-1.91a21.22,21.22,0,0,1-7-2.66,8.45,8.45,0,0,1-3.41-4.12A17.82,17.82,0,0,1,601.66,384.59Z"/><path class="cls-2" d="M667.52,417.22a32.18,32.18,0,0,1-9.39-1.2,13.36,13.36,0,0,1-6.3-3.94,17.13,17.13,0,0,1-3.5-7.18A45.69,45.69,0,0,1,647.22,394q0-8.5,2.13-13.61a13.72,13.72,0,0,1,6.74-7.35q4.6-2.26,12.23-2.27A42.41,42.41,0,0,1,679.94,372a9.47,9.47,0,0,1,5.89,4.3c1.15,2,1.73,4.89,1.73,8.55a19.08,19.08,0,0,1-1.15,7.14,8.78,8.78,0,0,1-4,4.38,22.07,22.07,0,0,1-8,2.22,110.75,110.75,0,0,1-13.08.62h-2.66V392h10.19q3.9,0,5.37-.93c1-.62,1.46-1.79,1.46-3.5v-6.83h-7.62c-2.55,0-4.3.3-5.28.89s-1.46,1.74-1.46,3.46v21.63a24.87,24.87,0,0,0,3.37.53c1.24.12,2.75.18,4.52.18a52.3,52.3,0,0,0,7.4-.53,80.78,80.78,0,0,0,8.2-1.69l1.6,9.22a43.94,43.94,0,0,1-8.78,2.13A70.57,70.57,0,0,1,667.52,417.22Z"/></svg>