<svg width="150" height="150" viewBox="0 0 150 150" fill="none" xmlns="http://www.w3.org/2000/svg">
<g clip-path="url(#clip0_283_64)">
<path d="M150 0H0V150H150V0Z" fill="#222831"/>
<path d="M38.6914 63.9189V68.9639H41.2139C41.5596 68.9639 41.8848 68.8994 42.1895 68.7705C42.4941 68.6357 42.7607 68.4541 42.9893 68.2256C43.2178 67.9971 43.3965 67.7305 43.5254 67.4258C43.6602 67.1152 43.7275 66.7871 43.7275 66.4414C43.7275 66.0957 43.6602 65.7705 43.5254 65.4658C43.3965 65.1553 43.2178 64.8857 42.9893 64.6572C42.7607 64.4287 42.4941 64.25 42.1895 64.1211C41.8848 63.9863 41.5596 63.9189 41.2139 63.9189H38.6914ZM38.6914 74H36.1689V61.3965H41.2139C41.6768 61.3965 42.1221 61.458 42.5498 61.5811C42.9775 61.6982 43.376 61.8682 43.7451 62.0908C44.1201 62.3076 44.46 62.5713 44.7646 62.8818C45.0752 63.1865 45.3389 63.5264 45.5557 63.9014C45.7783 64.2764 45.9482 64.6777 46.0654 65.1055C46.1885 65.5332 46.25 65.9785 46.25 66.4414C46.25 67.1328 46.1182 67.7861 45.8545 68.4014C45.5908 69.0107 45.2305 69.5439 44.7734 70.001C44.3164 70.458 43.7803 70.8184 43.165 71.082C42.5557 71.3457 41.9053 71.4775 41.2139 71.4775H38.6914V74ZM49.8799 74H47.4805V64.5869H48.0605L48.8516 65.7031C49.2383 65.3516 49.6777 65.082 50.1699 64.8945C50.6621 64.7012 51.1719 64.6045 51.6992 64.6045H53.8174V66.9951H51.6992C51.4473 66.9951 51.21 67.042 50.9873 67.1357C50.7646 67.2295 50.5713 67.3584 50.4072 67.5225C50.2432 67.6865 50.1143 67.8799 50.0205 68.1025C49.9268 68.3252 49.8799 68.5625 49.8799 68.8145V74ZM57.7637 62.0293C57.7637 62.252 57.7197 62.46 57.6318 62.6533C57.5498 62.8467 57.4355 63.0166 57.2891 63.1631C57.1426 63.3037 56.9697 63.418 56.7705 63.5059C56.5771 63.5879 56.3691 63.6289 56.1465 63.6289C55.9238 63.6289 55.7129 63.5879 55.5137 63.5059C55.3203 63.418 55.1504 63.3037 55.0039 63.1631C54.8633 63.0166 54.749 62.8467 54.6611 62.6533C54.5791 62.46 54.5381 62.252 54.5381 62.0293C54.5381 61.8125 54.5791 61.6074 54.6611 61.4141C54.749 61.2148 54.8633 61.0449 55.0039 60.9043C55.1504 60.7578 55.3203 60.6436 55.5137 60.5615C55.7129 60.4736 55.9238 60.4297 56.1465 60.4297C56.3691 60.4297 56.5771 60.4736 56.7705 60.5615C56.9697 60.6436 57.1426 60.7578 57.2891 60.9043C57.4355 61.0449 57.5498 61.2148 57.6318 61.4141C57.7197 61.6074 57.7637 61.8125 57.7637 62.0293ZM57.3506 74H54.9336V64.5869H57.3506V74ZM67.4141 66.459L65.6562 68.2256C65.5684 67.9795 65.4482 67.7598 65.2959 67.5664C65.1436 67.3672 64.9707 67.2002 64.7773 67.0654C64.5898 66.9307 64.3848 66.8281 64.1621 66.7578C63.9395 66.6875 63.7109 66.6523 63.4766 66.6523C63.1484 66.6523 62.8379 66.7197 62.5449 66.8545C62.2578 66.9893 62.0059 67.1797 61.7891 67.4258C61.5781 67.666 61.4111 67.9531 61.2881 68.2871C61.165 68.6211 61.1035 68.9902 61.1035 69.3945C61.1035 69.7227 61.165 70.0303 61.2881 70.3174C61.4111 70.6045 61.5781 70.8564 61.7891 71.0732C62.0059 71.29 62.2578 71.46 62.5449 71.583C62.8379 71.7061 63.1484 71.7676 63.4766 71.7676C63.7109 71.7676 63.9365 71.7354 64.1533 71.6709C64.3701 71.6064 64.5723 71.5156 64.7598 71.3984C64.9531 71.2754 65.123 71.1289 65.2695 70.959C65.4219 70.7832 65.5449 70.5898 65.6387 70.3789L67.3965 72.1455C67.1738 72.4619 66.916 72.7461 66.623 72.998C66.3359 73.25 66.0225 73.4639 65.6826 73.6396C65.3486 73.8154 64.9941 73.9473 64.6191 74.0352C64.25 74.1289 63.8691 74.1758 63.4766 74.1758C62.8145 74.1758 62.1904 74.0527 61.6045 73.8066C61.0244 73.5547 60.5146 73.2119 60.0752 72.7783C59.6416 72.3447 59.2988 71.8379 59.0469 71.2578C58.7949 70.6777 58.6689 70.0566 58.6689 69.3945C58.6689 68.6738 58.7949 68 59.0469 67.373C59.2988 66.7461 59.6416 66.2012 60.0752 65.7383C60.5146 65.2695 61.0244 64.9004 61.6045 64.6309C62.1904 64.3613 62.8145 64.2266 63.4766 64.2266C63.8691 64.2266 64.2529 64.2764 64.6279 64.376C65.0088 64.4756 65.3691 64.6221 65.709 64.8154C66.0547 65.0029 66.3711 65.2344 66.6582 65.5098C66.9512 65.7852 67.2031 66.1016 67.4141 66.459ZM72.1953 71.6973C72.2891 71.7266 72.3828 71.7471 72.4766 71.7588C72.5703 71.7646 72.6641 71.7676 72.7578 71.7676C72.9922 71.7676 73.2178 71.7354 73.4346 71.6709C73.6514 71.6064 73.8535 71.5156 74.041 71.3984C74.2344 71.2754 74.4043 71.1289 74.5508 70.959C74.7031 70.7832 74.8262 70.5898 74.9199 70.3789L76.6777 72.1455C76.4551 72.4619 76.1973 72.7461 75.9043 72.998C75.6172 73.25 75.3037 73.4639 74.9639 73.6396C74.6299 73.8154 74.2754 73.9473 73.9004 74.0352C73.5312 74.1289 73.1504 74.1758 72.7578 74.1758C72.0957 74.1758 71.4717 74.0527 70.8857 73.8066C70.3057 73.5605 69.7959 73.2178 69.3564 72.7783C68.9229 72.3389 68.5801 71.8174 68.3281 71.2139C68.0762 70.6045 67.9502 69.9365 67.9502 69.21C67.9502 68.4658 68.0762 67.7861 68.3281 67.1709C68.5801 66.5557 68.9229 66.0312 69.3564 65.5977C69.7959 65.1641 70.3057 64.8271 70.8857 64.5869C71.4717 64.3467 72.0957 64.2266 72.7578 64.2266C73.1504 64.2266 73.5342 64.2734 73.9092 64.3672C74.2842 64.4609 74.6387 64.5957 74.9727 64.7715C75.3125 64.9473 75.6289 65.1641 75.9219 65.4219C76.2148 65.6738 76.4727 65.958 76.6953 66.2744L72.1953 71.6973ZM73.4258 66.749C73.3145 66.708 73.2031 66.6816 73.0918 66.6699C72.9863 66.6582 72.875 66.6523 72.7578 66.6523C72.4297 66.6523 72.1191 66.7139 71.8262 66.8369C71.5391 66.9541 71.2871 67.124 71.0703 67.3467C70.8594 67.5693 70.6924 67.8389 70.5693 68.1553C70.4463 68.4658 70.3848 68.8174 70.3848 69.21C70.3848 69.2979 70.3877 69.3975 70.3936 69.5088C70.4053 69.6201 70.4199 69.7344 70.4375 69.8516C70.4609 69.9629 70.4873 70.0713 70.5166 70.1768C70.5459 70.2822 70.584 70.376 70.6309 70.458L73.4258 66.749ZM89.791 70.5986C89.791 71.0908 89.6973 71.5566 89.5098 71.9961C89.3223 72.4297 89.0645 72.8076 88.7363 73.1299C88.4141 73.4521 88.0332 73.707 87.5938 73.8945C87.1602 74.082 86.6943 74.1758 86.1963 74.1758C85.751 74.1758 85.3232 74.0996 84.9131 73.9473C84.5029 73.7891 84.1309 73.5605 83.7969 73.2617C83.4688 73.5605 83.0996 73.7891 82.6895 73.9473C82.2852 74.0996 81.8574 74.1758 81.4062 74.1758C80.9082 74.1758 80.4424 74.082 80.0088 73.8945C79.5752 73.707 79.1943 73.4521 78.8662 73.1299C78.5439 72.8076 78.2891 72.4297 78.1016 71.9961C77.9141 71.5566 77.8203 71.0908 77.8203 70.5986V64.6045H80.2197V70.5986C80.2197 70.7627 80.249 70.918 80.3076 71.0645C80.3721 71.2051 80.457 71.3311 80.5625 71.4424C80.6738 71.5479 80.7998 71.6328 80.9404 71.6973C81.0869 71.7559 81.2422 71.7852 81.4062 71.7852C81.5703 71.7852 81.7256 71.7559 81.8721 71.6973C82.0186 71.6328 82.1475 71.5479 82.2588 71.4424C82.3701 71.3311 82.4551 71.2051 82.5137 71.0645C82.5781 70.918 82.6104 70.7627 82.6104 70.5986V64.6045H85.001V70.5986C85.001 70.7627 85.0332 70.918 85.0977 71.0645C85.1621 71.2051 85.2471 71.3311 85.3525 71.4424C85.4639 71.5479 85.5898 71.6328 85.7305 71.6973C85.877 71.7559 86.0322 71.7852 86.1963 71.7852C86.3604 71.7852 86.5156 71.7559 86.6621 71.6973C86.8086 71.6328 86.9346 71.5479 87.04 71.4424C87.1514 71.3311 87.2393 71.2051 87.3037 71.0645C87.3682 70.918 87.4004 70.7627 87.4004 70.5986V64.6045H89.791V70.5986ZM94.3613 62.0293C94.3613 62.252 94.3174 62.46 94.2295 62.6533C94.1475 62.8467 94.0332 63.0166 93.8867 63.1631C93.7402 63.3037 93.5674 63.418 93.3682 63.5059C93.1748 63.5879 92.9668 63.6289 92.7441 63.6289C92.5215 63.6289 92.3105 63.5879 92.1113 63.5059C91.918 63.418 91.748 63.3037 91.6016 63.1631C91.4609 63.0166 91.3467 62.8467 91.2588 62.6533C91.1768 62.46 91.1357 62.252 91.1357 62.0293C91.1357 61.8125 91.1768 61.6074 91.2588 61.4141C91.3467 61.2148 91.4609 61.0449 91.6016 60.9043C91.748 60.7578 91.918 60.6436 92.1113 60.5615C92.3105 60.4736 92.5215 60.4297 92.7441 60.4297C92.9668 60.4297 93.1748 60.4736 93.3682 60.5615C93.5674 60.6436 93.7402 60.7578 93.8867 60.9043C94.0332 61.0449 94.1475 61.2148 94.2295 61.4141C94.3174 61.6074 94.3613 61.8125 94.3613 62.0293ZM93.9482 74H91.5312V64.5869H93.9482V74ZM100.953 74H95.4688V71.6094H100.953C101.117 71.6094 101.258 71.5508 101.375 71.4336C101.492 71.3164 101.551 71.1758 101.551 71.0117C101.551 70.8418 101.492 70.7305 101.375 70.6777C101.258 70.625 101.117 70.5986 100.953 70.5986H98.457C98.041 70.5986 97.6514 70.5195 97.2881 70.3613C96.9248 70.2031 96.6084 69.9893 96.3389 69.7197C96.0693 69.4443 95.8555 69.125 95.6973 68.7617C95.5449 68.3984 95.4688 68.0088 95.4688 67.5928C95.4688 67.1768 95.5449 66.7871 95.6973 66.4238C95.8555 66.0605 96.0693 65.7441 96.3389 65.4746C96.6084 65.2051 96.9248 64.9941 97.2881 64.8418C97.6514 64.6836 98.041 64.6045 98.457 64.6045H103.317V66.9951H98.457C98.293 66.9951 98.1523 67.0537 98.0352 67.1709C97.918 67.2881 97.8594 67.4287 97.8594 67.5928C97.8594 67.7627 97.918 67.9092 98.0352 68.0322C98.1523 68.1494 98.293 68.208 98.457 68.208H100.953C101.363 68.208 101.75 68.2783 102.113 68.4189C102.477 68.5537 102.793 68.7441 103.062 68.9902C103.332 69.2363 103.546 69.5322 103.704 69.8779C103.862 70.2236 103.941 70.6016 103.941 71.0117C103.941 71.4277 103.862 71.8174 103.704 72.1807C103.546 72.5381 103.332 72.8545 103.062 73.1299C102.793 73.3994 102.477 73.6133 102.113 73.7715C101.75 73.9238 101.363 74 100.953 74ZM108.969 71.6973C109.062 71.7266 109.156 71.7471 109.25 71.7588C109.344 71.7646 109.438 71.7676 109.531 71.7676C109.766 71.7676 109.991 71.7354 110.208 71.6709C110.425 71.6064 110.627 71.5156 110.814 71.3984C111.008 71.2754 111.178 71.1289 111.324 70.959C111.477 70.7832 111.6 70.5898 111.693 70.3789L113.451 72.1455C113.229 72.4619 112.971 72.7461 112.678 72.998C112.391 73.25 112.077 73.4639 111.737 73.6396C111.403 73.8154 111.049 73.9473 110.674 74.0352C110.305 74.1289 109.924 74.1758 109.531 74.1758C108.869 74.1758 108.245 74.0527 107.659 73.8066C107.079 73.5605 106.569 73.2178 106.13 72.7783C105.696 72.3389 105.354 71.8174 105.102 71.2139C104.85 70.6045 104.724 69.9365 104.724 69.21C104.724 68.4658 104.85 67.7861 105.102 67.1709C105.354 66.5557 105.696 66.0312 106.13 65.5977C106.569 65.1641 107.079 64.8271 107.659 64.5869C108.245 64.3467 108.869 64.2266 109.531 64.2266C109.924 64.2266 110.308 64.2734 110.683 64.3672C111.058 64.4609 111.412 64.5957 111.746 64.7715C112.086 64.9473 112.402 65.1641 112.695 65.4219C112.988 65.6738 113.246 65.958 113.469 66.2744L108.969 71.6973ZM110.199 66.749C110.088 66.708 109.977 66.6816 109.865 66.6699C109.76 66.6582 109.648 66.6523 109.531 66.6523C109.203 66.6523 108.893 66.7139 108.6 66.8369C108.312 66.9541 108.061 67.124 107.844 67.3467C107.633 67.5693 107.466 67.8389 107.343 68.1553C107.22 68.4658 107.158 68.8174 107.158 69.21C107.158 69.2979 107.161 69.3975 107.167 69.5088C107.179 69.6201 107.193 69.7344 107.211 69.8516C107.234 69.9629 107.261 70.0713 107.29 70.1768C107.319 70.2822 107.357 70.376 107.404 70.458L110.199 66.749Z" fill="white"/>
<path d="M21.1554 84.224C21.1554 83.7493 21.2247 83.3307 21.3634 82.968C21.5074 82.6053 21.6994 82.304 21.9394 82.064C22.1847 81.8187 22.4674 81.6347 22.7874 81.512C23.1127 81.3893 23.4567 81.328 23.8194 81.328C24.1767 81.328 24.5127 81.3893 24.8274 81.512C25.1474 81.6347 25.4274 81.8187 25.6674 82.064C25.9074 82.304 26.0967 82.6053 26.2354 82.968C26.3794 83.3307 26.4514 83.7493 26.4514 84.224C26.4514 84.6987 26.3794 85.1173 26.2354 85.48C26.0967 85.8427 25.9074 86.1467 25.6674 86.392C25.4274 86.632 25.1474 86.8133 24.8274 86.936C24.5127 87.0587 24.1767 87.12 23.8194 87.12C23.4567 87.12 23.1127 87.0587 22.7874 86.936C22.4674 86.8133 22.1847 86.632 21.9394 86.392C21.6994 86.1467 21.5074 85.8427 21.3634 85.48C21.2247 85.1173 21.1554 84.6987 21.1554 84.224ZM21.9714 84.224C21.9714 84.56 22.0141 84.8667 22.0994 85.144C22.1847 85.416 22.3047 85.648 22.4594 85.84C22.6194 86.032 22.8114 86.1813 23.0354 86.288C23.2647 86.3893 23.5207 86.44 23.8034 86.44C24.0861 86.44 24.3394 86.3893 24.5634 86.288C24.7874 86.1813 24.9767 86.032 25.1314 85.84C25.2914 85.648 25.4141 85.416 25.4994 85.144C25.5847 84.8667 25.6274 84.56 25.6274 84.224C25.6274 83.888 25.5847 83.584 25.4994 83.312C25.4141 83.0347 25.2914 82.8 25.1314 82.608C24.9767 82.416 24.7874 82.2693 24.5634 82.168C24.3394 82.0613 24.0861 82.008 23.8034 82.008C23.5207 82.008 23.2647 82.0613 23.0354 82.168C22.8114 82.2693 22.6194 82.416 22.4594 82.608C22.3047 82.8 22.1847 83.0347 22.0994 83.312C22.0141 83.584 21.9714 83.888 21.9714 84.224ZM27.558 82.96C27.7286 82.9173 27.9553 82.872 28.238 82.824C28.5206 82.776 28.846 82.752 29.214 82.752C29.5446 82.752 29.8193 82.8 30.038 82.896C30.2566 82.9867 30.43 83.1173 30.558 83.288C30.6913 83.4533 30.7846 83.6533 30.838 83.888C30.8913 84.1227 30.918 84.3813 30.918 84.664V87H30.174V84.824C30.174 84.568 30.1553 84.3493 30.118 84.168C30.086 83.9867 30.03 83.84 29.95 83.728C29.87 83.616 29.7633 83.536 29.63 83.488C29.4966 83.4347 29.3313 83.408 29.134 83.408C29.054 83.408 28.9713 83.4107 28.886 83.416C28.8006 83.4213 28.718 83.4293 28.638 83.44C28.5633 83.4453 28.494 83.4533 28.43 83.464C28.3713 83.4747 28.3286 83.4827 28.302 83.488V87H27.558V82.96ZM31.9197 84.928C31.9197 84.56 31.9731 84.24 32.0797 83.968C32.1864 83.6907 32.3277 83.4613 32.5037 83.28C32.6797 83.0987 32.8824 82.9627 33.1117 82.872C33.3411 82.7813 33.5757 82.736 33.8157 82.736C34.3757 82.736 34.8051 82.912 35.1037 83.264C35.4024 83.6107 35.5517 84.1413 35.5517 84.856C35.5517 84.888 35.5517 84.9307 35.5517 84.984C35.5517 85.032 35.5491 85.0773 35.5437 85.12H32.6957C32.7277 85.552 32.8531 85.88 33.0717 86.104C33.2904 86.328 33.6317 86.44 34.0957 86.44C34.3571 86.44 34.5757 86.4187 34.7517 86.376C34.9331 86.328 35.0691 86.2827 35.1597 86.24L35.2637 86.864C35.1731 86.912 35.0131 86.9627 34.7837 87.016C34.5597 87.0693 34.3037 87.096 34.0157 87.096C33.6531 87.096 33.3384 87.0427 33.0717 86.936C32.8104 86.824 32.5944 86.672 32.4237 86.48C32.2531 86.288 32.1251 86.0613 32.0397 85.8C31.9597 85.5333 31.9197 85.2427 31.9197 84.928ZM34.7757 84.52C34.7811 84.184 34.6957 83.9093 34.5197 83.696C34.3491 83.4773 34.1117 83.368 33.8077 83.368C33.6371 83.368 33.4851 83.4027 33.3517 83.472C33.2237 83.536 33.1144 83.6213 33.0237 83.728C32.9331 83.8347 32.8611 83.9573 32.8077 84.096C32.7597 84.2347 32.7277 84.376 32.7117 84.52H34.7757ZM41.36 84.928C41.36 84.4427 41.24 84.0693 41 83.808C40.76 83.5467 40.44 83.416 40.04 83.416C39.816 83.416 39.64 83.424 39.512 83.44C39.3894 83.456 39.2907 83.4747 39.216 83.496V86.12C39.3067 86.1947 39.4374 86.2667 39.608 86.336C39.7787 86.4053 39.9654 86.44 40.168 86.44C40.3814 86.44 40.5627 86.4027 40.712 86.328C40.8667 86.248 40.992 86.1413 41.088 86.008C41.184 85.8693 41.2534 85.7093 41.296 85.528C41.3387 85.3413 41.36 85.1413 41.36 84.928ZM42.136 84.928C42.136 85.2427 42.0934 85.5333 42.008 85.8C41.928 86.0667 41.808 86.296 41.648 86.488C41.488 86.68 41.2907 86.8293 41.056 86.936C40.8267 87.0427 40.5627 87.096 40.264 87.096C40.024 87.096 39.8107 87.064 39.624 87C39.4427 86.936 39.3067 86.8747 39.216 86.816V88.48H38.472V82.968C38.648 82.9253 38.8667 82.88 39.128 82.832C39.3947 82.7787 39.7014 82.752 40.048 82.752C40.368 82.752 40.656 82.8027 40.912 82.904C41.168 83.0053 41.3867 83.1493 41.568 83.336C41.7494 83.5227 41.888 83.752 41.984 84.024C42.0854 84.2907 42.136 84.592 42.136 84.928ZM44.431 87.08C43.9723 87.0693 43.647 86.9707 43.455 86.784C43.263 86.5973 43.167 86.3067 43.167 85.912V80.92L43.911 80.792V85.792C43.911 85.9147 43.9216 86.016 43.943 86.096C43.9643 86.176 43.999 86.24 44.047 86.288C44.095 86.336 44.159 86.3733 44.239 86.4C44.319 86.4213 44.4176 86.44 44.535 86.456L44.431 87.08ZM46.7785 86.464C46.9545 86.464 47.1091 86.4613 47.2425 86.456C47.3811 86.4453 47.4958 86.4293 47.5865 86.408V85.168C47.5331 85.1413 47.4451 85.12 47.3225 85.104C47.2051 85.0827 47.0611 85.072 46.8905 85.072C46.7785 85.072 46.6585 85.08 46.5305 85.096C46.4078 85.112 46.2931 85.1467 46.1865 85.2C46.0851 85.248 45.9998 85.3173 45.9305 85.408C45.8611 85.4933 45.8265 85.608 45.8265 85.752C45.8265 86.0187 45.9118 86.2053 46.0825 86.312C46.2531 86.4133 46.4851 86.464 46.7785 86.464ZM46.7145 82.736C47.0131 82.736 47.2638 82.776 47.4665 82.856C47.6745 82.9307 47.8398 83.04 47.9625 83.184C48.0905 83.3227 48.1811 83.4907 48.2345 83.688C48.2878 83.88 48.3145 84.0933 48.3145 84.328V86.928C48.2505 86.9387 48.1598 86.9547 48.0425 86.976C47.9305 86.992 47.8025 87.008 47.6585 87.024C47.5145 87.04 47.3571 87.0533 47.1865 87.064C47.0211 87.08 46.8558 87.088 46.6905 87.088C46.4558 87.088 46.2398 87.064 46.0425 87.016C45.8451 86.968 45.6745 86.8933 45.5305 86.792C45.3865 86.6853 45.2745 86.5467 45.1945 86.376C45.1145 86.2053 45.0745 86 45.0745 85.76C45.0745 85.5307 45.1198 85.3333 45.2105 85.168C45.3065 85.0027 45.4345 84.8693 45.5945 84.768C45.7545 84.6667 45.9411 84.592 46.1545 84.544C46.3678 84.496 46.5918 84.472 46.8265 84.472C46.9011 84.472 46.9785 84.4773 47.0585 84.488C47.1385 84.4933 47.2131 84.504 47.2825 84.52C47.3571 84.5307 47.4211 84.5413 47.4745 84.552C47.5278 84.5627 47.5651 84.5707 47.5865 84.576V84.368C47.5865 84.2453 47.5731 84.1253 47.5465 84.008C47.5198 83.8853 47.4718 83.7787 47.4025 83.688C47.3331 83.592 47.2371 83.5173 47.1145 83.464C46.9971 83.4053 46.8425 83.376 46.6505 83.376C46.4051 83.376 46.1891 83.3947 46.0025 83.432C45.8211 83.464 45.6851 83.4987 45.5945 83.536L45.5065 82.92C45.6025 82.8773 45.7625 82.8373 45.9865 82.8C46.2105 82.7573 46.4531 82.736 46.7145 82.736ZM51.3582 87.096C51.0222 87.096 50.7262 87.0427 50.4702 86.936C50.2195 86.8293 50.0062 86.68 49.8302 86.488C49.6595 86.296 49.5315 86.0693 49.4462 85.808C49.3608 85.5413 49.3182 85.248 49.3182 84.928C49.3182 84.608 49.3635 84.3147 49.4542 84.048C49.5502 83.7813 49.6835 83.552 49.8542 83.36C50.0248 83.1627 50.2328 83.0107 50.4782 82.904C50.7288 82.792 51.0062 82.736 51.3102 82.736C51.4968 82.736 51.6835 82.752 51.8702 82.784C52.0568 82.816 52.2355 82.8667 52.4062 82.936L52.2382 83.568C52.1262 83.5147 51.9955 83.472 51.8462 83.44C51.7022 83.408 51.5475 83.392 51.3822 83.392C50.9662 83.392 50.6462 83.5227 50.4222 83.784C50.2035 84.0453 50.0942 84.4267 50.0942 84.928C50.0942 85.152 50.1182 85.3573 50.1662 85.544C50.2195 85.7307 50.2995 85.8907 50.4062 86.024C50.5182 86.1573 50.6595 86.2613 50.8302 86.336C51.0008 86.4053 51.2088 86.44 51.4542 86.44C51.6515 86.44 51.8302 86.4213 51.9902 86.384C52.1502 86.3467 52.2755 86.3067 52.3662 86.264L52.4702 86.888C52.4275 86.9147 52.3662 86.9413 52.2862 86.968C52.2062 86.9893 52.1155 87.008 52.0142 87.024C51.9128 87.0453 51.8035 87.0613 51.6862 87.072C51.5742 87.088 51.4648 87.096 51.3582 87.096ZM53.0369 84.928C53.0369 84.56 53.0902 84.24 53.1969 83.968C53.3036 83.6907 53.4449 83.4613 53.6209 83.28C53.7969 83.0987 53.9996 82.9627 54.2289 82.872C54.4582 82.7813 54.6929 82.736 54.9329 82.736C55.4929 82.736 55.9222 82.912 56.2209 83.264C56.5196 83.6107 56.6689 84.1413 56.6689 84.856C56.6689 84.888 56.6689 84.9307 56.6689 84.984C56.6689 85.032 56.6662 85.0773 56.6609 85.12H53.8129C53.8449 85.552 53.9702 85.88 54.1889 86.104C54.4076 86.328 54.7489 86.44 55.2129 86.44C55.4742 86.44 55.6929 86.4187 55.8689 86.376C56.0502 86.328 56.1862 86.2827 56.2769 86.24L56.3809 86.864C56.2902 86.912 56.1302 86.9627 55.9009 87.016C55.6769 87.0693 55.4209 87.096 55.1329 87.096C54.7702 87.096 54.4556 87.0427 54.1889 86.936C53.9276 86.824 53.7116 86.672 53.5409 86.48C53.3702 86.288 53.2422 86.0613 53.1569 85.8C53.0769 85.5333 53.0369 85.2427 53.0369 84.928ZM55.8929 84.52C55.8982 84.184 55.8129 83.9093 55.6369 83.696C55.4662 83.4773 55.2289 83.368 54.9249 83.368C54.7542 83.368 54.6022 83.4027 54.4689 83.472C54.3409 83.536 54.2316 83.6213 54.1409 83.728C54.0502 83.8347 53.9782 83.9573 53.9249 84.096C53.8769 84.2347 53.8449 84.376 53.8289 84.52H55.8929ZM62.9892 87C62.8399 86.616 62.6799 86.1787 62.5092 85.688C62.3439 85.192 62.1919 84.6773 62.0532 84.144C61.9146 84.6773 61.7626 85.192 61.5972 85.688C61.4319 86.1787 61.2746 86.616 61.1252 87H60.4772C60.2319 86.4507 59.9919 85.824 59.7572 85.12C59.5226 84.416 59.3012 83.656 59.0932 82.84H59.8932C59.9466 83.0907 60.0106 83.3627 60.0852 83.656C60.1599 83.9493 60.2372 84.2427 60.3172 84.536C60.4026 84.8293 60.4906 85.112 60.5812 85.384C60.6719 85.656 60.7572 85.8933 60.8372 86.096C60.9279 85.8453 61.0159 85.5813 61.1012 85.304C61.1919 85.0213 61.2772 84.7387 61.3572 84.456C61.4372 84.168 61.5119 83.888 61.5812 83.616C61.6559 83.3387 61.7199 83.08 61.7732 82.84H62.3892C62.4372 83.08 62.4959 83.3387 62.5652 83.616C62.6346 83.888 62.7092 84.168 62.7892 84.456C62.8692 84.7387 62.9519 85.0213 63.0372 85.304C63.1279 85.5813 63.2186 85.8453 63.3092 86.096C63.3892 85.8933 63.4719 85.656 63.5572 85.384C63.6479 85.112 63.7359 84.8293 63.8212 84.536C63.9066 84.2427 63.9866 83.9493 64.0612 83.656C64.1359 83.3627 64.1999 83.0907 64.2532 82.84H65.0212C64.8132 83.656 64.5919 84.416 64.3572 85.12C64.1226 85.824 63.8826 86.4507 63.6372 87H62.9892ZM66.552 87H65.808V82.84H66.552V87ZM66.176 82.088C66.0426 82.088 65.928 82.0453 65.832 81.96C65.7413 81.8693 65.696 81.7493 65.696 81.6C65.696 81.4507 65.7413 81.3333 65.832 81.248C65.928 81.1573 66.0426 81.112 66.176 81.112C66.3093 81.112 66.4213 81.1573 66.512 81.248C66.608 81.3333 66.656 81.4507 66.656 81.6C66.656 81.7493 66.608 81.8693 66.512 81.96C66.4213 82.0453 66.3093 82.088 66.176 82.088ZM68.5274 82.84H70.1034V83.464H68.5274V85.384C68.5274 85.592 68.5434 85.7653 68.5754 85.904C68.6074 86.0373 68.6554 86.144 68.7194 86.224C68.7834 86.2987 68.8634 86.352 68.9594 86.384C69.0554 86.416 69.1674 86.432 69.2954 86.432C69.5194 86.432 69.6981 86.408 69.8314 86.36C69.9701 86.3067 70.0661 86.2693 70.1194 86.248L70.2634 86.864C70.1887 86.9013 70.0581 86.9467 69.8714 87C69.6847 87.0587 69.4714 87.088 69.2314 87.088C68.9487 87.088 68.7141 87.0533 68.5274 86.984C68.3461 86.9093 68.1994 86.8 68.0874 86.656C67.9754 86.512 67.8954 86.336 67.8474 86.128C67.8047 85.9147 67.7834 85.6693 67.7834 85.392V81.68L68.5274 81.552V82.84ZM71.0502 87V80.92L71.7942 80.792V82.92C71.9328 82.8667 72.0795 82.8267 72.2342 82.8C72.3942 82.768 72.5515 82.752 72.7062 82.752C73.0368 82.752 73.3115 82.8 73.5302 82.896C73.7488 82.9867 73.9222 83.1173 74.0502 83.288C74.1835 83.4533 74.2768 83.6533 74.3302 83.888C74.3835 84.1227 74.4102 84.3813 74.4102 84.664V87H73.6662V84.824C73.6662 84.568 73.6475 84.3493 73.6102 84.168C73.5782 83.9867 73.5222 83.84 73.4422 83.728C73.3622 83.616 73.2555 83.536 73.1222 83.488C72.9888 83.4347 72.8235 83.408 72.6262 83.408C72.5462 83.408 72.4635 83.4133 72.3782 83.424C72.2928 83.4347 72.2102 83.448 72.1302 83.464C72.0555 83.4747 71.9862 83.488 71.9222 83.504C71.8635 83.52 71.8208 83.5333 71.7942 83.544V87H71.0502ZM78.168 82.84H79.744V83.464H78.168V85.384C78.168 85.592 78.184 85.7653 78.216 85.904C78.248 86.0373 78.296 86.144 78.36 86.224C78.424 86.2987 78.504 86.352 78.6 86.384C78.696 86.416 78.808 86.432 78.936 86.432C79.16 86.432 79.3387 86.408 79.472 86.36C79.6107 86.3067 79.7067 86.2693 79.76 86.248L79.904 86.864C79.8294 86.9013 79.6987 86.9467 79.512 87C79.3254 87.0587 79.112 87.088 78.872 87.088C78.5894 87.088 78.3547 87.0533 78.168 86.984C77.9867 86.9093 77.84 86.8 77.728 86.656C77.616 86.512 77.536 86.336 77.488 86.128C77.4454 85.9147 77.424 85.6693 77.424 85.392V81.68L78.168 81.552V82.84ZM80.6908 87V80.92L81.4348 80.792V82.92C81.5734 82.8667 81.7201 82.8267 81.8748 82.8C82.0348 82.768 82.1921 82.752 82.3468 82.752C82.6774 82.752 82.9521 82.8 83.1708 82.896C83.3894 82.9867 83.5628 83.1173 83.6908 83.288C83.8241 83.4533 83.9174 83.6533 83.9708 83.888C84.0241 84.1227 84.0508 84.3813 84.0508 84.664V87H83.3068V84.824C83.3068 84.568 83.2881 84.3493 83.2508 84.168C83.2188 83.9867 83.1628 83.84 83.0828 83.728C83.0028 83.616 82.8961 83.536 82.7628 83.488C82.6294 83.4347 82.4641 83.408 82.2668 83.408C82.1868 83.408 82.1041 83.4133 82.0188 83.424C81.9334 83.4347 81.8508 83.448 81.7708 83.464C81.6961 83.4747 81.6268 83.488 81.5628 83.504C81.5041 83.52 81.4614 83.5333 81.4348 83.544V87H80.6908ZM85.0291 84.928C85.0291 84.56 85.0824 84.24 85.1891 83.968C85.2958 83.6907 85.4371 83.4613 85.6131 83.28C85.7891 83.0987 85.9918 82.9627 86.2211 82.872C86.4504 82.7813 86.6851 82.736 86.9251 82.736C87.4851 82.736 87.9144 82.912 88.2131 83.264C88.5118 83.6107 88.6611 84.1413 88.6611 84.856C88.6611 84.888 88.6611 84.9307 88.6611 84.984C88.6611 85.032 88.6584 85.0773 88.6531 85.12H85.8051C85.8371 85.552 85.9624 85.88 86.1811 86.104C86.3998 86.328 86.7411 86.44 87.2051 86.44C87.4664 86.44 87.6851 86.4187 87.8611 86.376C88.0424 86.328 88.1784 86.2827 88.2691 86.24L88.3731 86.864C88.2824 86.912 88.1224 86.9627 87.8931 87.016C87.6691 87.0693 87.4131 87.096 87.1251 87.096C86.7624 87.096 86.4478 87.0427 86.1811 86.936C85.9198 86.824 85.7038 86.672 85.5331 86.48C85.3624 86.288 85.2344 86.0613 85.1491 85.8C85.0691 85.5333 85.0291 85.2427 85.0291 84.928ZM87.8851 84.52C87.8904 84.184 87.8051 83.9093 87.6291 83.696C87.4584 83.4773 87.2211 83.368 86.9171 83.368C86.7464 83.368 86.5944 83.4027 86.4611 83.472C86.3331 83.536 86.2238 83.6213 86.1331 83.728C86.0424 83.8347 85.9704 83.9573 85.9171 84.096C85.8691 84.2347 85.8371 84.376 85.8211 84.52H87.8851ZM92.3254 83.024C92.4161 82.9653 92.5521 82.904 92.7334 82.84C92.9201 82.776 93.1334 82.744 93.3734 82.744C93.6721 82.744 93.9361 82.7973 94.1654 82.904C94.4001 83.0107 94.5974 83.16 94.7574 83.352C94.9174 83.544 95.0374 83.7733 95.1174 84.04C95.2027 84.3067 95.2454 84.6 95.2454 84.92C95.2454 85.256 95.1947 85.56 95.0934 85.832C94.9974 86.0987 94.8587 86.3253 94.6774 86.512C94.4961 86.6987 94.2774 86.8427 94.0214 86.944C93.7654 87.0453 93.4774 87.096 93.1574 87.096C92.8107 87.096 92.5041 87.072 92.2374 87.024C91.9707 86.976 91.7521 86.928 91.5814 86.88V80.92L92.3254 80.792V83.024ZM92.3254 86.352C92.4001 86.3733 92.5041 86.3947 92.6374 86.416C92.7761 86.432 92.9467 86.44 93.1494 86.44C93.5494 86.44 93.8694 86.3093 94.1094 86.048C94.3494 85.7813 94.4694 85.4053 94.4694 84.92C94.4694 84.7067 94.4481 84.5067 94.4054 84.32C94.3627 84.1333 94.2934 83.9733 94.1974 83.84C94.1014 83.7013 93.9761 83.5947 93.8214 83.52C93.6721 83.44 93.4907 83.4 93.2774 83.4C93.0747 83.4 92.8881 83.4347 92.7174 83.504C92.5467 83.5733 92.4161 83.6453 92.3254 83.72V86.352ZM96.0603 84.928C96.0603 84.56 96.1137 84.24 96.2203 83.968C96.327 83.6907 96.4683 83.4613 96.6443 83.28C96.8203 83.0987 97.023 82.9627 97.2523 82.872C97.4817 82.7813 97.7163 82.736 97.9563 82.736C98.5163 82.736 98.9457 82.912 99.2443 83.264C99.543 83.6107 99.6923 84.1413 99.6923 84.856C99.6923 84.888 99.6923 84.9307 99.6923 84.984C99.6923 85.032 99.6897 85.0773 99.6843 85.12H96.8363C96.8683 85.552 96.9937 85.88 97.2123 86.104C97.431 86.328 97.7723 86.44 98.2363 86.44C98.4977 86.44 98.7163 86.4187 98.8923 86.376C99.0737 86.328 99.2097 86.2827 99.3003 86.24L99.4043 86.864C99.3137 86.912 99.1537 86.9627 98.9243 87.016C98.7003 87.0693 98.4443 87.096 98.1563 87.096C97.7937 87.096 97.479 87.0427 97.2123 86.936C96.951 86.824 96.735 86.672 96.5643 86.48C96.3937 86.288 96.2657 86.0613 96.1803 85.8C96.1003 85.5333 96.0603 85.2427 96.0603 84.928ZM98.9163 84.52C98.9217 84.184 98.8363 83.9093 98.6603 83.696C98.4897 83.4773 98.2523 83.368 97.9483 83.368C97.7777 83.368 97.6257 83.4027 97.4923 83.472C97.3643 83.536 97.255 83.6213 97.1643 83.728C97.0737 83.8347 97.0017 83.9573 96.9483 84.096C96.9003 84.2347 96.8683 84.376 96.8523 84.52H98.9163ZM101.729 86.464C102.033 86.464 102.257 86.424 102.401 86.344C102.55 86.264 102.625 86.136 102.625 85.96C102.625 85.7787 102.553 85.6347 102.409 85.528C102.265 85.4213 102.028 85.3013 101.697 85.168C101.537 85.104 101.382 85.04 101.233 84.976C101.089 84.9067 100.964 84.8267 100.857 84.736C100.75 84.6453 100.665 84.536 100.601 84.408C100.537 84.28 100.505 84.1227 100.505 83.936C100.505 83.568 100.641 83.2773 100.913 83.064C101.185 82.8453 101.556 82.736 102.025 82.736C102.142 82.736 102.26 82.744 102.377 82.76C102.494 82.7707 102.604 82.7867 102.705 82.808C102.806 82.824 102.894 82.8427 102.969 82.864C103.049 82.8853 103.11 82.904 103.153 82.92L103.017 83.56C102.937 83.5173 102.812 83.4747 102.641 83.432C102.47 83.384 102.265 83.36 102.025 83.36C101.817 83.36 101.636 83.4027 101.481 83.488C101.326 83.568 101.249 83.696 101.249 83.872C101.249 83.9627 101.265 84.0427 101.297 84.112C101.334 84.1813 101.388 84.2453 101.457 84.304C101.532 84.3573 101.622 84.408 101.729 84.456C101.836 84.504 101.964 84.5547 102.113 84.608C102.31 84.6827 102.486 84.7573 102.641 84.832C102.796 84.9013 102.926 84.984 103.033 85.08C103.145 85.176 103.23 85.2933 103.289 85.432C103.348 85.5653 103.377 85.7307 103.377 85.928C103.377 86.312 103.233 86.6027 102.945 86.8C102.662 86.9973 102.257 87.096 101.729 87.096C101.361 87.096 101.073 87.064 100.865 87C100.657 86.9413 100.516 86.896 100.441 86.864L100.577 86.224C100.662 86.256 100.798 86.304 100.985 86.368C101.172 86.432 101.42 86.464 101.729 86.464ZM105.027 82.84H106.603V83.464H105.027V85.384C105.027 85.592 105.043 85.7653 105.075 85.904C105.107 86.0373 105.155 86.144 105.219 86.224C105.283 86.2987 105.363 86.352 105.459 86.384C105.555 86.416 105.667 86.432 105.795 86.432C106.019 86.432 106.198 86.408 106.331 86.36C106.47 86.3067 106.566 86.2693 106.619 86.248L106.763 86.864C106.689 86.9013 106.558 86.9467 106.371 87C106.185 87.0587 105.971 87.088 105.731 87.088C105.449 87.088 105.214 87.0533 105.027 86.984C104.846 86.9093 104.699 86.8 104.587 86.656C104.475 86.512 104.395 86.336 104.347 86.128C104.305 85.9147 104.283 85.6693 104.283 85.392V81.68L105.027 81.552V82.84ZM112.29 84.928C112.29 84.4427 112.17 84.0693 111.93 83.808C111.69 83.5467 111.37 83.416 110.97 83.416C110.746 83.416 110.57 83.424 110.442 83.44C110.319 83.456 110.22 83.4747 110.146 83.496V86.12C110.236 86.1947 110.367 86.2667 110.538 86.336C110.708 86.4053 110.895 86.44 111.098 86.44C111.311 86.44 111.492 86.4027 111.642 86.328C111.796 86.248 111.922 86.1413 112.018 86.008C112.114 85.8693 112.183 85.7093 112.226 85.528C112.268 85.3413 112.29 85.1413 112.29 84.928ZM113.066 84.928C113.066 85.2427 113.023 85.5333 112.938 85.8C112.858 86.0667 112.738 86.296 112.578 86.488C112.418 86.68 112.22 86.8293 111.986 86.936C111.756 87.0427 111.492 87.096 111.194 87.096C110.954 87.096 110.74 87.064 110.554 87C110.372 86.936 110.236 86.8747 110.146 86.816V88.48H109.402V82.968C109.578 82.9253 109.796 82.88 110.058 82.832C110.324 82.7787 110.631 82.752 110.978 82.752C111.298 82.752 111.586 82.8027 111.842 82.904C112.098 83.0053 112.316 83.1493 112.498 83.336C112.679 83.5227 112.818 83.752 112.914 84.024C113.015 84.2907 113.066 84.592 113.066 84.928ZM115.649 82.752C115.713 82.752 115.785 82.7573 115.865 82.768C115.95 82.7733 116.033 82.784 116.113 82.8C116.193 82.8107 116.265 82.824 116.329 82.84C116.398 82.8507 116.449 82.8613 116.481 82.872L116.353 83.52C116.294 83.4987 116.195 83.4747 116.057 83.448C115.923 83.416 115.75 83.4 115.537 83.4C115.398 83.4 115.259 83.416 115.121 83.448C114.987 83.4747 114.899 83.4933 114.857 83.504V87H114.113V83.016C114.289 82.952 114.507 82.8933 114.769 82.84C115.03 82.7813 115.323 82.752 115.649 82.752ZM117.943 87H117.199V82.84H117.943V87ZM117.567 82.088C117.433 82.088 117.319 82.0453 117.223 81.96C117.132 81.8693 117.087 81.7493 117.087 81.6C117.087 81.4507 117.132 81.3333 117.223 81.248C117.319 81.1573 117.433 81.112 117.567 81.112C117.7 81.112 117.812 81.1573 117.903 81.248C117.999 81.3333 118.047 81.4507 118.047 81.6C118.047 81.7493 117.999 81.8693 117.903 81.96C117.812 82.0453 117.7 82.088 117.567 82.088ZM121.03 87.096C120.694 87.096 120.398 87.0427 120.142 86.936C119.891 86.8293 119.678 86.68 119.502 86.488C119.331 86.296 119.203 86.0693 119.118 85.808C119.033 85.5413 118.99 85.248 118.99 84.928C118.99 84.608 119.035 84.3147 119.126 84.048C119.222 83.7813 119.355 83.552 119.526 83.36C119.697 83.1627 119.905 83.0107 120.15 82.904C120.401 82.792 120.678 82.736 120.982 82.736C121.169 82.736 121.355 82.752 121.542 82.784C121.729 82.816 121.907 82.8667 122.078 82.936L121.91 83.568C121.798 83.5147 121.667 83.472 121.518 83.44C121.374 83.408 121.219 83.392 121.054 83.392C120.638 83.392 120.318 83.5227 120.094 83.784C119.875 84.0453 119.766 84.4267 119.766 84.928C119.766 85.152 119.79 85.3573 119.838 85.544C119.891 85.7307 119.971 85.8907 120.078 86.024C120.19 86.1573 120.331 86.2613 120.502 86.336C120.673 86.4053 120.881 86.44 121.126 86.44C121.323 86.44 121.502 86.4213 121.662 86.384C121.822 86.3467 121.947 86.3067 122.038 86.264L122.142 86.888C122.099 86.9147 122.038 86.9413 121.958 86.968C121.878 86.9893 121.787 87.008 121.686 87.024C121.585 87.0453 121.475 87.0613 121.358 87.072C121.246 87.088 121.137 87.096 121.03 87.096ZM122.709 84.928C122.709 84.56 122.762 84.24 122.869 83.968C122.975 83.6907 123.117 83.4613 123.293 83.28C123.469 83.0987 123.671 82.9627 123.901 82.872C124.13 82.7813 124.365 82.736 124.605 82.736C125.165 82.736 125.594 82.912 125.893 83.264C126.191 83.6107 126.341 84.1413 126.341 84.856C126.341 84.888 126.341 84.9307 126.341 84.984C126.341 85.032 126.338 85.0773 126.333 85.12H123.485C123.517 85.552 123.642 85.88 123.861 86.104C124.079 86.328 124.421 86.44 124.885 86.44C125.146 86.44 125.365 86.4187 125.541 86.376C125.722 86.328 125.858 86.2827 125.949 86.24L126.053 86.864C125.962 86.912 125.802 86.9627 125.573 87.016C125.349 87.0693 125.093 87.096 124.805 87.096C124.442 87.096 124.127 87.0427 123.861 86.936C123.599 86.824 123.383 86.672 123.213 86.48C123.042 86.288 122.914 86.0613 122.829 85.8C122.749 85.5333 122.709 85.2427 122.709 84.928ZM125.565 84.52C125.57 84.184 125.485 83.9093 125.309 83.696C125.138 83.4773 124.901 83.368 124.597 83.368C124.426 83.368 124.274 83.4027 124.141 83.472C124.013 83.536 123.903 83.6213 123.813 83.728C123.722 83.8347 123.65 83.9573 123.597 84.096C123.549 84.2347 123.517 84.376 123.501 84.52H125.565ZM128.378 86.464C128.682 86.464 128.906 86.424 129.05 86.344C129.199 86.264 129.274 86.136 129.274 85.96C129.274 85.7787 129.202 85.6347 129.058 85.528C128.914 85.4213 128.676 85.3013 128.346 85.168C128.186 85.104 128.031 85.04 127.882 84.976C127.738 84.9067 127.612 84.8267 127.506 84.736C127.399 84.6453 127.314 84.536 127.25 84.408C127.186 84.28 127.154 84.1227 127.154 83.936C127.154 83.568 127.29 83.2773 127.562 83.064C127.834 82.8453 128.204 82.736 128.674 82.736C128.791 82.736 128.908 82.744 129.026 82.76C129.143 82.7707 129.252 82.7867 129.354 82.808C129.455 82.824 129.543 82.8427 129.618 82.864C129.698 82.8853 129.759 82.904 129.802 82.92L129.666 83.56C129.586 83.5173 129.46 83.4747 129.29 83.432C129.119 83.384 128.914 83.36 128.674 83.36C128.466 83.36 128.284 83.4027 128.13 83.488C127.975 83.568 127.898 83.696 127.898 83.872C127.898 83.9627 127.914 84.0427 127.946 84.112C127.983 84.1813 128.036 84.2453 128.106 84.304C128.18 84.3573 128.271 84.408 128.378 84.456C128.484 84.504 128.612 84.5547 128.762 84.608C128.959 84.6827 129.135 84.7573 129.29 84.832C129.444 84.9013 129.575 84.984 129.682 85.08C129.794 85.176 129.879 85.2933 129.938 85.432C129.996 85.5653 130.026 85.7307 130.026 85.928C130.026 86.312 129.882 86.6027 129.594 86.8C129.311 86.9973 128.906 87.096 128.378 87.096C128.01 87.096 127.722 87.064 127.514 87C127.306 86.9413 127.164 86.896 127.09 86.864L127.226 86.224C127.311 86.256 127.447 86.304 127.634 86.368C127.82 86.432 128.068 86.464 128.378 86.464ZM131.86 86.568C131.86 86.712 131.812 86.8373 131.716 86.944C131.62 87.0507 131.489 87.104 131.324 87.104C131.159 87.104 131.028 87.0507 130.932 86.944C130.836 86.8373 130.788 86.712 130.788 86.568C130.788 86.424 130.836 86.2987 130.932 86.192C131.028 86.0853 131.159 86.032 131.324 86.032C131.489 86.032 131.62 86.0853 131.716 86.192C131.812 86.2987 131.86 86.424 131.86 86.568Z" fill="white"/>
</g>
<defs>
<clipPath id="clip0_283_64">
<rect width="150" height="150" fill="white"/>
</clipPath>
</defs>
</svg>
