<svg width="116" height="116" viewBox="0 0 116 116" fill="none" xmlns="http://www.w3.org/2000/svg">
<rect width="116" height="116" rx="10" fill="#222831"/>
<path d="M18.1016 51.7988V57.4043H20.9043C21.2884 57.4043 21.6497 57.3327 21.9883 57.1895C22.3268 57.0397 22.623 56.8379 22.877 56.584C23.1309 56.3301 23.3294 56.0339 23.4727 55.6953C23.6224 55.3503 23.6973 54.9857 23.6973 54.6016C23.6973 54.2174 23.6224 53.8561 23.4727 53.5176C23.3294 53.1725 23.1309 52.873 22.877 52.6191C22.623 52.3652 22.3268 52.1667 21.9883 52.0234C21.6497 51.8737 21.2884 51.7988 20.9043 51.7988H18.1016ZM18.1016 63H15.2988V48.9961H20.9043C21.4186 48.9961 21.9134 49.0645 22.3887 49.2012C22.8639 49.3314 23.3066 49.5202 23.7168 49.7676C24.1335 50.0085 24.5111 50.3014 24.8496 50.6465C25.1947 50.985 25.4876 51.3626 25.7285 51.7793C25.9759 52.196 26.1647 52.6419 26.2949 53.1172C26.4316 53.5924 26.5 54.0872 26.5 54.6016C26.5 55.3698 26.3535 56.0957 26.0605 56.7793C25.7676 57.4564 25.3672 58.0488 24.8594 58.5566C24.3516 59.0645 23.7559 59.4648 23.0723 59.7578C22.3952 60.0508 21.6725 60.1973 20.9043 60.1973H18.1016V63ZM30.5332 63H27.8672V52.541H28.5117L29.3906 53.7812C29.8203 53.3906 30.3086 53.0911 30.8555 52.8828C31.4023 52.668 31.9688 52.5605 32.5547 52.5605H34.9082V55.2168H32.5547C32.2747 55.2168 32.0111 55.2689 31.7637 55.373C31.5163 55.4772 31.3014 55.6204 31.1191 55.8027C30.9368 55.985 30.7936 56.1999 30.6895 56.4473C30.5853 56.6947 30.5332 56.9583 30.5332 57.2383V63ZM39.293 49.6992C39.293 49.9466 39.2441 50.1777 39.1465 50.3926C39.0553 50.6074 38.9284 50.7962 38.7656 50.959C38.6029 51.1152 38.4108 51.2422 38.1895 51.3398C37.9746 51.431 37.7435 51.4766 37.4961 51.4766C37.2487 51.4766 37.0143 51.431 36.793 51.3398C36.5781 51.2422 36.3893 51.1152 36.2266 50.959C36.0703 50.7962 35.9434 50.6074 35.8457 50.3926C35.7546 50.1777 35.709 49.9466 35.709 49.6992C35.709 49.4583 35.7546 49.2305 35.8457 49.0156C35.9434 48.7943 36.0703 48.6055 36.2266 48.4492C36.3893 48.2865 36.5781 48.1595 36.793 48.0684C37.0143 47.9707 37.2487 47.9219 37.4961 47.9219C37.7435 47.9219 37.9746 47.9707 38.1895 48.0684C38.4108 48.1595 38.6029 48.2865 38.7656 48.4492C38.9284 48.6055 39.0553 48.7943 39.1465 49.0156C39.2441 49.2305 39.293 49.4583 39.293 49.6992ZM38.834 63H36.1484V52.541H38.834V63ZM50.0156 54.6211L48.0625 56.584C47.9648 56.3105 47.8314 56.0664 47.6621 55.8516C47.4928 55.6302 47.3008 55.4447 47.0859 55.2949C46.8776 55.1452 46.6497 55.0312 46.4023 54.9531C46.1549 54.875 45.901 54.8359 45.6406 54.8359C45.276 54.8359 44.931 54.9108 44.6055 55.0605C44.2865 55.2103 44.0065 55.4219 43.7656 55.6953C43.5312 55.9622 43.3457 56.2812 43.209 56.6523C43.0723 57.0234 43.0039 57.4336 43.0039 57.8828C43.0039 58.2474 43.0723 58.5892 43.209 58.9082C43.3457 59.2272 43.5312 59.5072 43.7656 59.748C44.0065 59.9889 44.2865 60.1777 44.6055 60.3145C44.931 60.4512 45.276 60.5195 45.6406 60.5195C45.901 60.5195 46.1517 60.4837 46.3926 60.4121C46.6335 60.3405 46.8581 60.2396 47.0664 60.1094C47.2812 59.9727 47.4701 59.8099 47.6328 59.6211C47.8021 59.4258 47.9388 59.2109 48.043 58.9766L49.9961 60.9395C49.7487 61.291 49.4622 61.6068 49.1367 61.8867C48.8177 62.1667 48.4694 62.4043 48.0918 62.5996C47.7207 62.7949 47.3268 62.9414 46.9102 63.0391C46.5 63.1432 46.0768 63.1953 45.6406 63.1953C44.9049 63.1953 44.2116 63.0586 43.5605 62.7852C42.916 62.5052 42.3496 62.1243 41.8613 61.6426C41.3796 61.1608 40.9987 60.5977 40.7188 59.9531C40.4388 59.3086 40.2988 58.6185 40.2988 57.8828C40.2988 57.082 40.4388 56.3333 40.7188 55.6367C40.9987 54.9401 41.3796 54.3346 41.8613 53.8203C42.3496 53.2995 42.916 52.8893 43.5605 52.5898C44.2116 52.2904 44.9049 52.1406 45.6406 52.1406C46.0768 52.1406 46.5033 52.196 46.9199 52.3066C47.3431 52.4173 47.7435 52.5801 48.1211 52.7949C48.5052 53.0033 48.8568 53.2604 49.1758 53.5664C49.5013 53.8724 49.7812 54.224 50.0156 54.6211ZM55.3281 60.4414C55.4323 60.474 55.5365 60.4967 55.6406 60.5098C55.7448 60.5163 55.849 60.5195 55.9531 60.5195C56.2135 60.5195 56.4642 60.4837 56.7051 60.4121C56.946 60.3405 57.1706 60.2396 57.3789 60.1094C57.5938 59.9727 57.7826 59.8099 57.9453 59.6211C58.1146 59.4258 58.2513 59.2109 58.3555 58.9766L60.3086 60.9395C60.0612 61.291 59.7747 61.6068 59.4492 61.8867C59.1302 62.1667 58.7819 62.4043 58.4043 62.5996C58.0332 62.7949 57.6393 62.9414 57.2227 63.0391C56.8125 63.1432 56.3893 63.1953 55.9531 63.1953C55.2174 63.1953 54.5241 63.0586 53.873 62.7852C53.2285 62.5117 52.6621 62.1309 52.1738 61.6426C51.6921 61.1543 51.3112 60.5749 51.0312 59.9043C50.7513 59.2272 50.6113 58.485 50.6113 57.6777C50.6113 56.8509 50.7513 56.0957 51.0312 55.4121C51.3112 54.7285 51.6921 54.1458 52.1738 53.6641C52.6621 53.1823 53.2285 52.8079 53.873 52.541C54.5241 52.2741 55.2174 52.1406 55.9531 52.1406C56.3893 52.1406 56.8158 52.1927 57.2324 52.2969C57.6491 52.401 58.043 52.5508 58.4141 52.7461C58.7917 52.9414 59.1432 53.1823 59.4688 53.4688C59.7943 53.7487 60.0807 54.0645 60.3281 54.416L55.3281 60.4414ZM56.6953 54.9434C56.5716 54.8978 56.4479 54.8685 56.3242 54.8555C56.207 54.8424 56.0833 54.8359 55.9531 54.8359C55.5885 54.8359 55.2435 54.9043 54.918 55.041C54.599 55.1712 54.319 55.36 54.0781 55.6074C53.8438 55.8548 53.6582 56.1543 53.5215 56.5059C53.3848 56.8509 53.3164 57.2415 53.3164 57.6777C53.3164 57.7754 53.3197 57.8861 53.3262 58.0098C53.3392 58.1335 53.3555 58.2604 53.375 58.3906C53.401 58.5143 53.4303 58.6348 53.4629 58.752C53.4954 58.8691 53.5378 58.9733 53.5898 59.0645L56.6953 54.9434ZM74.8789 59.2207C74.8789 59.7676 74.7747 60.2852 74.5664 60.7734C74.3581 61.2552 74.0716 61.6751 73.707 62.0332C73.349 62.3913 72.9258 62.6745 72.4375 62.8828C71.9557 63.0911 71.4382 63.1953 70.8848 63.1953C70.39 63.1953 69.9147 63.1107 69.459 62.9414C69.0033 62.7656 68.5898 62.5117 68.2188 62.1797C67.8542 62.5117 67.444 62.7656 66.9883 62.9414C66.5391 63.1107 66.0638 63.1953 65.5625 63.1953C65.0091 63.1953 64.4915 63.0911 64.0098 62.8828C63.528 62.6745 63.1048 62.3913 62.7402 62.0332C62.3822 61.6751 62.099 61.2552 61.8906 60.7734C61.6823 60.2852 61.5781 59.7676 61.5781 59.2207V52.5605H64.2441V59.2207C64.2441 59.403 64.2767 59.5755 64.3418 59.7383C64.4134 59.8945 64.5078 60.0345 64.625 60.1582C64.7487 60.2754 64.8887 60.3698 65.0449 60.4414C65.2077 60.5065 65.3802 60.5391 65.5625 60.5391C65.7448 60.5391 65.9173 60.5065 66.0801 60.4414C66.2428 60.3698 66.3861 60.2754 66.5098 60.1582C66.6335 60.0345 66.7279 59.8945 66.793 59.7383C66.8646 59.5755 66.9004 59.403 66.9004 59.2207V52.5605H69.5566V59.2207C69.5566 59.403 69.5924 59.5755 69.6641 59.7383C69.7357 59.8945 69.8301 60.0345 69.9473 60.1582C70.071 60.2754 70.2109 60.3698 70.3672 60.4414C70.5299 60.5065 70.7025 60.5391 70.8848 60.5391C71.0671 60.5391 71.2396 60.5065 71.4023 60.4414C71.5651 60.3698 71.7051 60.2754 71.8223 60.1582C71.946 60.0345 72.0436 59.8945 72.1152 59.7383C72.1868 59.5755 72.2227 59.403 72.2227 59.2207V52.5605H74.8789V59.2207ZM79.957 49.6992C79.957 49.9466 79.9082 50.1777 79.8105 50.3926C79.7194 50.6074 79.5924 50.7962 79.4297 50.959C79.2669 51.1152 79.0749 51.2422 78.8535 51.3398C78.6387 51.431 78.4076 51.4766 78.1602 51.4766C77.9128 51.4766 77.6784 51.431 77.457 51.3398C77.2422 51.2422 77.0534 51.1152 76.8906 50.959C76.7344 50.7962 76.6074 50.6074 76.5098 50.3926C76.4186 50.1777 76.373 49.9466 76.373 49.6992C76.373 49.4583 76.4186 49.2305 76.5098 49.0156C76.6074 48.7943 76.7344 48.6055 76.8906 48.4492C77.0534 48.2865 77.2422 48.1595 77.457 48.0684C77.6784 47.9707 77.9128 47.9219 78.1602 47.9219C78.4076 47.9219 78.6387 47.9707 78.8535 48.0684C79.0749 48.1595 79.2669 48.2865 79.4297 48.4492C79.5924 48.6055 79.7194 48.7943 79.8105 49.0156C79.9082 49.2305 79.957 49.4583 79.957 49.6992ZM79.498 63H76.8125V52.541H79.498V63ZM87.2812 63H81.1875V60.3438H87.2812C87.4635 60.3438 87.6198 60.2786 87.75 60.1484C87.8802 60.0182 87.9453 59.862 87.9453 59.6797C87.9453 59.4909 87.8802 59.3672 87.75 59.3086C87.6198 59.25 87.4635 59.2207 87.2812 59.2207H84.5078C84.0456 59.2207 83.6126 59.1328 83.209 58.957C82.8053 58.7812 82.4538 58.5436 82.1543 58.2441C81.8548 57.9382 81.6172 57.5833 81.4414 57.1797C81.2721 56.776 81.1875 56.3431 81.1875 55.8809C81.1875 55.4186 81.2721 54.9857 81.4414 54.582C81.6172 54.1784 81.8548 53.8268 82.1543 53.5273C82.4538 53.2279 82.8053 52.9935 83.209 52.8242C83.6126 52.6484 84.0456 52.5605 84.5078 52.5605H89.9082V55.2168H84.5078C84.3255 55.2168 84.1693 55.2819 84.0391 55.4121C83.9089 55.5423 83.8438 55.6986 83.8438 55.8809C83.8438 56.0697 83.9089 56.2324 84.0391 56.3691C84.1693 56.4993 84.3255 56.5645 84.5078 56.5645H87.2812C87.737 56.5645 88.1667 56.6426 88.5703 56.7988C88.974 56.9486 89.3255 57.1602 89.625 57.4336C89.9245 57.707 90.1621 58.0358 90.3379 58.4199C90.5137 58.804 90.6016 59.224 90.6016 59.6797C90.6016 60.1419 90.5137 60.5749 90.3379 60.9785C90.1621 61.3757 89.9245 61.7272 89.625 62.0332C89.3255 62.3327 88.974 62.5703 88.5703 62.7461C88.1667 62.9154 87.737 63 87.2812 63ZM96.1875 60.4414C96.2917 60.474 96.3958 60.4967 96.5 60.5098C96.6042 60.5163 96.7083 60.5195 96.8125 60.5195C97.0729 60.5195 97.3236 60.4837 97.5645 60.4121C97.8053 60.3405 98.0299 60.2396 98.2383 60.1094C98.4531 59.9727 98.6419 59.8099 98.8047 59.6211C98.974 59.4258 99.1107 59.2109 99.2148 58.9766L101.168 60.9395C100.921 61.291 100.634 61.6068 100.309 61.8867C99.9896 62.1667 99.6413 62.4043 99.2637 62.5996C98.8926 62.7949 98.4987 62.9414 98.082 63.0391C97.6719 63.1432 97.2487 63.1953 96.8125 63.1953C96.0768 63.1953 95.3835 63.0586 94.7324 62.7852C94.0879 62.5117 93.5215 62.1309 93.0332 61.6426C92.5514 61.1543 92.1706 60.5749 91.8906 59.9043C91.6107 59.2272 91.4707 58.485 91.4707 57.6777C91.4707 56.8509 91.6107 56.0957 91.8906 55.4121C92.1706 54.7285 92.5514 54.1458 93.0332 53.6641C93.5215 53.1823 94.0879 52.8079 94.7324 52.541C95.3835 52.2741 96.0768 52.1406 96.8125 52.1406C97.2487 52.1406 97.6751 52.1927 98.0918 52.2969C98.5085 52.401 98.9023 52.5508 99.2734 52.7461C99.651 52.9414 100.003 53.1823 100.328 53.4688C100.654 53.7487 100.94 54.0645 101.188 54.416L96.1875 60.4414ZM97.5547 54.9434C97.431 54.8978 97.3073 54.8685 97.1836 54.8555C97.0664 54.8424 96.9427 54.8359 96.8125 54.8359C96.4479 54.8359 96.1029 54.9043 95.7773 55.041C95.4583 55.1712 95.1784 55.36 94.9375 55.6074C94.7031 55.8548 94.5176 56.1543 94.3809 56.5059C94.2441 56.8509 94.1758 57.2415 94.1758 57.6777C94.1758 57.7754 94.179 57.8861 94.1855 58.0098C94.1986 58.1335 94.2148 58.2604 94.2344 58.3906C94.2604 58.5143 94.2897 58.6348 94.3223 58.752C94.3548 58.8691 94.3971 58.9733 94.4492 59.0645L97.5547 54.9434Z" fill="white"/>
</svg>
