<svg width="378" height="82" viewBox="0 0 378 82" fill="none" xmlns="http://www.w3.org/2000/svg">
<path d="M17.0632 61.964C17.0632 63.356 16.5592 64.556 15.5512 65.564C14.5912 66.524 13.4152 67.004 12.0232 67.004C10.6312 67.004 9.43119 66.524 8.42319 65.564C7.46319 64.556 6.98319 63.356 6.98319 61.964C6.98319 60.572 6.93519 53.588 6.83919 41.012C6.74319 28.436 6.76719 21.452 6.91119 20.06C6.95919 18.668 7.48719 17.516 8.49519 16.604C9.50319 15.644 10.7032 15.164 12.0952 15.164C12.3352 15.164 12.5752 15.188 12.8152 15.236C12.9112 15.236 13.0312 15.212 13.1752 15.164C19.0312 14.204 23.6152 13.82 26.9272 14.012C33.4552 14.444 38.3992 16.724 41.7592 20.852C44.3512 24.02 45.6712 27.404 45.7192 31.004C45.7672 34.604 44.6392 37.628 42.3352 40.076C40.4632 42.14 38.1112 43.748 35.2792 44.9C32.4472 46.052 29.5672 46.7 26.6392 46.844C25.6792 46.892 24.6472 46.892 23.5432 46.844C22.4392 46.796 21.0952 46.7 19.5112 46.556C17.9752 46.412 17.1112 46.316 16.9192 46.268C17.0152 53.516 17.0632 58.748 17.0632 61.964ZM26.2072 36.764C27.9832 36.716 29.6632 36.38 31.2472 35.756C32.8312 35.084 34.0072 34.292 34.7752 33.38C35.1592 32.948 35.4232 32.564 35.5672 32.228C35.7112 31.844 35.6632 31.148 35.4232 30.14C35.2312 29.132 34.7512 28.148 33.9832 27.188C32.4472 25.316 29.8792 24.284 26.2792 24.092C23.8792 23.948 20.7592 24.164 16.9192 24.74C16.8712 27.956 16.8472 31.772 16.8472 36.188H16.9192L20.3032 36.548C21.5512 36.644 22.6312 36.716 23.5432 36.764C24.4552 36.812 25.3432 36.812 26.2072 36.764ZM52.0535 64.988C51.0455 64.028 50.5415 62.876 50.5415 61.532C50.4935 56.78 50.4695 53.036 50.4695 50.3C50.3735 49.724 50.3735 49.172 50.4695 48.644C50.4215 43.316 50.3975 38.492 50.3975 34.172C50.3975 32.3 50.8775 30.884 51.8375 29.924C52.8455 28.916 54.0455 28.412 55.4375 28.412C56.4455 28.412 57.3575 28.7 58.1735 29.276C59.0375 29.804 59.6615 30.764 60.0455 32.156C61.9655 31.1 64.8455 29.9 68.6855 28.556C69.9335 28.124 71.1335 28.196 72.2855 28.772C73.4855 29.3 74.3015 30.188 74.7335 31.436C75.1655 32.684 75.0935 33.908 74.5175 35.108C73.9895 36.26 73.1015 37.052 71.8535 37.484C67.4375 39.02 63.6695 40.532 60.5495 42.02C60.3575 43.556 60.3335 45.74 60.4775 48.572C60.5255 51.596 60.5735 55.868 60.6215 61.388C60.6215 62.78 60.1175 63.98 59.1095 64.988C58.1495 65.996 56.9735 66.5 55.5815 66.5C54.2375 66.5 53.0615 65.996 52.0535 64.988ZM78.7953 61.604C78.6513 51.428 78.7233 41.9 79.0113 33.02C79.0593 31.628 79.5873 30.476 80.5953 29.564C81.6513 28.604 82.8753 28.148 84.2673 28.196C85.6593 28.244 86.8113 28.796 87.7233 29.852C88.6833 30.86 89.1393 32.06 89.0913 33.452C88.8033 42.428 88.7313 51.764 88.8753 61.46C88.8753 62.852 88.3953 64.052 87.4353 65.06C86.4753 66.02 85.2993 66.5 83.9073 66.5C82.5153 66.548 81.3153 66.092 80.3073 65.132C79.3473 64.172 78.8433 62.996 78.7953 61.604ZM87.3633 15.884C88.3713 16.844 88.8753 18.068 88.8753 19.556C88.8753 20.996 88.3713 22.22 87.3633 23.228C86.3553 24.236 85.1313 24.74 83.6913 24.74C82.2513 24.74 81.0273 24.236 80.0193 23.228C79.0113 22.22 78.5073 20.996 78.5073 19.556C78.5073 18.068 79.0113 16.82 80.0193 15.812C81.0273 14.804 82.2513 14.3 83.6913 14.3C85.1313 14.3 86.3553 14.828 87.3633 15.884ZM119.772 66.212C117.564 66.98 115.404 67.268 113.292 67.076C111.18 66.884 109.14 66.404 107.172 65.636C104.1 64.388 101.484 62.348 99.3238 59.516C97.1638 56.684 95.9398 53.564 95.6518 50.156C95.4598 47.324 95.9158 44.444 97.0198 41.516C98.1718 38.54 99.7798 35.996 101.844 33.884C103.332 32.348 104.988 31.124 106.812 30.212C108.684 29.252 110.796 28.652 113.148 28.412C115.5 28.172 117.876 28.58 120.276 29.636C121.572 30.164 122.94 31.028 124.38 32.228C124.476 32.324 124.788 32.612 125.316 33.092L126.612 34.172C127.716 35.036 128.34 36.14 128.484 37.484C128.676 38.78 128.34 39.98 127.476 41.084C126.612 42.14 125.484 42.764 124.092 42.956C122.748 43.1 121.524 42.74 120.42 41.876C120.324 41.828 119.412 41.06 117.684 39.572C117.108 39.092 116.676 38.78 116.388 38.636C113.796 37.58 111.396 38.228 109.188 40.58C108.036 41.78 107.124 43.196 106.452 44.828C105.828 46.46 105.588 47.996 105.732 49.436C105.828 50.78 106.356 52.172 107.316 53.612C108.276 55.004 109.548 56.012 111.132 56.636C112.812 57.26 114.228 57.5 115.38 57.356C116.58 57.164 117.54 56.708 118.26 55.988C118.5 55.748 118.788 55.244 119.124 54.476C120.132 52.268 120.66 51.116 120.708 51.02C121.332 49.82 122.292 49.028 123.588 48.644C124.932 48.212 126.228 48.308 127.476 48.932C128.724 49.508 129.54 50.444 129.924 51.74C130.356 53.036 130.26 54.284 129.636 55.484C129.492 55.772 129.348 56.084 129.204 56.42C129.06 56.708 128.916 57.044 128.772 57.428C128.628 57.812 128.484 58.124 128.34 58.364C127.572 60.188 126.66 61.628 125.604 62.684C123.972 64.364 122.028 65.54 119.772 66.212ZM154.035 67.148C150.195 67.148 146.835 66.332 143.955 64.7C141.075 63.068 138.867 60.884 137.331 58.148C135.843 55.412 135.099 52.388 135.099 49.076C135.099 44.9 135.867 41.3 137.403 38.276C138.939 35.204 141.147 32.78 144.027 31.004C146.907 29.228 150.171 28.34 153.819 28.34C157.563 28.34 160.755 29.108 163.395 30.644C166.083 32.18 168.099 34.268 169.443 36.908C170.787 39.5 171.459 42.404 171.459 45.62C171.459 47.252 170.931 48.524 169.875 49.436C168.819 50.348 167.403 50.876 165.627 51.02C162.027 51.356 158.835 51.524 156.051 51.524C153.411 51.524 150.579 51.452 147.555 51.308L145.035 51.236C145.323 53.588 146.235 55.436 147.771 56.78C149.355 58.076 151.731 58.676 154.899 58.58C156.339 58.532 157.491 58.364 158.355 58.076C159.219 57.74 159.987 57.26 160.659 56.636C161.043 56.252 161.451 55.844 161.883 55.412C162.315 54.98 162.795 54.644 163.323 54.404C163.851 54.164 164.499 54.044 165.267 54.044C166.515 54.044 167.547 54.476 168.363 55.34C169.227 56.156 169.659 57.116 169.659 58.22C169.659 59.756 168.891 61.22 167.355 62.612C165.819 64.004 163.827 65.108 161.379 65.924C158.979 66.74 156.531 67.148 154.035 67.148ZM145.179 43.892C148.011 44.276 151.155 44.42 154.611 44.324C157.923 44.276 160.347 44.06 161.883 43.676C161.787 41.612 161.163 39.956 160.011 38.708C158.907 37.46 156.891 36.86 153.963 36.908C151.515 36.956 149.523 37.508 147.987 38.564C146.451 39.62 145.515 41.396 145.179 43.892Z" fill="#404553"/>
<path d="M243.76 46.1939C244.675 46.1939 242.853 42.4318 243.25 42.823C243.688 43.2143 242.784 43.114 242.784 43.74C242.784 44.7573 249.015 45.25 248.378 46.0325C247.782 46.815 253.546 46.859 252.233 46.8982C249.091 46.9373 246.266 46.7025 243.76 46.1939C240.975 52.0236 237.614 56.8751 233.676 60.7486C229.777 64.5828 225.918 66.5 222.099 66.5C218.599 66.5 215.973 64.6807 214.223 61.042C212.472 57.3642 211.478 52.454 211.239 46.3113C208.852 53.1191 206.147 58.1858 203.124 61.5115C200.14 64.8372 196.958 66.5 193.576 66.5C189.757 66.5 186.873 64.172 184.924 59.5161C182.975 54.8211 182 48.5219 182 40.6185C182 34.8671 182.517 28.5483 183.551 21.6623C183.83 19.706 184.327 18.3562 185.043 17.6128C185.799 16.8303 186.973 16.439 188.564 16.439C189.757 16.439 190.672 16.6933 191.309 17.202C191.985 17.7106 192.323 18.6496 192.323 20.019C192.323 20.2929 192.283 20.8211 192.204 21.6036C191.01 29.6243 190.414 36.4517 190.414 42.0857C190.414 47.3285 190.871 51.378 191.786 54.2342C192.701 57.0903 193.934 58.5184 195.486 58.5184C196.878 58.5184 198.549 57.0903 200.498 54.2342C202.487 51.3389 204.456 47.0742 206.406 41.4402C208.355 35.767 210.006 29.0178 211.358 21.1928C211.677 19.393 212.254 18.1605 213.089 17.4954C213.964 16.7911 215.138 16.439 216.61 16.439C217.843 16.439 218.738 16.7129 219.295 17.2606C219.891 17.7693 220.19 18.5518 220.19 19.6082C220.19 20.2342 220.15 20.7232 220.07 21.0754C218.957 27.4528 218.4 33.8303 218.4 40.2077C218.4 44.5506 218.539 48.0132 218.817 50.5955C219.136 53.1778 219.712 55.1536 220.548 56.523C221.423 57.8533 222.676 58.5184 224.307 58.5184C226.217 58.5184 228.345 57.1099 230.692 54.2929C233.039 51.4367 235.187 47.8959 237.137 43.6703C234.71 42.1835 232.88 40.2664 231.647 37.9189C230.414 35.5322 229.797 32.7934 229.797 29.7025C229.797 26.6116 230.274 24.0098 231.229 21.897C232.224 19.7451 233.556 18.141 235.227 17.0846C236.938 16.0282 238.827 15.5 240.896 15.5C243.442 15.5 245.451 16.3999 246.923 18.1997C248.434 19.9994 249.19 22.4643 249.19 25.5944C249.19 30.0155 247.531 36.0482 245.581 41.4475C247.61 41.7996 241.015 46.1939 243.76 46.1939ZM235.824 29.2917C235.824 33.126 237.077 35.9626 239.583 37.8015C241.135 33.4194 241.91 29.8003 241.91 26.9442C241.91 25.3009 241.692 24.1076 241.254 23.3642C240.816 22.5817 240.22 22.1904 239.464 22.1904C238.39 22.1904 237.514 22.8165 236.838 24.0685C236.162 25.2814 235.824 27.0224 235.824 29.2917Z" fill="#38AE04"/>
<path d="M239.606 42.5997C240.307 40.5201 242.804 39.6912 244.609 40.9393L268.01 57.1218C269.436 58.1076 269.625 60.1419 268.406 61.3738V61.3738C267.482 62.3076 266.031 62.4691 264.924 61.7612L240.955 46.4321C239.679 45.6159 239.123 44.0354 239.606 42.5997V42.5997Z" fill="#38AE04"/>
<path d="M285.803 61.604C285.659 51.428 285.731 41.9 286.019 33.02C286.067 31.628 286.595 30.476 287.603 29.564C288.659 28.604 289.883 28.148 291.275 28.196C292.667 28.244 293.819 28.796 294.731 29.852C295.691 30.86 296.147 32.06 296.099 33.452C295.811 42.428 295.739 51.764 295.883 61.46C295.883 62.852 295.403 64.052 294.443 65.06C293.483 66.02 292.307 66.5 290.915 66.5C289.523 66.548 288.323 66.092 287.315 65.132C286.355 64.172 285.851 62.996 285.803 61.604ZM294.371 15.884C295.379 16.844 295.883 18.068 295.883 19.556C295.883 20.996 295.379 22.22 294.371 23.228C293.363 24.236 292.139 24.74 290.699 24.74C289.259 24.74 288.035 24.236 287.027 23.228C286.019 22.22 285.515 20.996 285.515 19.556C285.515 18.068 286.019 16.82 287.027 15.812C288.035 14.804 289.259 14.3 290.699 14.3C292.139 14.3 293.363 14.828 294.371 15.884ZM317.491 67.004C315.379 67.004 313.315 66.74 311.299 66.212C309.331 65.684 307.675 64.94 306.331 63.98C305.323 63.164 304.411 62.084 303.595 60.74L303.091 59.876L302.443 58.724C302.011 57.908 301.795 57.164 301.795 56.492C301.795 55.244 302.299 54.164 303.307 53.252C304.363 52.292 305.539 51.812 306.835 51.812C308.467 51.812 309.763 52.532 310.723 53.972L311.587 55.412L312.019 56.276C312.307 56.852 312.859 57.308 313.675 57.644C314.923 58.028 316.003 58.22 316.915 58.22C317.587 58.22 318.427 58.148 319.435 58.004C321.979 57.476 323.299 56.684 323.395 55.628V55.34C323.395 54.764 323.131 54.212 322.603 53.684C321.979 53.108 320.539 52.364 318.283 51.452L315.115 50.228C313.339 49.604 312.067 49.1 311.299 48.716C307.795 47.18 305.515 45.308 304.459 43.1C303.739 41.66 303.379 40.244 303.379 38.852C303.379 37.7 303.619 36.62 304.099 35.612C305.059 33.26 307.291 31.364 310.795 29.924C313.099 29.012 315.475 28.556 317.923 28.556C318.403 28.556 319.123 28.604 320.083 28.7C324.307 29.132 328.003 30.788 331.171 33.668C332.179 34.532 332.683 35.636 332.683 36.98C332.683 38.228 332.227 39.356 331.315 40.364C330.451 41.372 329.371 41.876 328.075 41.876C327.067 41.876 326.059 41.54 325.051 40.868L323.323 39.572C322.507 38.996 321.907 38.636 321.523 38.492C320.083 38.012 318.715 37.772 317.419 37.772C316.219 37.772 315.187 37.892 314.323 38.132C313.699 38.372 313.387 38.708 313.387 39.14C313.387 39.428 313.531 39.668 313.819 39.86C314.155 40.052 314.683 40.316 315.403 40.652C316.267 41.036 317.515 41.492 319.147 42.02C320.251 42.356 321.379 42.788 322.531 43.316C323.299 43.652 324.139 44.036 325.051 44.468C326.011 44.852 326.995 45.404 328.003 46.124C329.587 47.18 330.835 48.5 331.747 50.084C332.659 51.62 333.115 53.348 333.115 55.268C333.115 55.892 333.091 56.372 333.043 56.708C332.611 59.684 331.243 61.988 328.939 63.62C326.683 65.252 323.971 66.308 320.803 66.788C319.747 66.932 318.643 67.004 317.491 67.004ZM357.105 67.148C353.265 67.148 349.905 66.332 347.025 64.7C344.145 63.068 341.937 60.884 340.401 58.148C338.913 55.412 338.169 52.388 338.169 49.076C338.169 44.9 338.937 41.3 340.473 38.276C342.009 35.204 344.217 32.78 347.097 31.004C349.977 29.228 353.241 28.34 356.889 28.34C360.633 28.34 363.825 29.108 366.465 30.644C369.153 32.18 371.169 34.268 372.513 36.908C373.857 39.5 374.529 42.404 374.529 45.62C374.529 47.252 374.001 48.524 372.945 49.436C371.889 50.348 370.473 50.876 368.697 51.02C365.097 51.356 361.905 51.524 359.121 51.524C356.481 51.524 353.649 51.452 350.625 51.308L348.105 51.236C348.393 53.588 349.305 55.436 350.841 56.78C352.425 58.076 354.801 58.676 357.969 58.58C359.409 58.532 360.561 58.364 361.425 58.076C362.289 57.74 363.057 57.26 363.729 56.636C364.113 56.252 364.521 55.844 364.953 55.412C365.385 54.98 365.865 54.644 366.393 54.404C366.921 54.164 367.569 54.044 368.337 54.044C369.585 54.044 370.617 54.476 371.433 55.34C372.297 56.156 372.729 57.116 372.729 58.22C372.729 59.756 371.961 61.22 370.425 62.612C368.889 64.004 366.897 65.108 364.449 65.924C362.049 66.74 359.601 67.148 357.105 67.148ZM348.249 43.892C351.081 44.276 354.225 44.42 357.681 44.324C360.993 44.276 363.417 44.06 364.953 43.676C364.857 41.612 364.233 39.956 363.081 38.708C361.977 37.46 359.961 36.86 357.033 36.908C354.585 36.956 352.593 37.508 351.057 38.564C349.521 39.62 348.585 41.396 348.249 43.892Z" fill="#404553"/>
</svg>
