<svg width="146" height="30" viewBox="0 0 146 30" fill="none" xmlns="http://www.w3.org/2000/svg">
<g clip-path="url(#clip0_704_54)">
<path d="M11.4204 0C10.2758 0 9.2583 1.05782 9.2583 2.31397C9.2583 3.50791 10.2758 4.59684 11.4204 4.59684C12.5988 4.59684 13.6162 3.50791 13.6162 2.31397C13.6162 1.05782 12.5988 0 11.4204 0Z" fill="#4ACBC5"/>
<path d="M25.2313 25.4031C24.0829 25.4031 23.0654 26.461 23.0654 27.721C23.0654 28.911 24.0829 30 25.2313 30C26.4059 30 27.4233 28.911 27.4233 27.721C27.4233 26.461 26.4059 25.4031 25.2313 25.4031ZM19.5043 25.4031C18.3596 25.4031 17.3384 26.461 17.3384 27.721C17.3384 28.911 18.3596 30 19.5043 30C20.6788 30 21.7 28.911 21.7 27.721C21.7 26.461 20.6788 25.4031 19.5043 25.4031Z" fill="#83AFAE"/>
<path d="M26.7237 6.84857V16.2756C26.7237 20.0441 24.3707 22.4591 20.2971 22.4591H13.7135C13.0775 27.091 9.35552 28.8449 6.17218 28.8449C4.90033 28.8449 2.9589 28.3821 1.84417 27.7521L0 23.4197C2.16213 24.9754 4.64596 25.1076 5.34548 25.1076C7.79564 25.1076 9.70341 23.2875 9.70341 20.2774V9.22866L13.807 7.84027V18.5896H20.1699C21.7298 18.5896 22.6201 17.7612 22.6201 16.0772V8.23696L26.7237 6.84857Z" fill="#83AFAE"/>
<path d="M34.583 22.4592H30.4458V2.15065L34.583 0.762268V22.4592Z" fill="#83AFAE"/>
<path d="M45.24 22.6925C40.882 22.6925 38.3047 18.9862 38.3047 14.755C38.3047 10.4226 40.8184 6.75134 45.24 6.75134C50.3947 6.75134 52.1453 10.5548 52.1453 15.4822C52.1453 16.4428 52.1453 20.1452 52.1453 21.0396C52.1453 26.7604 48.4532 28.8449 44.9557 28.8449C43.6838 28.8449 41.518 28.3821 40.407 27.7521L38.5628 23.4197C40.7249 24.9753 43.4295 25.1076 44.129 25.1076C46.0068 25.1076 47.5966 24.2792 48.0754 22.0975C46.7699 22.7236 45.9395 22.6925 45.24 22.6925ZM45.24 10.5198C43.6502 10.5198 42.4082 12.2388 42.4082 14.755C42.4082 17.2712 43.6502 18.889 45.24 18.889C46.8298 18.889 48.0717 17.2673 48.0717 14.755C48.0717 12.2427 46.8335 10.5198 45.24 10.5198Z" fill="#83AFAE"/>
<path d="M109.539 25.4031C108.394 25.4031 107.377 26.461 107.377 27.721C107.377 28.911 108.394 30 109.539 30C110.717 30 111.735 28.911 111.735 27.721C111.735 26.461 110.717 25.4031 109.539 25.4031ZM103.812 25.4031C102.667 25.4031 101.65 26.461 101.65 27.721C101.65 28.911 102.667 30 103.812 30C104.99 30 106.008 28.911 106.008 27.721C106.008 26.461 104.99 25.4031 103.812 25.4031Z" fill="#404553"/>
<path d="M111.036 6.84857V16.2756C111.036 20.0441 108.683 22.4591 104.609 22.4591H80.014C79.1873 26.3637 75.5626 28.9111 70.4715 28.8449C62.4215 28.7788 59.7506 24.3103 60.0985 15.945L64.1721 14.685C64.1721 14.685 64.1384 16.9367 64.1721 18.6907C64.2656 23.1203 66.7495 24.8431 70.5014 24.8431C73.5239 24.8431 76.0077 23.0892 76.0077 19.9118V10.617L80.1749 9.29477V18.5896H84.8208V9.36089L88.9244 7.9725V18.5896C92.8709 18.5896 93.6639 18.5896 93.6639 18.5896V8.23696L97.8011 6.84857L97.7674 18.5896H104.482C106.042 18.5896 106.932 17.7612 106.932 16.0772V8.23696L111.036 6.84857Z" fill="#404553"/>
<path d="M118.895 22.4592H114.758V2.15065L118.895 0.762268V22.4592Z" fill="#404553"/>
<path d="M141.608 25.4031C140.464 25.4031 139.446 26.461 139.446 27.721C139.446 28.911 140.464 30 141.608 30C142.787 30 143.804 28.911 143.804 27.721C143.804 26.461 142.787 25.4031 141.608 25.4031Z" fill="#404553"/>
<path d="M146 6.84857V16.2756C146 20.0441 143.647 22.4591 139.573 22.4591H132.99C132.35 27.091 128.628 28.8449 125.449 28.8449C124.177 28.8449 122.235 28.3821 121.121 27.7521L119.276 23.4197C121.438 24.9754 123.922 25.1076 124.622 25.1076C127.072 25.1076 128.98 23.2875 128.98 20.2774V9.22866L133.083 7.84027V18.5896H139.446C141.006 18.5896 141.896 17.7612 141.896 16.0772V8.23696L146 6.84857Z" fill="#404553"/>
</g>
<defs>
<clipPath id="clip0_704_54">
<rect width="146" height="30" fill="white"/>
</clipPath>
</defs>
</svg>
