<svg width="211" height="211" viewBox="0 0 211 211" fill="none" xmlns="http://www.w3.org/2000/svg">
<rect width="211" height="211" rx="10" fill="#83AFAE" fill-opacity="0.17"/>
<path d="M25.792 124L26.284 116.5H28.252L29.752 121.708H29.836L31.336 116.5H33.304L33.796 124H32.332L31.996 118.612H31.912L30.376 124H29.212L27.664 118.612H27.592L27.256 124H25.792ZM37.3579 124.132C36.6859 124.132 36.2019 123.988 35.9059 123.7C35.6099 123.412 35.4619 122.94 35.4619 122.284C35.4619 121.876 35.5059 121.548 35.5939 121.3C35.6819 121.044 35.8459 120.848 36.0859 120.712C36.3259 120.576 36.6699 120.484 37.1179 120.436C37.5659 120.38 38.1499 120.352 38.8699 120.352H39.4579V121.228H37.7539C37.3939 121.228 37.1459 121.276 37.0099 121.372C36.8739 121.46 36.8059 121.632 36.8059 121.888V123.052H38.1619C38.5219 123.052 38.7659 123.008 38.8939 122.92C39.0299 122.832 39.0979 122.66 39.0979 122.404V119.116C38.8419 119.036 38.4859 118.996 38.0299 118.996C37.7019 118.996 37.3579 119.02 36.9979 119.068C36.6459 119.116 36.2859 119.192 35.9179 119.296L35.7259 118.24C35.9499 118.16 36.1979 118.092 36.4699 118.036C36.7499 117.98 37.0419 117.94 37.3459 117.916C37.6499 117.884 37.9459 117.868 38.2339 117.868C38.8019 117.868 39.2579 117.928 39.6019 118.048C39.9459 118.16 40.1939 118.348 40.3459 118.612C40.4979 118.868 40.5739 119.212 40.5739 119.644V124H39.8659L39.4819 123.4C39.1939 123.648 38.8739 123.832 38.5219 123.952C38.1779 124.072 37.7899 124.132 37.3579 124.132ZM45.0476 121.288H44.2316V124H42.7556V116.2L44.2316 116.02V120.304H45.0476L46.2236 118H47.7836L46.2716 120.808L47.8436 124H46.3076L45.0476 121.288ZM51.3919 124.132C50.9199 124.132 50.5199 124.08 50.1919 123.976C49.8639 123.872 49.6039 123.704 49.4119 123.472C49.2199 123.232 49.0799 122.912 48.9919 122.512C48.9119 122.104 48.8719 121.6 48.8719 121C48.8719 120.224 48.9559 119.608 49.1239 119.152C49.2919 118.688 49.5719 118.36 49.9639 118.168C50.3639 117.968 50.8959 117.868 51.5599 117.868C52.2079 117.868 52.7119 117.924 53.0719 118.036C53.4319 118.14 53.6839 118.328 53.8279 118.6C53.9799 118.864 54.0559 119.236 54.0559 119.716C54.0559 120.124 54.0079 120.456 53.9119 120.712C53.8159 120.96 53.6399 121.152 53.3839 121.288C53.1279 121.424 52.7639 121.52 52.2919 121.576C51.8199 121.624 51.1999 121.648 50.4319 121.648H50.0719V120.772H51.7519C52.1279 120.772 52.3839 120.728 52.5199 120.64C52.6559 120.544 52.7239 120.368 52.7239 120.112V119.02H51.3919C51.0239 119.02 50.7719 119.064 50.6359 119.152C50.4999 119.24 50.4319 119.412 50.4319 119.668V122.884C50.5919 122.924 50.7639 122.956 50.9479 122.98C51.1319 122.996 51.3559 123.004 51.6199 123.004C51.9479 123.004 52.2719 122.98 52.5919 122.932C52.9119 122.884 53.2839 122.808 53.7079 122.704L53.8999 123.76C53.5719 123.88 53.1879 123.972 52.7479 124.036C52.3159 124.1 51.8639 124.132 51.3919 124.132ZM59.9613 123.58L58.3413 118H59.7933L61.0293 122.32H61.1493L62.3733 118H63.8253L62.2053 123.58H59.9613ZM59.5293 126.112C59.3373 126.112 59.1373 126.096 58.9293 126.064C58.7293 126.04 58.5493 126.008 58.3893 125.968L58.4613 125.188L59.4213 125.068C59.7093 125.028 59.9333 124.972 60.0933 124.9C60.2533 124.828 60.3773 124.712 60.4653 124.552C60.5533 124.392 60.6373 124.172 60.7173 123.892L60.8133 123.58H62.2053C62.0213 124.212 61.8133 124.712 61.5813 125.08C61.3573 125.456 61.0813 125.72 60.7533 125.872C60.4253 126.032 60.0173 126.112 59.5293 126.112ZM67.5548 124.132C67.0268 124.132 66.5868 124.084 66.2348 123.988C65.8828 123.884 65.6028 123.716 65.3948 123.484C65.1868 123.244 65.0388 122.924 64.9508 122.524C64.8628 122.116 64.8188 121.608 64.8188 121C64.8188 120.392 64.8628 119.888 64.9508 119.488C65.0388 119.08 65.1868 118.76 65.3948 118.528C65.6028 118.288 65.8828 118.12 66.2348 118.024C66.5868 117.92 67.0268 117.868 67.5548 117.868C68.0908 117.868 68.5348 117.92 68.8868 118.024C69.2388 118.12 69.5148 118.288 69.7148 118.528C69.9228 118.76 70.0708 119.076 70.1588 119.476C70.2468 119.876 70.2908 120.384 70.2908 121C70.2908 121.608 70.2468 122.116 70.1588 122.524C70.0708 122.924 69.9228 123.244 69.7148 123.484C69.5148 123.716 69.2348 123.884 68.8748 123.988C68.5228 124.084 68.0828 124.132 67.5548 124.132ZM66.3788 122.968H68.1908C68.4068 122.968 68.5508 122.948 68.6228 122.908C68.7028 122.86 68.7428 122.776 68.7428 122.656V119.032H66.9308C66.7148 119.032 66.5668 119.056 66.4868 119.104C66.4148 119.144 66.3788 119.224 66.3788 119.344V122.968ZM77.2211 118V124H76.5131L76.1291 123.4C75.8011 123.648 75.4451 123.832 75.0611 123.952C74.6771 124.072 74.2451 124.132 73.7651 124.132C73.2051 124.132 72.7931 124.024 72.5291 123.808C72.2651 123.584 72.1331 123.236 72.1331 122.764V118H73.6091V123.052H74.8451C75.1891 123.052 75.4251 123.008 75.5531 122.92C75.6811 122.832 75.7451 122.672 75.7451 122.44V118H77.2211ZM80.162 118L80.642 118.912C80.97 118.6 81.266 118.36 81.53 118.192C81.794 118.024 82.054 117.9 82.31 117.82L82.442 119.26C82.282 119.3 82.106 119.36 81.914 119.44C81.722 119.512 81.538 119.596 81.362 119.692C81.194 119.78 81.05 119.872 80.93 119.968V124H79.454V118H80.162ZM88.9467 117.868C89.4507 117.868 89.8627 117.916 90.1827 118.012C90.5027 118.1 90.7507 118.26 90.9267 118.492C91.1107 118.724 91.2387 119.044 91.3107 119.452C91.3907 119.852 91.4307 120.368 91.4307 121C91.4307 121.64 91.3907 122.168 91.3107 122.584C91.2387 123 91.1107 123.324 90.9267 123.556C90.7507 123.788 90.5027 123.948 90.1827 124.036C89.8627 124.132 89.4507 124.18 88.9467 124.18C88.5067 124.18 88.1387 124.128 87.8427 124.024C87.5547 123.92 87.3267 123.752 87.1587 123.52C86.9907 123.28 86.8707 122.956 86.7987 122.548C86.7267 122.132 86.6907 121.616 86.6907 121C86.6907 120.392 86.7267 119.888 86.7987 119.488C86.8707 119.08 86.9907 118.76 87.1587 118.528C87.3347 118.288 87.5667 118.12 87.8547 118.024C88.1507 117.92 88.5147 117.868 88.9467 117.868ZM90.5067 119.032H88.7907C88.5827 119.032 88.4387 119.056 88.3587 119.104C88.2867 119.144 88.2507 119.224 88.2507 119.344V123.004H89.9787C90.1867 123.004 90.3267 122.984 90.3987 122.944C90.4707 122.904 90.5067 122.824 90.5067 122.704V119.032ZM91.9827 115.912V124H91.2867L90.5067 122.704V116.056L91.9827 115.912ZM96.413 124.132C95.941 124.132 95.541 124.08 95.213 123.976C94.885 123.872 94.625 123.704 94.433 123.472C94.241 123.232 94.101 122.912 94.013 122.512C93.933 122.104 93.893 121.6 93.893 121C93.893 120.224 93.977 119.608 94.145 119.152C94.313 118.688 94.593 118.36 94.985 118.168C95.385 117.968 95.917 117.868 96.581 117.868C97.229 117.868 97.733 117.924 98.093 118.036C98.453 118.14 98.705 118.328 98.849 118.6C99.001 118.864 99.077 119.236 99.077 119.716C99.077 120.124 99.029 120.456 98.933 120.712C98.837 120.96 98.661 121.152 98.405 121.288C98.149 121.424 97.785 121.52 97.313 121.576C96.841 121.624 96.221 121.648 95.453 121.648H95.093V120.772H96.773C97.149 120.772 97.405 120.728 97.541 120.64C97.677 120.544 97.745 120.368 97.745 120.112V119.02H96.413C96.045 119.02 95.793 119.064 95.657 119.152C95.521 119.24 95.453 119.412 95.453 119.668V122.884C95.613 122.924 95.785 122.956 95.969 122.98C96.153 122.996 96.377 123.004 96.641 123.004C96.969 123.004 97.293 122.98 97.613 122.932C97.933 122.884 98.305 122.808 98.729 122.704L98.921 123.76C98.593 123.88 98.209 123.972 97.769 124.036C97.337 124.1 96.885 124.132 96.413 124.132ZM103.059 124.132C102.619 124.132 102.251 124.084 101.955 123.988C101.659 123.884 101.423 123.716 101.247 123.484C101.079 123.244 100.955 122.924 100.875 122.524C100.803 122.116 100.767 121.608 100.767 121C100.767 120.392 100.803 119.888 100.875 119.488C100.955 119.08 101.079 118.76 101.247 118.528C101.423 118.288 101.659 118.12 101.955 118.024C102.251 117.92 102.619 117.868 103.059 117.868C103.283 117.868 103.515 117.876 103.755 117.892C104.003 117.908 104.239 117.936 104.463 117.976C104.687 118.008 104.875 118.048 105.027 118.096L104.871 119.176C104.607 119.112 104.347 119.068 104.091 119.044C103.843 119.012 103.583 118.996 103.311 118.996C102.943 118.996 102.687 119.068 102.543 119.212C102.399 119.356 102.327 119.612 102.327 119.98V122.884C102.575 122.964 102.935 123.004 103.407 123.004C103.671 123.004 103.923 122.98 104.163 122.932C104.411 122.884 104.695 122.808 105.015 122.704L105.159 123.76C104.871 123.88 104.543 123.972 104.175 124.036C103.815 124.1 103.443 124.132 103.059 124.132ZM106.829 118.132L108.305 117.928V124H106.829V118.132ZM107.573 117.076C107.237 117.076 107.009 117.02 106.889 116.908C106.769 116.788 106.709 116.564 106.709 116.236C106.709 115.9 106.769 115.672 106.889 115.552C107.009 115.432 107.237 115.372 107.573 115.372C107.901 115.372 108.125 115.432 108.245 115.552C108.365 115.672 108.425 115.9 108.425 116.236C108.425 116.564 108.365 116.788 108.245 116.908C108.133 117.02 107.909 117.076 107.573 117.076ZM110.179 119.668C110.179 119.028 110.371 118.56 110.755 118.264C111.139 117.968 111.735 117.82 112.543 117.82C112.927 117.82 113.295 117.844 113.647 117.892C113.999 117.932 114.343 117.996 114.679 118.084L114.487 119.14C114.287 119.084 114.055 119.04 113.791 119.008C113.535 118.976 113.283 118.96 113.035 118.96C112.795 118.96 112.563 118.972 112.339 118.996C112.115 119.012 111.919 119.036 111.751 119.068V120.256C112.415 120.344 112.955 120.44 113.371 120.544C113.795 120.64 114.123 120.764 114.355 120.916C114.587 121.06 114.747 121.24 114.835 121.456C114.931 121.672 114.979 121.944 114.979 122.272C114.979 122.72 114.891 123.088 114.715 123.376C114.539 123.656 114.259 123.86 113.875 123.988C113.491 124.116 112.979 124.18 112.339 124.18C111.963 124.18 111.583 124.148 111.199 124.084C110.815 124.02 110.435 123.932 110.059 123.82L110.275 122.68C110.883 122.92 111.539 123.04 112.243 123.04C112.451 123.04 112.639 123.032 112.807 123.016C112.983 122.992 113.187 122.952 113.419 122.896V121.696C112.715 121.6 112.147 121.508 111.715 121.42C111.291 121.324 110.967 121.204 110.743 121.06C110.527 120.916 110.379 120.732 110.299 120.508C110.219 120.284 110.179 120.004 110.179 119.668ZM116.734 118.132L118.21 117.928V124H116.734V118.132ZM117.478 117.076C117.142 117.076 116.914 117.02 116.794 116.908C116.674 116.788 116.614 116.564 116.614 116.236C116.614 115.9 116.674 115.672 116.794 115.552C116.914 115.432 117.142 115.372 117.478 115.372C117.806 115.372 118.03 115.432 118.15 115.552C118.27 115.672 118.33 115.9 118.33 116.236C118.33 116.564 118.27 116.788 118.15 116.908C118.038 117.02 117.814 117.076 117.478 117.076ZM122.856 124.132C122.328 124.132 121.888 124.084 121.536 123.988C121.184 123.884 120.904 123.716 120.696 123.484C120.488 123.244 120.34 122.924 120.252 122.524C120.164 122.116 120.12 121.608 120.12 121C120.12 120.392 120.164 119.888 120.252 119.488C120.34 119.08 120.488 118.76 120.696 118.528C120.904 118.288 121.184 118.12 121.536 118.024C121.888 117.92 122.328 117.868 122.856 117.868C123.392 117.868 123.836 117.92 124.188 118.024C124.54 118.12 124.816 118.288 125.016 118.528C125.224 118.76 125.372 119.076 125.46 119.476C125.548 119.876 125.592 120.384 125.592 121C125.592 121.608 125.548 122.116 125.46 122.524C125.372 122.924 125.224 123.244 125.016 123.484C124.816 123.716 124.536 123.884 124.176 123.988C123.824 124.084 123.384 124.132 122.856 124.132ZM121.68 122.968H123.492C123.708 122.968 123.852 122.948 123.924 122.908C124.004 122.86 124.044 122.776 124.044 122.656V119.032H122.232C122.016 119.032 121.868 119.056 121.788 119.104C121.716 119.144 121.68 119.224 121.68 119.344V122.968ZM127.494 124V118H128.19L128.586 118.6C128.898 118.352 129.238 118.168 129.606 118.048C129.974 117.928 130.39 117.868 130.854 117.868C131.414 117.868 131.842 117.964 132.138 118.156C132.434 118.34 132.582 118.612 132.582 118.972V124H131.106V119.08H129.858C129.522 119.08 129.29 119.124 129.162 119.212C129.034 119.292 128.97 119.452 128.97 119.692V124H127.494ZM142.186 124L140.818 118H141.958L143.002 122.728H143.122L144.13 118H145.582L144.19 124H142.186ZM138.418 124L137.014 118H138.466L139.486 122.728H139.606L140.65 118H141.778L140.422 124H138.418ZM146.921 118.132L148.397 117.928V124H146.921V118.132ZM147.665 117.076C147.329 117.076 147.101 117.02 146.981 116.908C146.861 116.788 146.801 116.564 146.801 116.236C146.801 115.9 146.861 115.672 146.981 115.552C147.101 115.432 147.329 115.372 147.665 115.372C147.993 115.372 148.217 115.432 148.337 115.552C148.457 115.672 148.517 115.9 148.517 116.236C148.517 116.564 148.457 116.788 148.337 116.908C148.225 117.02 148.001 117.076 147.665 117.076ZM150.271 119.668C150.271 119.028 150.463 118.56 150.847 118.264C151.231 117.968 151.827 117.82 152.635 117.82C153.019 117.82 153.387 117.844 153.739 117.892C154.091 117.932 154.435 117.996 154.771 118.084L154.579 119.14C154.379 119.084 154.147 119.04 153.883 119.008C153.627 118.976 153.375 118.96 153.127 118.96C152.887 118.96 152.655 118.972 152.431 118.996C152.207 119.012 152.011 119.036 151.843 119.068V120.256C152.507 120.344 153.047 120.44 153.463 120.544C153.887 120.64 154.215 120.764 154.447 120.916C154.679 121.06 154.839 121.24 154.927 121.456C155.023 121.672 155.071 121.944 155.071 122.272C155.071 122.72 154.983 123.088 154.807 123.376C154.631 123.656 154.351 123.86 153.967 123.988C153.583 124.116 153.071 124.18 152.431 124.18C152.055 124.18 151.675 124.148 151.291 124.084C150.907 124.02 150.527 123.932 150.151 123.82L150.367 122.68C150.975 122.92 151.631 123.04 152.335 123.04C152.543 123.04 152.731 123.032 152.899 123.016C153.075 122.992 153.279 122.952 153.511 122.896V121.696C152.807 121.6 152.239 121.508 151.807 121.42C151.383 121.324 151.059 121.204 150.835 121.06C150.619 120.916 150.471 120.732 150.391 120.508C150.311 120.284 150.271 120.004 150.271 119.668ZM159.01 124.132C158.538 124.132 158.138 124.08 157.81 123.976C157.482 123.872 157.222 123.704 157.03 123.472C156.838 123.232 156.698 122.912 156.61 122.512C156.53 122.104 156.49 121.6 156.49 121C156.49 120.224 156.574 119.608 156.742 119.152C156.91 118.688 157.19 118.36 157.582 118.168C157.982 117.968 158.514 117.868 159.178 117.868C159.826 117.868 160.33 117.924 160.69 118.036C161.05 118.14 161.302 118.328 161.446 118.6C161.598 118.864 161.674 119.236 161.674 119.716C161.674 120.124 161.626 120.456 161.53 120.712C161.434 120.96 161.258 121.152 161.002 121.288C160.746 121.424 160.382 121.52 159.91 121.576C159.438 121.624 158.818 121.648 158.05 121.648H157.69V120.772H159.37C159.746 120.772 160.002 120.728 160.138 120.64C160.274 120.544 160.342 120.368 160.342 120.112V119.02H159.01C158.642 119.02 158.39 119.064 158.254 119.152C158.118 119.24 158.05 119.412 158.05 119.668V122.884C158.21 122.924 158.382 122.956 158.566 122.98C158.75 122.996 158.974 123.004 159.238 123.004C159.566 123.004 159.89 122.98 160.21 122.932C160.53 122.884 160.902 122.808 161.326 122.704L161.518 123.76C161.19 123.88 160.806 123.972 160.366 124.036C159.934 124.1 159.482 124.132 159.01 124.132ZM165.128 122.92C165.208 122.936 165.296 122.952 165.392 122.968C165.496 122.976 165.596 122.984 165.692 122.992L165.608 123.988C165.432 124.036 165.268 124.072 165.116 124.096C164.972 124.12 164.832 124.132 164.696 124.132C164.344 124.132 164.08 124.052 163.904 123.892C163.736 123.724 163.652 123.472 163.652 123.136V116.2L165.128 116.02V122.92ZM168.071 123.58L166.451 118H167.903L169.139 122.32H169.259L170.483 118H171.935L170.315 123.58H168.071ZM167.639 126.112C167.447 126.112 167.247 126.096 167.039 126.064C166.839 126.04 166.659 126.008 166.499 125.968L166.571 125.188L167.531 125.068C167.819 125.028 168.043 124.972 168.203 124.9C168.363 124.828 168.487 124.712 168.575 124.552C168.663 124.392 168.747 124.172 168.827 123.892L168.923 123.58H170.315C170.131 124.212 169.923 124.712 169.691 125.08C169.467 125.456 169.191 125.72 168.863 125.872C168.535 126.032 168.127 126.112 167.639 126.112ZM176.004 123.148C176.004 122.828 176.06 122.596 176.172 122.452C176.292 122.3 176.54 122.224 176.916 122.224C177.284 122.224 177.524 122.3 177.636 122.452C177.748 122.596 177.804 122.828 177.804 123.148C177.804 123.484 177.748 123.724 177.636 123.868C177.524 124.004 177.28 124.072 176.904 124.072C176.536 124.072 176.292 124.004 176.172 123.868C176.06 123.724 176.004 123.484 176.004 123.148ZM179.199 123.148C179.199 122.828 179.255 122.596 179.367 122.452C179.487 122.3 179.735 122.224 180.111 122.224C180.479 122.224 180.719 122.3 180.831 122.452C180.943 122.596 180.999 122.828 180.999 123.148C180.999 123.484 180.943 123.724 180.831 123.868C180.719 124.004 180.475 124.072 180.099 124.072C179.731 124.072 179.487 124.004 179.367 123.868C179.255 123.724 179.199 123.484 179.199 123.148ZM182.393 123.148C182.393 122.828 182.449 122.596 182.561 122.452C182.681 122.3 182.929 122.224 183.305 122.224C183.673 122.224 183.913 122.3 184.025 122.452C184.137 122.596 184.193 122.828 184.193 123.148C184.193 123.484 184.137 123.724 184.025 123.868C183.913 124.004 183.669 124.072 183.293 124.072C182.925 124.072 182.681 124.004 182.561 123.868C182.449 123.724 182.393 123.484 182.393 123.148Z" fill="#5F6A70"/>
<path d="M38.552 99.752V105H32.92V85H41.72C43.4267 85 44.8027 85.2453 45.848 85.736C46.9147 86.2053 47.6827 86.9733 48.152 88.04C48.6427 89.1067 48.888 90.504 48.888 92.232C48.888 94.8133 48.344 96.712 47.256 97.928C46.1893 99.144 44.504 99.752 42.2 99.752H38.552ZM38.552 95.624H41.496C42.0507 95.624 42.4347 95.528 42.648 95.336C42.8827 95.144 43 94.792 43 94.28V90.984C43 90.472 42.8827 90.12 42.648 89.928C42.4347 89.736 42.0507 89.64 41.496 89.64H38.552V95.624ZM54.9415 89L56.5415 91.208C57.2455 90.504 57.9815 89.9387 58.7495 89.512C59.5175 89.064 60.3282 88.7333 61.1815 88.52L61.5655 93.992C61.2242 94.0347 60.7975 94.1413 60.2855 94.312C59.7735 94.4827 59.2935 94.6747 58.8455 94.888C58.3975 95.08 58.0455 95.272 57.7895 95.464V105H52.1575V89H54.9415ZM64.52 89.672L70.152 88.936V105H64.52V89.672ZM67.336 87.304C66.1627 87.304 65.352 87.1013 64.904 86.696C64.4773 86.2693 64.264 85.4693 64.264 84.296C64.264 83.1013 64.4773 82.2907 64.904 81.864C65.352 81.4373 66.1627 81.224 67.336 81.224C68.488 81.224 69.2773 81.4373 69.704 81.864C70.1307 82.2907 70.344 83.1013 70.344 84.296C70.344 85.4693 70.1413 86.2693 69.736 86.696C69.3307 87.1013 68.5307 87.304 67.336 87.304ZM80.9655 105.448C79.7282 105.448 78.6722 105.299 77.7975 105C76.9228 104.68 76.2082 104.179 75.6535 103.496C75.0988 102.813 74.6828 101.939 74.4055 100.872C74.1495 99.8053 74.0215 98.5147 74.0215 97C74.0215 95.4853 74.1495 94.1947 74.4055 93.128C74.6828 92.04 75.0988 91.1653 75.6535 90.504C76.2082 89.8213 76.9228 89.3307 77.7975 89.032C78.6722 88.712 79.7282 88.552 80.9655 88.552C81.5842 88.552 82.2348 88.584 82.9175 88.648C83.6215 88.712 84.2828 88.7867 84.9015 88.872C85.5202 88.9573 86.0108 89.064 86.3735 89.192L85.8615 93.16C85.3068 92.9893 84.7415 92.872 84.1655 92.808C83.6108 92.744 83.0135 92.712 82.3735 92.712C81.5202 92.712 80.9228 92.8933 80.5815 93.256C80.2402 93.6187 80.0695 94.248 80.0695 95.144V101.096C80.4962 101.224 81.1682 101.288 82.0855 101.288C82.8108 101.288 83.5042 101.224 84.1655 101.096C84.8268 100.947 85.4988 100.733 86.1815 100.456L86.6935 104.392C85.8402 104.733 84.9228 104.989 83.9415 105.16C82.9815 105.352 81.9895 105.448 80.9655 105.448ZM97.1638 105.448C95.7771 105.448 94.5824 105.288 93.5798 104.968C92.5771 104.648 91.7558 104.147 91.1158 103.464C90.4758 102.781 89.9958 101.907 89.6758 100.84C89.3771 99.7733 89.2278 98.4933 89.2278 97C89.2278 94.9947 89.5051 93.3733 90.0598 92.136C90.6358 90.8987 91.5104 89.992 92.6838 89.416C93.8784 88.84 95.4144 88.552 97.2918 88.552C99.1691 88.552 100.63 88.712 101.676 89.032C102.721 89.352 103.457 89.896 103.884 90.664C104.332 91.432 104.556 92.488 104.556 93.832C104.556 94.8347 104.396 95.6773 104.076 96.36C103.777 97.0213 103.276 97.5547 102.572 97.96C101.868 98.3653 100.918 98.6533 99.7238 98.824C98.5291 98.9947 97.0464 99.08 95.2758 99.08H94.3158V96.136H97.1638C98.0384 96.136 98.6358 96.04 98.9558 95.848C99.2971 95.6347 99.4678 95.2507 99.4678 94.696V92.712H97.5798C96.7051 92.712 96.0971 92.808 95.7558 93C95.4358 93.192 95.2758 93.5547 95.2758 94.088V101.096C95.5744 101.16 95.9158 101.213 96.2998 101.256C96.7051 101.277 97.2064 101.288 97.8038 101.288C98.6998 101.288 99.6064 101.224 100.524 101.096C101.441 100.947 102.412 100.733 103.436 100.456L104.14 104.392C103.094 104.733 101.985 104.989 100.812 105.16C99.6384 105.352 98.4224 105.448 97.1638 105.448Z" fill="#595B63"/>
<path d="M120.859 105L117.563 89H121.691L123.867 100.104H124.187L126.107 89H131.611L128.379 105H120.859ZM110.235 105L107.003 89H112.507L114.427 100.104H114.747L116.891 89H121.051L117.723 105H110.235ZM134.439 89.672L140.071 88.936V105H134.439V89.672ZM137.255 87.304C136.081 87.304 135.271 87.1013 134.823 86.696C134.396 86.2693 134.183 85.4693 134.183 84.296C134.183 83.1013 134.396 82.2907 134.823 81.864C135.271 81.4373 136.081 81.224 137.255 81.224C138.407 81.224 139.196 81.4373 139.623 81.864C140.049 82.2907 140.263 83.1013 140.263 84.296C140.263 85.4693 140.06 86.2693 139.655 86.696C139.249 87.1013 138.449 87.304 137.255 87.304ZM143.972 93.768C143.972 91.976 144.527 90.6533 145.636 89.8C146.746 88.9467 148.484 88.52 150.852 88.52C152.004 88.52 153.135 88.584 154.244 88.712C155.354 88.8187 156.399 88.9893 157.38 89.224L156.708 93.128C156.175 92.9787 155.588 92.872 154.948 92.808C154.308 92.744 153.636 92.712 152.932 92.712C152.378 92.712 151.834 92.744 151.3 92.808C150.788 92.8507 150.351 92.9147 149.988 93V94.792C151.567 94.9627 152.879 95.1867 153.924 95.464C154.97 95.72 155.802 96.0613 156.42 96.488C157.039 96.8933 157.487 97.3947 157.764 97.992C158.042 98.568 158.18 99.2827 158.18 100.136C158.18 101.373 157.903 102.387 157.348 103.176C156.815 103.965 155.983 104.552 154.852 104.936C153.722 105.299 152.25 105.48 150.436 105.48C149.263 105.48 148.09 105.384 146.916 105.192C145.743 105.021 144.676 104.765 143.716 104.424L144.452 100.328C145.988 100.968 147.706 101.288 149.604 101.288C149.967 101.288 150.351 101.267 150.756 101.224C151.162 101.181 151.62 101.107 152.132 101V99.144C150.468 98.952 149.103 98.7387 148.036 98.504C146.991 98.248 146.17 97.928 145.572 97.544C144.975 97.1387 144.559 96.6373 144.324 96.04C144.09 95.4213 143.972 94.664 143.972 93.768ZM169.02 105.448C167.633 105.448 166.439 105.288 165.436 104.968C164.433 104.648 163.612 104.147 162.972 103.464C162.332 102.781 161.852 101.907 161.532 100.84C161.233 99.7733 161.084 98.4933 161.084 97C161.084 94.9947 161.361 93.3733 161.916 92.136C162.492 90.8987 163.367 89.992 164.54 89.416C165.735 88.84 167.271 88.552 169.148 88.552C171.025 88.552 172.487 88.712 173.532 89.032C174.577 89.352 175.313 89.896 175.74 90.664C176.188 91.432 176.412 92.488 176.412 93.832C176.412 94.8347 176.252 95.6773 175.932 96.36C175.633 97.0213 175.132 97.5547 174.428 97.96C173.724 98.3653 172.775 98.6533 171.58 98.824C170.385 98.9947 168.903 99.08 167.132 99.08H166.172V96.136H169.02C169.895 96.136 170.492 96.04 170.812 95.848C171.153 95.6347 171.324 95.2507 171.324 94.696V92.712H169.436C168.561 92.712 167.953 92.808 167.612 93C167.292 93.192 167.132 93.5547 167.132 94.088V101.096C167.431 101.16 167.772 101.213 168.156 101.256C168.561 101.277 169.063 101.288 169.66 101.288C170.556 101.288 171.463 101.224 172.38 101.096C173.297 100.947 174.268 100.733 175.292 100.456L175.996 104.392C174.951 104.733 173.841 104.989 172.668 105.16C171.495 105.352 170.279 105.448 169.02 105.448Z" fill="#7BAAA8"/>
</svg>
