<svg width="150" height="150" viewBox="0 0 150 150" fill="none" xmlns="http://www.w3.org/2000/svg">
<rect width="150" height="150" fill="#222831"/>
<path d="M38.5225 64.4892V69.5342H41.045C41.3907 69.5342 41.7159 69.4697 42.0206 69.3408C42.3252 69.206 42.5918 69.0244 42.8204 68.7959C43.0489 68.5674 43.2276 68.3008 43.3565 67.9961C43.4913 67.6855 43.5586 67.3574 43.5586 67.0117C43.5586 66.666 43.4913 66.3408 43.3565 66.0361C43.2276 65.7256 43.0489 65.456 42.8204 65.2275C42.5918 64.999 42.3252 64.8203 42.0206 64.6914C41.7159 64.5566 41.3907 64.4892 41.045 64.4892H38.5225ZM38.5225 74.5703H36V61.9668H41.045C41.5079 61.9668 41.9532 62.0283 42.3809 62.1514C42.8086 62.2685 43.2071 62.4385 43.5762 62.6611C43.9512 62.8779 44.2911 63.1416 44.5957 63.4521C44.9063 63.7568 45.17 64.0967 45.3868 64.4717C45.6094 64.8467 45.7793 65.248 45.8965 65.6758C46.0196 66.1035 46.0811 66.5488 46.0811 67.0117C46.0811 67.7031 45.9493 68.3564 45.6856 68.9717C45.4219 69.581 45.0616 70.1142 44.6045 70.5713C44.1475 71.0283 43.6114 71.3887 42.9961 71.6523C42.3868 71.916 41.7364 72.0478 41.045 72.0478H38.5225V74.5703ZM49.711 74.5703H47.3116V65.1572H47.8916L48.6827 66.2734C49.0694 65.9219 49.5088 65.6523 50.001 65.4648C50.4932 65.2715 51.003 65.1748 51.5303 65.1748H53.6485V67.5654H51.5303C51.2784 67.5654 51.0411 67.6123 50.8184 67.706C50.5957 67.7998 50.4024 67.9287 50.2383 68.0928C50.0743 68.2568 49.9454 68.4502 49.8516 68.6728C49.7579 68.8955 49.711 69.1328 49.711 69.3848V74.5703ZM57.5948 62.5996C57.5948 62.8223 57.5508 63.0303 57.4629 63.2236C57.3809 63.417 57.2666 63.5869 57.1202 63.7334C56.9737 63.874 56.8008 63.9883 56.6016 64.0762C56.4082 64.1582 56.2002 64.1992 55.9776 64.1992C55.7549 64.1992 55.544 64.1582 55.3448 64.0762C55.1514 63.9883 54.9815 63.874 54.835 63.7334C54.6944 63.5869 54.5801 63.417 54.4922 63.2236C54.4102 63.0303 54.3692 62.8223 54.3692 62.5996C54.3692 62.3828 54.4102 62.1777 54.4922 61.9844C54.5801 61.7851 54.6944 61.6152 54.835 61.4746C54.9815 61.3281 55.1514 61.2139 55.3448 61.1318C55.544 61.0439 55.7549 61 55.9776 61C56.2002 61 56.4082 61.0439 56.6016 61.1318C56.8008 61.2139 56.9737 61.3281 57.1202 61.4746C57.2666 61.6152 57.3809 61.7851 57.4629 61.9844C57.5508 62.1777 57.5948 62.3828 57.5948 62.5996ZM57.1817 74.5703H54.7647V65.1572H57.1817V74.5703ZM67.2452 67.0293L65.4873 68.7959C65.3995 68.5498 65.2793 68.3301 65.127 68.1367C64.9747 67.9375 64.8018 67.7705 64.6084 67.6357C64.4209 67.501 64.2159 67.3984 63.9932 67.3281C63.7706 67.2578 63.542 67.2226 63.3077 67.2226C62.9795 67.2226 62.669 67.29 62.376 67.4248C62.0889 67.5596 61.837 67.75 61.6202 67.9961C61.4092 68.2363 61.2422 68.5234 61.1192 68.8574C60.9961 69.1914 60.9346 69.5605 60.9346 69.9648C60.9346 70.293 60.9961 70.6006 61.1192 70.8877C61.2422 71.1748 61.4092 71.4267 61.6202 71.6435C61.837 71.8603 62.0889 72.0303 62.376 72.1533C62.669 72.2764 62.9795 72.3379 63.3077 72.3379C63.542 72.3379 63.7676 72.3057 63.9844 72.2412C64.2012 72.1767 64.4034 72.0859 64.5909 71.9687C64.7842 71.8457 64.9541 71.6992 65.1006 71.5293C65.253 71.3535 65.376 71.1601 65.4698 70.9492L67.2276 72.7158C67.0049 73.0322 66.7471 73.3164 66.4541 73.5683C66.167 73.8203 65.8536 74.0342 65.5137 74.2099C65.1797 74.3857 64.8252 74.5176 64.4502 74.6055C64.0811 74.6992 63.7002 74.7461 63.3077 74.7461C62.6456 74.7461 62.0215 74.623 61.4356 74.3769C60.8555 74.125 60.3457 73.7822 59.9063 73.3486C59.4727 72.915 59.1299 72.4082 58.878 71.8281C58.626 71.248 58.5 70.6269 58.5 69.9648C58.5 69.2441 58.626 68.5703 58.878 67.9433C59.1299 67.3164 59.4727 66.7715 59.9063 66.3086C60.3457 65.8398 60.8555 65.4707 61.4356 65.2012C62.0215 64.9316 62.6456 64.7969 63.3077 64.7969C63.7002 64.7969 64.084 64.8467 64.459 64.9463C64.8399 65.0459 65.2002 65.1924 65.5401 65.3857C65.8858 65.5732 66.2022 65.8047 66.4893 66.0801C66.7823 66.3555 67.0342 66.6719 67.2452 67.0293ZM72.0264 72.2676C72.1202 72.2969 72.2139 72.3174 72.3077 72.3291C72.4014 72.3349 72.4952 72.3379 72.5889 72.3379C72.8233 72.3379 73.0489 72.3057 73.2657 72.2412C73.4825 72.1767 73.6846 72.0859 73.8721 71.9687C74.0655 71.8457 74.2354 71.6992 74.3819 71.5293C74.5342 71.3535 74.6573 71.1601 74.751 70.9492L76.5088 72.7158C76.2862 73.0322 76.0284 73.3164 75.7354 73.5683C75.4483 73.8203 75.1348 74.0342 74.795 74.2099C74.461 74.3857 74.1065 74.5176 73.7315 74.6055C73.3623 74.6992 72.9815 74.7461 72.5889 74.7461C71.9268 74.7461 71.3028 74.623 70.7168 74.3769C70.1368 74.1308 69.627 73.7881 69.1875 73.3486C68.754 72.9092 68.4112 72.3877 68.1592 71.7842C67.9073 71.1748 67.7813 70.5068 67.7813 69.7803C67.7813 69.0361 67.9073 68.3564 68.1592 67.7412C68.4112 67.126 68.754 66.6015 69.1875 66.168C69.627 65.7344 70.1368 65.3974 70.7168 65.1572C71.3028 64.917 71.9268 64.7969 72.5889 64.7969C72.9815 64.7969 73.3653 64.8437 73.7403 64.9375C74.1153 65.0312 74.4698 65.166 74.8038 65.3418C75.1436 65.5176 75.46 65.7344 75.753 65.9922C76.0459 66.2441 76.3038 66.5283 76.5264 66.8447L72.0264 72.2676ZM73.2569 67.3193C73.1456 67.2783 73.0342 67.2519 72.9229 67.2402C72.8174 67.2285 72.7061 67.2226 72.5889 67.2226C72.2608 67.2226 71.9502 67.2842 71.6573 67.4072C71.3702 67.5244 71.1182 67.6943 70.9014 67.917C70.6905 68.1396 70.5235 68.4092 70.4004 68.7256C70.2774 69.0361 70.2159 69.3877 70.2159 69.7803C70.2159 69.8682 70.2188 69.9678 70.2247 70.0791C70.2364 70.1904 70.251 70.3047 70.2686 70.4219C70.292 70.5332 70.3184 70.6416 70.3477 70.7471C70.377 70.8525 70.4151 70.9463 70.462 71.0283L73.2569 67.3193ZM89.6221 71.1689C89.6221 71.6611 89.5284 72.1269 89.3409 72.5664C89.1534 73 88.8956 73.3779 88.5674 73.7002C88.2452 74.0224 87.8643 74.2773 87.4249 74.4648C86.9913 74.6523 86.5254 74.7461 86.0274 74.7461C85.5821 74.7461 85.1543 74.6699 84.7442 74.5176C84.334 74.3594 83.962 74.1308 83.628 73.832C83.2999 74.1308 82.9307 74.3594 82.5206 74.5176C82.1163 74.6699 81.6885 74.7461 81.2373 74.7461C80.7393 74.7461 80.2735 74.6523 79.8399 74.4648C79.4063 74.2773 79.0254 74.0224 78.6973 73.7002C78.375 73.3779 78.1202 73 77.9327 72.5664C77.7452 72.1269 77.6514 71.6611 77.6514 71.1689V65.1748H80.0508V71.1689C80.0508 71.333 80.0801 71.4883 80.1387 71.6348C80.2032 71.7754 80.2881 71.9014 80.3936 72.0127C80.5049 72.1182 80.6309 72.2031 80.7715 72.2676C80.918 72.3262 81.0733 72.3555 81.2373 72.3555C81.4014 72.3555 81.5567 72.3262 81.7032 72.2676C81.8497 72.2031 81.9786 72.1182 82.0899 72.0127C82.2012 71.9014 82.2862 71.7754 82.3448 71.6348C82.4092 71.4883 82.4415 71.333 82.4415 71.1689V65.1748H84.8321V71.1689C84.8321 71.333 84.8643 71.4883 84.9288 71.6348C84.9932 71.7754 85.0782 71.9014 85.1836 72.0127C85.295 72.1182 85.4209 72.2031 85.5616 72.2676C85.7081 72.3262 85.8633 72.3555 86.0274 72.3555C86.1915 72.3555 86.3467 72.3262 86.4932 72.2676C86.6397 72.2031 86.7657 72.1182 86.8711 72.0127C86.9825 71.9014 87.0704 71.7754 87.1348 71.6348C87.1993 71.4883 87.2315 71.333 87.2315 71.1689V65.1748H89.6221V71.1689ZM94.1924 62.5996C94.1924 62.8223 94.1485 63.0303 94.0606 63.2236C93.9786 63.417 93.8643 63.5869 93.7178 63.7334C93.5713 63.874 93.3985 63.9883 93.1993 64.0762C93.0059 64.1582 92.7979 64.1992 92.5752 64.1992C92.3526 64.1992 92.1416 64.1582 91.9424 64.0762C91.7491 63.9883 91.5791 63.874 91.4327 63.7334C91.292 63.5869 91.1778 63.417 91.0899 63.2236C91.0079 63.0303 90.9668 62.8223 90.9668 62.5996C90.9668 62.3828 91.0079 62.1777 91.0899 61.9844C91.1778 61.7851 91.292 61.6152 91.4327 61.4746C91.5791 61.3281 91.7491 61.2139 91.9424 61.1318C92.1416 61.0439 92.3526 61 92.5752 61C92.7979 61 93.0059 61.0439 93.1993 61.1318C93.3985 61.2139 93.5713 61.3281 93.7178 61.4746C93.8643 61.6152 93.9786 61.7851 94.0606 61.9844C94.1485 62.1777 94.1924 62.3828 94.1924 62.5996ZM93.7793 74.5703H91.3623V65.1572H93.7793V74.5703ZM100.784 74.5703H95.2999V72.1797H100.784C100.948 72.1797 101.089 72.1211 101.206 72.0039C101.323 71.8867 101.382 71.7461 101.382 71.582C101.382 71.4121 101.323 71.3008 101.206 71.248C101.089 71.1953 100.948 71.1689 100.784 71.1689H98.2881C97.8721 71.1689 97.4825 71.0898 97.1192 70.9316C96.7559 70.7734 96.4395 70.5596 96.17 70.29C95.9004 70.0146 95.6866 69.6953 95.5284 69.332C95.376 68.9687 95.2999 68.5791 95.2999 68.1631C95.2999 67.7471 95.376 67.3574 95.5284 66.9941C95.6866 66.6308 95.9004 66.3144 96.17 66.0449C96.4395 65.7754 96.7559 65.5644 97.1192 65.4121C97.4825 65.2539 97.8721 65.1748 98.2881 65.1748H103.148V67.5654H98.2881C98.1241 67.5654 97.9834 67.624 97.8663 67.7412C97.7491 67.8584 97.6905 67.999 97.6905 68.1631C97.6905 68.333 97.7491 68.4795 97.8663 68.6025C97.9834 68.7197 98.1241 68.7783 98.2881 68.7783H100.784C101.194 68.7783 101.581 68.8486 101.944 68.9892C102.308 69.124 102.624 69.3144 102.893 69.5605C103.163 69.8066 103.377 70.1025 103.535 70.4482C103.693 70.7939 103.772 71.1719 103.772 71.582C103.772 71.998 103.693 72.3877 103.535 72.751C103.377 73.1084 103.163 73.4248 102.893 73.7002C102.624 73.9697 102.308 74.1836 101.944 74.3418C101.581 74.4941 101.194 74.5703 100.784 74.5703ZM108.8 72.2676C108.893 72.2969 108.987 72.3174 109.081 72.3291C109.175 72.3349 109.269 72.3379 109.362 72.3379C109.597 72.3379 109.822 72.3057 110.039 72.2412C110.256 72.1767 110.458 72.0859 110.645 71.9687C110.839 71.8457 111.009 71.6992 111.155 71.5293C111.308 71.3535 111.431 71.1601 111.524 70.9492L113.282 72.7158C113.06 73.0322 112.802 73.3164 112.509 73.5683C112.222 73.8203 111.908 74.0342 111.568 74.2099C111.234 74.3857 110.88 74.5176 110.505 74.6055C110.136 74.6992 109.755 74.7461 109.362 74.7461C108.7 74.7461 108.076 74.623 107.49 74.3769C106.91 74.1308 106.4 73.7881 105.961 73.3486C105.527 72.9092 105.185 72.3877 104.933 71.7842C104.681 71.1748 104.555 70.5068 104.555 69.7803C104.555 69.0361 104.681 68.3564 104.933 67.7412C105.185 67.126 105.527 66.6015 105.961 66.168C106.4 65.7344 106.91 65.3974 107.49 65.1572C108.076 64.917 108.7 64.7969 109.362 64.7969C109.755 64.7969 110.139 64.8437 110.514 64.9375C110.889 65.0312 111.243 65.166 111.577 65.3418C111.917 65.5176 112.233 65.7344 112.526 65.9922C112.819 66.2441 113.077 66.5283 113.3 66.8447L108.8 72.2676ZM110.03 67.3193C109.919 67.2783 109.808 67.2519 109.696 67.2402C109.591 67.2285 109.479 67.2226 109.362 67.2226C109.034 67.2226 108.724 67.2842 108.431 67.4072C108.143 67.5244 107.892 67.6943 107.675 67.917C107.464 68.1396 107.297 68.4092 107.174 68.7256C107.051 69.0361 106.989 69.3877 106.989 69.7803C106.989 69.8682 106.992 69.9678 106.998 70.0791C107.01 70.1904 107.024 70.3047 107.042 70.4219C107.065 70.5332 107.092 70.6416 107.121 70.7471C107.15 70.8525 107.188 70.9463 107.235 71.0283L110.03 67.3193Z" fill="#FDFDFD"/>
<path d="M19.58 82.53C19.58 81.9367 19.6667 81.4133 19.84 80.96C20.02 80.5067 20.26 80.13 20.56 79.83C20.8667 79.5233 21.22 79.2933 21.62 79.14C22.0267 78.9867 22.4567 78.91 22.91 78.91C23.3567 78.91 23.7767 78.9867 24.17 79.14C24.57 79.2933 24.92 79.5233 25.22 79.83C25.52 80.13 25.7567 80.5067 25.93 80.96C26.11 81.4133 26.2 81.9367 26.2 82.53C26.2 83.1233 26.11 83.6467 25.93 84.1C25.7567 84.5533 25.52 84.9333 25.22 85.24C24.92 85.54 24.57 85.7667 24.17 85.92C23.7767 86.0733 23.3567 86.15 22.91 86.15C22.4567 86.15 22.0267 86.0733 21.62 85.92C21.22 85.7667 20.8667 85.54 20.56 85.24C20.26 84.9333 20.02 84.5533 19.84 84.1C19.6667 83.6467 19.58 83.1233 19.58 82.53ZM20.6 82.53C20.6 82.95 20.6533 83.3333 20.76 83.68C20.8667 84.02 21.0167 84.31 21.21 84.55C21.41 84.79 21.65 84.9767 21.93 85.11C22.2167 85.2367 22.5367 85.3 22.89 85.3C23.2433 85.3 23.56 85.2367 23.84 85.11C24.12 84.9767 24.3567 84.79 24.55 84.55C24.75 84.31 24.9033 84.02 25.01 83.68C25.1167 83.3333 25.17 82.95 25.17 82.53C25.17 82.11 25.1167 81.73 25.01 81.39C24.9033 81.0433 24.75 80.75 24.55 80.51C24.3567 80.27 24.12 80.0867 23.84 79.96C23.56 79.8267 23.2433 79.76 22.89 79.76C22.5367 79.76 22.2167 79.8267 21.93 79.96C21.65 80.0867 21.41 80.27 21.21 80.51C21.0167 80.75 20.8667 81.0433 20.76 81.39C20.6533 81.73 20.6 82.11 20.6 82.53ZM27.5832 80.95C27.7965 80.8967 28.0799 80.84 28.4332 80.78C28.7865 80.72 29.1932 80.69 29.6532 80.69C30.0665 80.69 30.4099 80.75 30.6832 80.87C30.9565 80.9833 31.1732 81.1467 31.3332 81.36C31.4999 81.5667 31.6165 81.8167 31.6832 82.11C31.7499 82.4033 31.7832 82.7267 31.7832 83.08V86H30.8532V83.28C30.8532 82.96 30.8299 82.6867 30.7832 82.46C30.7432 82.2333 30.6732 82.05 30.5732 81.91C30.4732 81.77 30.3399 81.67 30.1732 81.61C30.0065 81.5433 29.7999 81.51 29.5532 81.51C29.4532 81.51 29.3499 81.5133 29.2432 81.52C29.1365 81.5267 29.0332 81.5367 28.9332 81.55C28.8399 81.5567 28.7532 81.5667 28.6732 81.58C28.5999 81.5933 28.5465 81.6033 28.5132 81.61V86H27.5832V80.95ZM33.0354 83.41C33.0354 82.95 33.1021 82.55 33.2354 82.21C33.3687 81.8633 33.5454 81.5767 33.7654 81.35C33.9854 81.1233 34.2387 80.9533 34.5254 80.84C34.8121 80.7267 35.1054 80.67 35.4054 80.67C36.1054 80.67 36.6421 80.89 37.0154 81.33C37.3887 81.7633 37.5754 82.4267 37.5754 83.32C37.5754 83.36 37.5754 83.4133 37.5754 83.48C37.5754 83.54 37.5721 83.5967 37.5654 83.65H34.0054C34.0454 84.19 34.2021 84.6 34.4754 84.88C34.7487 85.16 35.1754 85.3 35.7554 85.3C36.0821 85.3 36.3554 85.2733 36.5754 85.22C36.8021 85.16 36.9721 85.1033 37.0854 85.05L37.2154 85.83C37.1021 85.89 36.9021 85.9533 36.6154 86.02C36.3354 86.0867 36.0154 86.12 35.6554 86.12C35.2021 86.12 34.8087 86.0533 34.4754 85.92C34.1487 85.78 33.8787 85.59 33.6654 85.35C33.4521 85.11 33.2921 84.8267 33.1854 84.5C33.0854 84.1667 33.0354 83.8033 33.0354 83.41ZM36.6054 82.9C36.6121 82.48 36.5054 82.1367 36.2854 81.87C36.0721 81.5967 35.7754 81.46 35.3954 81.46C35.1821 81.46 34.9921 81.5033 34.8254 81.59C34.6654 81.67 34.5287 81.7767 34.4154 81.91C34.3021 82.0433 34.2121 82.1967 34.1454 82.37C34.0854 82.5433 34.0454 82.72 34.0254 82.9H36.6054ZM44.8358 83.41C44.8358 82.8033 44.6858 82.3367 44.3858 82.01C44.0858 81.6833 43.6858 81.52 43.1858 81.52C42.9058 81.52 42.6858 81.53 42.5258 81.55C42.3724 81.57 42.2491 81.5933 42.1558 81.62V84.9C42.2691 84.9933 42.4324 85.0833 42.6458 85.17C42.8591 85.2567 43.0924 85.3 43.3458 85.3C43.6124 85.3 43.8391 85.2533 44.0258 85.16C44.2191 85.06 44.3758 84.9267 44.4958 84.76C44.6158 84.5867 44.7024 84.3867 44.7558 84.16C44.8091 83.9267 44.8358 83.6767 44.8358 83.41ZM45.8058 83.41C45.8058 83.8033 45.7524 84.1667 45.6458 84.5C45.5458 84.8333 45.3958 85.12 45.1958 85.36C44.9958 85.6 44.7491 85.7867 44.4558 85.92C44.1691 86.0533 43.8391 86.12 43.4658 86.12C43.1658 86.12 42.8991 86.08 42.6658 86C42.4391 85.92 42.2691 85.8433 42.1558 85.77V87.85H41.2258V80.96C41.4458 80.9067 41.7191 80.85 42.0458 80.79C42.3791 80.7233 42.7624 80.69 43.1958 80.69C43.5958 80.69 43.9558 80.7533 44.2758 80.88C44.5958 81.0067 44.8691 81.1867 45.0958 81.42C45.3224 81.6533 45.4958 81.94 45.6158 82.28C45.7424 82.6133 45.8058 82.99 45.8058 83.41ZM48.6745 86.1C48.1011 86.0867 47.6945 85.9633 47.4545 85.73C47.2145 85.4967 47.0945 85.1333 47.0945 84.64V78.4L48.0245 78.24V84.49C48.0245 84.6433 48.0378 84.77 48.0645 84.87C48.0911 84.97 48.1345 85.05 48.1945 85.11C48.2545 85.17 48.3345 85.2167 48.4345 85.25C48.5345 85.2767 48.6578 85.3 48.8045 85.32L48.6745 86.1ZM51.6088 85.33C51.8288 85.33 52.0222 85.3267 52.1888 85.32C52.3622 85.3067 52.5055 85.2867 52.6188 85.26V83.71C52.5522 83.6767 52.4422 83.65 52.2888 83.63C52.1422 83.6033 51.9622 83.59 51.7488 83.59C51.6088 83.59 51.4588 83.6 51.2988 83.62C51.1455 83.64 51.0022 83.6833 50.8688 83.75C50.7422 83.81 50.6355 83.8967 50.5488 84.01C50.4622 84.1167 50.4188 84.26 50.4188 84.44C50.4188 84.7733 50.5255 85.0067 50.7388 85.14C50.9522 85.2667 51.2422 85.33 51.6088 85.33ZM51.5288 80.67C51.9022 80.67 52.2155 80.72 52.4688 80.82C52.7288 80.9133 52.9355 81.05 53.0888 81.23C53.2488 81.4033 53.3622 81.6133 53.4288 81.86C53.4955 82.1 53.5288 82.3667 53.5288 82.66V85.91C53.4488 85.9233 53.3355 85.9433 53.1888 85.97C53.0488 85.99 52.8888 86.01 52.7088 86.03C52.5288 86.05 52.3322 86.0667 52.1188 86.08C51.9122 86.1 51.7055 86.11 51.4988 86.11C51.2055 86.11 50.9355 86.08 50.6888 86.02C50.4422 85.96 50.2288 85.8667 50.0488 85.74C49.8688 85.6067 49.7288 85.4333 49.6288 85.22C49.5288 85.0067 49.4788 84.75 49.4788 84.45C49.4788 84.1633 49.5355 83.9167 49.6488 83.71C49.7688 83.5033 49.9288 83.3367 50.1288 83.21C50.3288 83.0833 50.5622 82.99 50.8288 82.93C51.0955 82.87 51.3755 82.84 51.6688 82.84C51.7622 82.84 51.8588 82.8467 51.9588 82.86C52.0588 82.8667 52.1522 82.88 52.2388 82.9C52.3322 82.9133 52.4122 82.9267 52.4788 82.94C52.5455 82.9533 52.5922 82.9633 52.6188 82.97V82.71C52.6188 82.5567 52.6022 82.4067 52.5688 82.26C52.5355 82.1067 52.4755 81.9733 52.3888 81.86C52.3022 81.74 52.1822 81.6467 52.0288 81.58C51.8822 81.5067 51.6888 81.47 51.4488 81.47C51.1422 81.47 50.8722 81.4933 50.6388 81.54C50.4122 81.58 50.2422 81.6233 50.1288 81.67L50.0188 80.9C50.1388 80.8467 50.3388 80.7967 50.6188 80.75C50.8988 80.6967 51.2022 80.67 51.5288 80.67ZM57.3334 86.12C56.9134 86.12 56.5434 86.0533 56.2234 85.92C55.9101 85.7867 55.6434 85.6 55.4234 85.36C55.2101 85.12 55.0501 84.8367 54.9434 84.51C54.8368 84.1767 54.7834 83.81 54.7834 83.41C54.7834 83.01 54.8401 82.6433 54.9534 82.31C55.0734 81.9767 55.2401 81.69 55.4534 81.45C55.6668 81.2033 55.9268 81.0133 56.2334 80.88C56.5468 80.74 56.8934 80.67 57.2734 80.67C57.5068 80.67 57.7401 80.69 57.9734 80.73C58.2068 80.77 58.4301 80.8333 58.6434 80.92L58.4334 81.71C58.2934 81.6433 58.1301 81.59 57.9434 81.55C57.7634 81.51 57.5701 81.49 57.3634 81.49C56.8434 81.49 56.4434 81.6533 56.1634 81.98C55.8901 82.3067 55.7534 82.7833 55.7534 83.41C55.7534 83.69 55.7834 83.9467 55.8434 84.18C55.9101 84.4133 56.0101 84.6133 56.1434 84.78C56.2834 84.9467 56.4601 85.0767 56.6734 85.17C56.8868 85.2567 57.1468 85.3 57.4534 85.3C57.7001 85.3 57.9234 85.2767 58.1234 85.23C58.3234 85.1833 58.4801 85.1333 58.5934 85.08L58.7234 85.86C58.6701 85.8933 58.5934 85.9267 58.4934 85.96C58.3934 85.9867 58.2801 86.01 58.1534 86.03C58.0268 86.0567 57.8901 86.0767 57.7434 86.09C57.6034 86.11 57.4668 86.12 57.3334 86.12ZM59.4319 83.41C59.4319 82.95 59.4985 82.55 59.6319 82.21C59.7652 81.8633 59.9419 81.5767 60.1619 81.35C60.3819 81.1233 60.6352 80.9533 60.9219 80.84C61.2085 80.7267 61.5019 80.67 61.8019 80.67C62.5019 80.67 63.0385 80.89 63.4119 81.33C63.7852 81.7633 63.9719 82.4267 63.9719 83.32C63.9719 83.36 63.9719 83.4133 63.9719 83.48C63.9719 83.54 63.9685 83.5967 63.9619 83.65H60.4019C60.4419 84.19 60.5985 84.6 60.8719 84.88C61.1452 85.16 61.5719 85.3 62.1519 85.3C62.4785 85.3 62.7519 85.2733 62.9719 85.22C63.1985 85.16 63.3685 85.1033 63.4819 85.05L63.6119 85.83C63.4985 85.89 63.2985 85.9533 63.0119 86.02C62.7319 86.0867 62.4119 86.12 62.0519 86.12C61.5985 86.12 61.2052 86.0533 60.8719 85.92C60.5452 85.78 60.2752 85.59 60.0619 85.35C59.8485 85.11 59.6885 84.8267 59.5819 84.5C59.4819 84.1667 59.4319 83.8033 59.4319 83.41ZM63.0019 82.9C63.0085 82.48 62.9019 82.1367 62.6819 81.87C62.4685 81.5967 62.1719 81.46 61.7919 81.46C61.5785 81.46 61.3885 81.5033 61.2219 81.59C61.0619 81.67 60.9252 81.7767 60.8119 81.91C60.6985 82.0433 60.6085 82.1967 60.5419 82.37C60.4819 82.5433 60.4419 82.72 60.4219 82.9H63.0019ZM71.8723 86C71.6856 85.52 71.4856 84.9733 71.2723 84.36C71.0656 83.74 70.8756 83.0967 70.7023 82.43C70.5289 83.0967 70.3389 83.74 70.1323 84.36C69.9256 84.9733 69.7289 85.52 69.5423 86H68.7323C68.4256 85.3133 68.1256 84.53 67.8323 83.65C67.5389 82.77 67.2623 81.82 67.0023 80.8H68.0023C68.0689 81.1133 68.1489 81.4533 68.2423 81.82C68.3356 82.1867 68.4323 82.5533 68.5323 82.92C68.6389 83.2867 68.7489 83.64 68.8623 83.98C68.9756 84.32 69.0823 84.6167 69.1823 84.87C69.2956 84.5567 69.4056 84.2267 69.5123 83.88C69.6256 83.5267 69.7323 83.1733 69.8323 82.82C69.9323 82.46 70.0256 82.11 70.1123 81.77C70.2056 81.4233 70.2856 81.1 70.3523 80.8H71.1223C71.1823 81.1 71.2556 81.4233 71.3423 81.77C71.4289 82.11 71.5223 82.46 71.6223 82.82C71.7223 83.1733 71.8256 83.5267 71.9323 83.88C72.0456 84.2267 72.1589 84.5567 72.2723 84.87C72.3723 84.6167 72.4756 84.32 72.5823 83.98C72.6956 83.64 72.8056 83.2867 72.9123 82.92C73.0189 82.5533 73.1189 82.1867 73.2123 81.82C73.3056 81.4533 73.3856 81.1133 73.4523 80.8H74.4123C74.1523 81.82 73.8756 82.77 73.5823 83.65C73.2889 84.53 72.9889 85.3133 72.6823 86H71.8723ZM76.3257 86H75.3957V80.8H76.3257V86ZM75.8557 79.86C75.689 79.86 75.5457 79.8067 75.4257 79.7C75.3124 79.5867 75.2557 79.4367 75.2557 79.25C75.2557 79.0633 75.3124 78.9167 75.4257 78.81C75.5457 78.6967 75.689 78.64 75.8557 78.64C76.0224 78.64 76.1624 78.6967 76.2757 78.81C76.3957 78.9167 76.4557 79.0633 76.4557 79.25C76.4557 79.4367 76.3957 79.5867 76.2757 79.7C76.1624 79.8067 76.0224 79.86 75.8557 79.86ZM78.795 80.8H80.765V81.58H78.795V83.98C78.795 84.24 78.815 84.4567 78.855 84.63C78.895 84.7967 78.955 84.93 79.035 85.03C79.115 85.1233 79.215 85.19 79.335 85.23C79.455 85.27 79.595 85.29 79.755 85.29C80.035 85.29 80.2583 85.26 80.425 85.2C80.5983 85.1333 80.7183 85.0867 80.785 85.06L80.965 85.83C80.8717 85.8767 80.7083 85.9333 80.475 86C80.2417 86.0733 79.975 86.11 79.675 86.11C79.3217 86.11 79.0283 86.0667 78.795 85.98C78.5683 85.8867 78.385 85.75 78.245 85.57C78.105 85.39 78.005 85.17 77.945 84.91C77.8917 84.6433 77.865 84.3367 77.865 83.99V79.35L78.795 79.19V80.8ZM81.9484 86V78.4L82.8784 78.24V80.9C83.0518 80.8333 83.2351 80.7833 83.4284 80.75C83.6284 80.71 83.8251 80.69 84.0184 80.69C84.4318 80.69 84.7751 80.75 85.0484 80.87C85.3218 80.9833 85.5384 81.1467 85.6984 81.36C85.8651 81.5667 85.9818 81.8167 86.0484 82.11C86.1151 82.4033 86.1484 82.7267 86.1484 83.08V86H85.2184V83.28C85.2184 82.96 85.1951 82.6867 85.1484 82.46C85.1084 82.2333 85.0384 82.05 84.9384 81.91C84.8384 81.77 84.7051 81.67 84.5384 81.61C84.3718 81.5433 84.1651 81.51 83.9184 81.51C83.8184 81.51 83.7151 81.5167 83.6084 81.53C83.5018 81.5433 83.3984 81.56 83.2984 81.58C83.2051 81.5933 83.1184 81.61 83.0384 81.63C82.9651 81.65 82.9118 81.6667 82.8784 81.68V86H81.9484ZM91.7358 85.33C91.9558 85.33 92.1491 85.3267 92.3158 85.32C92.4891 85.3067 92.6324 85.2867 92.7458 85.26V83.71C92.6791 83.6767 92.5691 83.65 92.4158 83.63C92.2691 83.6033 92.0891 83.59 91.8758 83.59C91.7358 83.59 91.5858 83.6 91.4258 83.62C91.2724 83.64 91.1291 83.6833 90.9958 83.75C90.8691 83.81 90.7624 83.8967 90.6758 84.01C90.5891 84.1167 90.5458 84.26 90.5458 84.44C90.5458 84.7733 90.6524 85.0067 90.8658 85.14C91.0791 85.2667 91.3691 85.33 91.7358 85.33ZM91.6558 80.67C92.0291 80.67 92.3424 80.72 92.5958 80.82C92.8558 80.9133 93.0624 81.05 93.2158 81.23C93.3758 81.4033 93.4891 81.6133 93.5558 81.86C93.6224 82.1 93.6558 82.3667 93.6558 82.66V85.91C93.5758 85.9233 93.4624 85.9433 93.3158 85.97C93.1758 85.99 93.0158 86.01 92.8358 86.03C92.6558 86.05 92.4591 86.0667 92.2458 86.08C92.0391 86.1 91.8324 86.11 91.6258 86.11C91.3324 86.11 91.0624 86.08 90.8158 86.02C90.5691 85.96 90.3558 85.8667 90.1758 85.74C89.9958 85.6067 89.8558 85.4333 89.7558 85.22C89.6558 85.0067 89.6058 84.75 89.6058 84.45C89.6058 84.1633 89.6624 83.9167 89.7758 83.71C89.8958 83.5033 90.0558 83.3367 90.2558 83.21C90.4558 83.0833 90.6891 82.99 90.9558 82.93C91.2224 82.87 91.5024 82.84 91.7958 82.84C91.8891 82.84 91.9858 82.8467 92.0858 82.86C92.1858 82.8667 92.2791 82.88 92.3658 82.9C92.4591 82.9133 92.5391 82.9267 92.6058 82.94C92.6724 82.9533 92.7191 82.9633 92.7458 82.97V82.71C92.7458 82.5567 92.7291 82.4067 92.6958 82.26C92.6624 82.1067 92.6024 81.9733 92.5158 81.86C92.4291 81.74 92.3091 81.6467 92.1558 81.58C92.0091 81.5067 91.8158 81.47 91.5758 81.47C91.2691 81.47 90.9991 81.4933 90.7658 81.54C90.5391 81.58 90.3691 81.6233 90.2558 81.67L90.1458 80.9C90.2658 80.8467 90.4658 80.7967 90.7458 80.75C91.0258 80.6967 91.3291 80.67 91.6558 80.67ZM96.7604 86.1C96.1871 86.0867 95.7804 85.9633 95.5404 85.73C95.3004 85.4967 95.1804 85.1333 95.1804 84.64V78.4L96.1104 78.24V84.49C96.1104 84.6433 96.1237 84.77 96.1504 84.87C96.1771 84.97 96.2204 85.05 96.2804 85.11C96.3404 85.17 96.4204 85.2167 96.5204 85.25C96.6204 85.2767 96.7437 85.3 96.8904 85.32L96.7604 86.1ZM99.4948 86.1C98.9214 86.0867 98.5148 85.9633 98.2748 85.73C98.0348 85.4967 97.9148 85.1333 97.9148 84.64V78.4L98.8448 78.24V84.49C98.8448 84.6433 98.8581 84.77 98.8848 84.87C98.9114 84.97 98.9548 85.05 99.0148 85.11C99.0748 85.17 99.1548 85.2167 99.2548 85.25C99.3548 85.2767 99.4781 85.3 99.6248 85.32L99.4948 86.1ZM106.594 83.41C106.594 82.8033 106.444 82.3367 106.144 82.01C105.844 81.6833 105.444 81.52 104.944 81.52C104.664 81.52 104.444 81.53 104.284 81.55C104.13 81.57 104.007 81.5933 103.914 81.62V84.9C104.027 84.9933 104.19 85.0833 104.404 85.17C104.617 85.2567 104.85 85.3 105.104 85.3C105.37 85.3 105.597 85.2533 105.784 85.16C105.977 85.06 106.134 84.9267 106.254 84.76C106.374 84.5867 106.46 84.3867 106.514 84.16C106.567 83.9267 106.594 83.6767 106.594 83.41ZM107.564 83.41C107.564 83.8033 107.51 84.1667 107.404 84.5C107.304 84.8333 107.154 85.12 106.954 85.36C106.754 85.6 106.507 85.7867 106.214 85.92C105.927 86.0533 105.597 86.12 105.224 86.12C104.924 86.12 104.657 86.08 104.424 86C104.197 85.92 104.027 85.8433 103.914 85.77V87.85H102.984V80.96C103.204 80.9067 103.477 80.85 103.804 80.79C104.137 80.7233 104.52 80.69 104.954 80.69C105.354 80.69 105.714 80.7533 106.034 80.88C106.354 81.0067 106.627 81.1867 106.854 81.42C107.08 81.6533 107.254 81.94 107.374 82.28C107.5 82.6133 107.564 82.99 107.564 83.41ZM110.792 80.69C110.872 80.69 110.962 80.6967 111.062 80.71C111.169 80.7167 111.272 80.73 111.372 80.75C111.472 80.7633 111.562 80.78 111.642 80.8C111.729 80.8133 111.792 80.8267 111.832 80.84L111.672 81.65C111.599 81.6233 111.476 81.5933 111.302 81.56C111.136 81.52 110.919 81.5 110.652 81.5C110.479 81.5 110.306 81.52 110.132 81.56C109.966 81.5933 109.856 81.6167 109.802 81.63V86H108.872V81.02C109.092 80.94 109.366 80.8667 109.692 80.8C110.019 80.7267 110.386 80.69 110.792 80.69ZM113.66 86H112.73V80.8H113.66V86ZM113.19 79.86C113.023 79.86 112.88 79.8067 112.76 79.7C112.646 79.5867 112.59 79.4367 112.59 79.25C112.59 79.0633 112.646 78.9167 112.76 78.81C112.88 78.6967 113.023 78.64 113.19 78.64C113.356 78.64 113.496 78.6967 113.61 78.81C113.73 78.9167 113.79 79.0633 113.79 79.25C113.79 79.4367 113.73 79.5867 113.61 79.7C113.496 79.8067 113.356 79.86 113.19 79.86ZM117.519 86.12C117.099 86.12 116.729 86.0533 116.409 85.92C116.096 85.7867 115.829 85.6 115.609 85.36C115.396 85.12 115.236 84.8367 115.129 84.51C115.022 84.1767 114.969 83.81 114.969 83.41C114.969 83.01 115.026 82.6433 115.139 82.31C115.259 81.9767 115.426 81.69 115.639 81.45C115.852 81.2033 116.112 81.0133 116.419 80.88C116.732 80.74 117.079 80.67 117.459 80.67C117.692 80.67 117.926 80.69 118.159 80.73C118.392 80.77 118.616 80.8333 118.829 80.92L118.619 81.71C118.479 81.6433 118.316 81.59 118.129 81.55C117.949 81.51 117.756 81.49 117.549 81.49C117.029 81.49 116.629 81.6533 116.349 81.98C116.076 82.3067 115.939 82.7833 115.939 83.41C115.939 83.69 115.969 83.9467 116.029 84.18C116.096 84.4133 116.196 84.6133 116.329 84.78C116.469 84.9467 116.646 85.0767 116.859 85.17C117.072 85.2567 117.332 85.3 117.639 85.3C117.886 85.3 118.109 85.2767 118.309 85.23C118.509 85.1833 118.666 85.1333 118.779 85.08L118.909 85.86C118.856 85.8933 118.779 85.9267 118.679 85.96C118.579 85.9867 118.466 86.01 118.339 86.03C118.212 86.0567 118.076 86.0767 117.929 86.09C117.789 86.11 117.652 86.12 117.519 86.12ZM119.617 83.41C119.617 82.95 119.684 82.55 119.817 82.21C119.951 81.8633 120.127 81.5767 120.347 81.35C120.567 81.1233 120.821 80.9533 121.107 80.84C121.394 80.7267 121.687 80.67 121.987 80.67C122.687 80.67 123.224 80.89 123.597 81.33C123.971 81.7633 124.157 82.4267 124.157 83.32C124.157 83.36 124.157 83.4133 124.157 83.48C124.157 83.54 124.154 83.5967 124.147 83.65H120.587C120.627 84.19 120.784 84.6 121.057 84.88C121.331 85.16 121.757 85.3 122.337 85.3C122.664 85.3 122.937 85.2733 123.157 85.22C123.384 85.16 123.554 85.1033 123.667 85.05L123.797 85.83C123.684 85.89 123.484 85.9533 123.197 86.02C122.917 86.0867 122.597 86.12 122.237 86.12C121.784 86.12 121.391 86.0533 121.057 85.92C120.731 85.78 120.461 85.59 120.247 85.35C120.034 85.11 119.874 84.8267 119.767 84.5C119.667 84.1667 119.617 83.8033 119.617 83.41ZM123.187 82.9C123.194 82.48 123.087 82.1367 122.867 81.87C122.654 81.5967 122.357 81.46 121.977 81.46C121.764 81.46 121.574 81.5033 121.407 81.59C121.247 81.67 121.111 81.7767 120.997 81.91C120.884 82.0433 120.794 82.1967 120.727 82.37C120.667 82.5433 120.627 82.72 120.607 82.9H123.187ZM126.703 85.33C127.083 85.33 127.363 85.28 127.543 85.18C127.73 85.08 127.823 84.92 127.823 84.7C127.823 84.4733 127.733 84.2933 127.553 84.16C127.373 84.0267 127.077 83.8767 126.663 83.71C126.463 83.63 126.27 83.55 126.083 83.47C125.903 83.3833 125.747 83.2833 125.613 83.17C125.48 83.0567 125.373 82.92 125.293 82.76C125.213 82.6 125.173 82.4033 125.173 82.17C125.173 81.71 125.343 81.3467 125.683 81.08C126.023 80.8067 126.487 80.67 127.073 80.67C127.22 80.67 127.367 80.68 127.513 80.7C127.66 80.7133 127.797 80.7333 127.923 80.76C128.05 80.78 128.16 80.8033 128.253 80.83C128.353 80.8567 128.43 80.88 128.483 80.9L128.313 81.7C128.213 81.6467 128.057 81.5933 127.843 81.54C127.63 81.48 127.373 81.45 127.073 81.45C126.813 81.45 126.587 81.5033 126.393 81.61C126.2 81.71 126.103 81.87 126.103 82.09C126.103 82.2033 126.123 82.3033 126.163 82.39C126.21 82.4767 126.277 82.5567 126.363 82.63C126.457 82.6967 126.57 82.76 126.703 82.82C126.837 82.88 126.997 82.9433 127.183 83.01C127.43 83.1033 127.65 83.1967 127.843 83.29C128.037 83.3767 128.2 83.48 128.333 83.6C128.473 83.72 128.58 83.8667 128.653 84.04C128.727 84.2067 128.763 84.4133 128.763 84.66C128.763 85.14 128.583 85.5033 128.223 85.75C127.87 85.9967 127.363 86.12 126.703 86.12C126.243 86.12 125.883 86.08 125.623 86C125.363 85.9267 125.187 85.87 125.093 85.83L125.263 85.03C125.37 85.07 125.54 85.13 125.773 85.21C126.007 85.29 126.317 85.33 126.703 85.33ZM131.056 85.46C131.056 85.64 130.996 85.7967 130.876 85.93C130.756 86.0633 130.593 86.13 130.386 86.13C130.18 86.13 130.016 86.0633 129.896 85.93C129.776 85.7967 129.716 85.64 129.716 85.46C129.716 85.28 129.776 85.1233 129.896 84.99C130.016 84.8567 130.18 84.79 130.386 84.79C130.593 84.79 130.756 84.8567 130.876 84.99C130.996 85.1233 131.056 85.28 131.056 85.46Z" fill="white"/>
</svg>
