<svg id="Layer_1" data-name="Layer 1" xmlns="http://www.w3.org/2000/svg" viewBox="0 0 997 768"><defs><style>.cls-1{fill:#4acbc5;}.cls-2{fill:#404553;}</style></defs><title>logo</title><path class="cls-1" d="M406.53,350.34a5.91,5.91,0,1,0,5.87,6A6,6,0,0,0,406.53,350.34Z"/><path class="cls-1" d="M443.45,415.66a5.91,5.91,0,1,0,5.86,6A6,6,0,0,0,443.45,415.66Zm-15.31,0a5.91,5.91,0,1,0,5.87,6A6,6,0,0,0,428.14,415.66Z"/><path class="cls-1" d="M447.44,368v24.24c0,9.69-6.29,15.9-17.18,15.9h-17.6C411,420,401,424.51,392.5,424.51a28.55,28.55,0,0,1-11.57-2.81L376,410.56a26.52,26.52,0,0,0,14.29,4.34c6.55,0,11.65-4.68,11.65-12.42V374.07l11-3.57v27.64h17c4.17,0,6.55-2.13,6.55-6.46V371.52Z"/><path class="cls-1" d="M468.45,408.09H457.39V355.87l11.06-3.57Z"/><path class="cls-1" d="M496.94,408.69c-11.65,0-18.54-9.53-18.54-20.42,0-11.14,6.72-20.58,18.54-20.58,13.78,0,18.46,9.78,18.46,22.46v14.28c0,14.72-9.87,20.08-19.22,20.08-3.4,0-9.19-1.19-12.16-2.81l-4.94-11.14c5.79,4,13,4.34,14.89,4.34,5,0,9.27-2.13,10.54-7.74A15.51,15.51,0,0,1,496.94,408.69Zm0-31.3c-4.25,0-7.57,4.42-7.57,10.88s3.32,10.64,7.57,10.64,7.57-4.17,7.57-10.64S501.2,377.39,496.94,377.39Z"/><path class="cls-2" d="M668.83,415.66a5.91,5.91,0,1,0,5.87,6A6,6,0,0,0,668.83,415.66Zm-15.31,0a5.91,5.91,0,1,0,5.87,6A6,6,0,0,0,653.52,415.66Z"/><path class="cls-2" d="M672.83,368v24.24c0,9.69-6.29,15.9-17.18,15.9H589.9c-2.21,10-11.9,16.59-25.51,16.42-21.52-.17-28.66-11.66-27.73-33.17l10.89-3.24s-.09,5.79,0,10.3c.25,11.39,6.89,15.82,16.92,15.82,8.08,0,14.72-4.51,14.72-12.68v-23.9l11.14-3.4v23.9h12.42V374.41l11-3.57v27.3h12.67V371.52L637.45,368l-.09,30.19h17.95c4.17,0,6.55-2.13,6.55-6.46V371.52Z"/><path class="cls-2" d="M693.84,408.09H682.78V355.87l11.06-3.57Z"/><path class="cls-2" d="M754.56,415.66a5.91,5.91,0,1,0,5.87,6A6,6,0,0,0,754.56,415.66Z"/><path class="cls-2" d="M766.3,368v24.24c0,9.69-6.29,15.9-17.18,15.9h-17.6c-1.71,11.91-11.66,16.42-20.16,16.42a28.55,28.55,0,0,1-11.57-2.81l-4.93-11.14a26.52,26.52,0,0,0,14.29,4.34c6.55,0,11.65-4.68,11.65-12.42V374.07l11-3.57v27.64h17c4.17,0,6.55-2.13,6.55-6.46V371.52Z"/></svg>