<svg width="141" height="59" viewBox="0 0 141 59" fill="none" xmlns="http://www.w3.org/2000/svg">
<path d="M7.552 33.752V39H1.92V19H10.72C12.4267 19 13.8027 19.2453 14.848 19.736C15.9147 20.2053 16.6827 20.9733 17.152 22.04C17.6427 23.1067 17.888 24.504 17.888 26.232C17.888 28.8133 17.344 30.712 16.256 31.928C15.1893 33.144 13.504 33.752 11.2 33.752H7.552ZM7.552 29.624H10.496C11.0507 29.624 11.4347 29.528 11.648 29.336C11.8827 29.144 12 28.792 12 28.28V24.984C12 24.472 11.8827 24.12 11.648 23.928C11.4347 23.736 11.0507 23.64 10.496 23.64H7.552V29.624ZM23.1415 23L24.7415 25.208C25.4455 24.504 26.1815 23.9387 26.9495 23.512C27.7175 23.064 28.5282 22.7333 29.3815 22.52L29.7655 27.992C29.4242 28.0347 28.9975 28.1413 28.4855 28.312C27.9735 28.4827 27.4935 28.6747 27.0455 28.888C26.5975 29.08 26.2455 29.272 25.9895 29.464V39H20.3575V23H23.1415ZM31.92 23.672L37.552 22.936V39H31.92V23.672ZM34.736 21.304C33.5627 21.304 32.752 21.1013 32.304 20.696C31.8773 20.2693 31.664 19.4693 31.664 18.296C31.664 17.1013 31.8773 16.2907 32.304 15.864C32.752 15.4373 33.5627 15.224 34.736 15.224C35.888 15.224 36.6773 15.4373 37.104 15.864C37.5307 16.2907 37.744 17.1013 37.744 18.296C37.744 19.4693 37.5413 20.2693 37.136 20.696C36.7307 21.1013 35.9307 21.304 34.736 21.304ZM47.5655 39.448C46.3282 39.448 45.2722 39.2987 44.3975 39C43.5228 38.68 42.8082 38.1787 42.2535 37.496C41.6988 36.8133 41.2828 35.9387 41.0055 34.872C40.7495 33.8053 40.6215 32.5147 40.6215 31C40.6215 29.4853 40.7495 28.1947 41.0055 27.128C41.2828 26.04 41.6988 25.1653 42.2535 24.504C42.8082 23.8213 43.5228 23.3307 44.3975 23.032C45.2722 22.712 46.3282 22.552 47.5655 22.552C48.1842 22.552 48.8348 22.584 49.5175 22.648C50.2215 22.712 50.8828 22.7867 51.5015 22.872C52.1202 22.9573 52.6108 23.064 52.9735 23.192L52.4615 27.16C51.9068 26.9893 51.3415 26.872 50.7655 26.808C50.2108 26.744 49.6135 26.712 48.9735 26.712C48.1202 26.712 47.5228 26.8933 47.1815 27.256C46.8402 27.6187 46.6695 28.248 46.6695 29.144V35.096C47.0962 35.224 47.7682 35.288 48.6855 35.288C49.4108 35.288 50.1042 35.224 50.7655 35.096C51.4268 34.9467 52.0988 34.7333 52.7815 34.456L53.2935 38.392C52.4402 38.7333 51.5228 38.9893 50.5415 39.16C49.5815 39.352 48.5895 39.448 47.5655 39.448ZM62.9638 39.448C61.5771 39.448 60.3824 39.288 59.3798 38.968C58.3771 38.648 57.5558 38.1467 56.9158 37.464C56.2758 36.7813 55.7958 35.9067 55.4758 34.84C55.1771 33.7733 55.0278 32.4933 55.0278 31C55.0278 28.9947 55.3051 27.3733 55.8598 26.136C56.4358 24.8987 57.3104 23.992 58.4838 23.416C59.6784 22.84 61.2144 22.552 63.0918 22.552C64.9691 22.552 66.4304 22.712 67.4758 23.032C68.5211 23.352 69.2571 23.896 69.6838 24.664C70.1318 25.432 70.3558 26.488 70.3558 27.832C70.3558 28.8347 70.1958 29.6773 69.8758 30.36C69.5771 31.0213 69.0758 31.5547 68.3718 31.96C67.6678 32.3653 66.7184 32.6533 65.5238 32.824C64.3291 32.9947 62.8464 33.08 61.0758 33.08H60.1158V30.136H62.9638C63.8384 30.136 64.4358 30.04 64.7558 29.848C65.0971 29.6347 65.2678 29.2507 65.2678 28.696V26.712H63.3798C62.5051 26.712 61.8971 26.808 61.5558 27C61.2358 27.192 61.0758 27.5547 61.0758 28.088V35.096C61.3744 35.16 61.7158 35.2133 62.0998 35.256C62.5051 35.2773 63.0064 35.288 63.6038 35.288C64.4998 35.288 65.4064 35.224 66.3238 35.096C67.2411 34.9467 68.2118 34.7333 69.2358 34.456L69.9398 38.392C68.8944 38.7333 67.7851 38.9893 66.6118 39.16C65.4384 39.352 64.2224 39.448 62.9638 39.448ZM85.859 39L82.563 23H86.691L88.867 34.104H89.187L91.107 23H96.611L93.379 39H85.859ZM75.235 39L72.003 23H77.507L79.427 34.104H79.747L81.891 23H86.051L82.723 39H75.235ZM98.6388 23.672L104.271 22.936V39H98.6388V23.672ZM101.455 21.304C100.281 21.304 99.4708 21.1013 99.0228 20.696C98.5961 20.2693 98.3828 19.4693 98.3828 18.296C98.3828 17.1013 98.5961 16.2907 99.0228 15.864C99.4708 15.4373 100.281 15.224 101.455 15.224C102.607 15.224 103.396 15.4373 103.823 15.864C104.249 16.2907 104.463 17.1013 104.463 18.296C104.463 19.4693 104.26 20.2693 103.855 20.696C103.449 21.1013 102.649 21.304 101.455 21.304ZM107.372 27.768C107.372 25.976 107.927 24.6533 109.036 23.8C110.146 22.9467 111.884 22.52 114.252 22.52C115.404 22.52 116.535 22.584 117.644 22.712C118.754 22.8187 119.799 22.9893 120.78 23.224L120.108 27.128C119.575 26.9787 118.988 26.872 118.348 26.808C117.708 26.744 117.036 26.712 116.332 26.712C115.778 26.712 115.234 26.744 114.7 26.808C114.188 26.8507 113.751 26.9147 113.388 27V28.792C114.967 28.9627 116.279 29.1867 117.324 29.464C118.37 29.72 119.202 30.0613 119.82 30.488C120.439 30.8933 120.887 31.3947 121.164 31.992C121.442 32.568 121.58 33.2827 121.58 34.136C121.58 35.3733 121.303 36.3867 120.748 37.176C120.215 37.9653 119.383 38.552 118.252 38.936C117.122 39.2987 115.65 39.48 113.836 39.48C112.663 39.48 111.49 39.384 110.316 39.192C109.143 39.0213 108.076 38.7653 107.116 38.424L107.852 34.328C109.388 34.968 111.106 35.288 113.004 35.288C113.367 35.288 113.751 35.2667 114.156 35.224C114.562 35.1813 115.02 35.1067 115.532 35V33.144C113.868 32.952 112.503 32.7387 111.436 32.504C110.391 32.248 109.57 31.928 108.972 31.544C108.375 31.1387 107.959 30.6373 107.724 30.04C107.49 29.4213 107.372 28.664 107.372 27.768ZM131.62 39.448C130.233 39.448 129.039 39.288 128.036 38.968C127.033 38.648 126.212 38.1467 125.572 37.464C124.932 36.7813 124.452 35.9067 124.132 34.84C123.833 33.7733 123.684 32.4933 123.684 31C123.684 28.9947 123.961 27.3733 124.516 26.136C125.092 24.8987 125.967 23.992 127.14 23.416C128.335 22.84 129.871 22.552 131.748 22.552C133.625 22.552 135.087 22.712 136.132 23.032C137.177 23.352 137.913 23.896 138.34 24.664C138.788 25.432 139.012 26.488 139.012 27.832C139.012 28.8347 138.852 29.6773 138.532 30.36C138.233 31.0213 137.732 31.5547 137.028 31.96C136.324 32.3653 135.375 32.6533 134.18 32.824C132.985 32.9947 131.503 33.08 129.732 33.08H128.772V30.136H131.62C132.495 30.136 133.092 30.04 133.412 29.848C133.753 29.6347 133.924 29.2507 133.924 28.696V26.712H132.036C131.161 26.712 130.553 26.808 130.212 27C129.892 27.192 129.732 27.5547 129.732 28.088V35.096C130.031 35.16 130.372 35.2133 130.756 35.256C131.161 35.2773 131.663 35.288 132.26 35.288C133.156 35.288 134.063 35.224 134.98 35.096C135.897 34.9467 136.868 34.7333 137.892 34.456L138.596 38.392C137.551 38.7333 136.441 38.9893 135.268 39.16C134.095 39.352 132.879 39.448 131.62 39.448Z" fill="url(#paint0_radial_628_55)"/>
<defs>
<radialGradient id="paint0_radial_628_55" cx="0" cy="0" r="1" gradientUnits="userSpaceOnUse" gradientTransform="translate(-85.5582 3.1077e-05) rotate(9.63035) scale(352.679 460.763)">
<stop stop-color="#404553"/>
<stop offset="0.849568" stop-color="#80D0C7"/>
</radialGradient>
</defs>
</svg>
