<svg width="150" height="150" viewBox="0 0 150 150" fill="none" xmlns="http://www.w3.org/2000/svg">
<rect width="150" height="150" fill="#222831"/>
<path d="M38.5225 93.4892V98.5342H41.045C41.3907 98.5342 41.7159 98.4697 42.0206 98.3408C42.3252 98.206 42.5918 98.0244 42.8204 97.7959C43.0489 97.5674 43.2276 97.3008 43.3565 96.9961C43.4913 96.6855 43.5586 96.3574 43.5586 96.0117C43.5586 95.666 43.4913 95.3408 43.3565 95.0361C43.2276 94.7256 43.0489 94.456 42.8204 94.2275C42.5918 93.999 42.3252 93.8203 42.0206 93.6914C41.7159 93.5566 41.3907 93.4892 41.045 93.4892H38.5225ZM38.5225 103.57H36V90.9668H41.045C41.5079 90.9668 41.9532 91.0283 42.3809 91.1514C42.8086 91.2685 43.2071 91.4385 43.5762 91.6611C43.9512 91.8779 44.2911 92.1416 44.5957 92.4521C44.9063 92.7568 45.17 93.0967 45.3868 93.4717C45.6094 93.8467 45.7793 94.248 45.8965 94.6758C46.0196 95.1035 46.0811 95.5488 46.0811 96.0117C46.0811 96.7031 45.9493 97.3564 45.6856 97.9717C45.4219 98.581 45.0616 99.1142 44.6045 99.5713C44.1475 100.028 43.6114 100.389 42.9961 100.652C42.3868 100.916 41.7364 101.048 41.045 101.048H38.5225V103.57ZM49.711 103.57H47.3116V94.1572H47.8916L48.6827 95.2734C49.0694 94.9219 49.5088 94.6523 50.001 94.4648C50.4932 94.2715 51.003 94.1748 51.5303 94.1748H53.6485V96.5654H51.5303C51.2784 96.5654 51.0411 96.6123 50.8184 96.706C50.5957 96.7998 50.4024 96.9287 50.2383 97.0928C50.0743 97.2568 49.9454 97.4502 49.8516 97.6728C49.7579 97.8955 49.711 98.1328 49.711 98.3848V103.57ZM57.5948 91.5996C57.5948 91.8223 57.5508 92.0303 57.4629 92.2236C57.3809 92.417 57.2666 92.5869 57.1202 92.7334C56.9737 92.874 56.8008 92.9883 56.6016 93.0762C56.4082 93.1582 56.2002 93.1992 55.9776 93.1992C55.7549 93.1992 55.544 93.1582 55.3448 93.0762C55.1514 92.9883 54.9815 92.874 54.835 92.7334C54.6944 92.5869 54.5801 92.417 54.4922 92.2236C54.4102 92.0303 54.3692 91.8223 54.3692 91.5996C54.3692 91.3828 54.4102 91.1777 54.4922 90.9844C54.5801 90.7851 54.6944 90.6152 54.835 90.4746C54.9815 90.3281 55.1514 90.2139 55.3448 90.1318C55.544 90.0439 55.7549 90 55.9776 90C56.2002 90 56.4082 90.0439 56.6016 90.1318C56.8008 90.2139 56.9737 90.3281 57.1202 90.4746C57.2666 90.6152 57.3809 90.7851 57.4629 90.9844C57.5508 91.1777 57.5948 91.3828 57.5948 91.5996ZM57.1817 103.57H54.7647V94.1572H57.1817V103.57ZM67.2452 96.0293L65.4873 97.7959C65.3995 97.5498 65.2793 97.3301 65.127 97.1367C64.9747 96.9375 64.8018 96.7705 64.6084 96.6357C64.4209 96.501 64.2159 96.3984 63.9932 96.3281C63.7706 96.2578 63.542 96.2226 63.3077 96.2226C62.9795 96.2226 62.669 96.29 62.376 96.4248C62.0889 96.5596 61.837 96.75 61.6202 96.9961C61.4092 97.2363 61.2422 97.5234 61.1192 97.8574C60.9961 98.1914 60.9346 98.5605 60.9346 98.9648C60.9346 99.293 60.9961 99.6006 61.1192 99.8877C61.2422 100.175 61.4092 100.427 61.6202 100.643C61.837 100.86 62.0889 101.03 62.376 101.153C62.669 101.276 62.9795 101.338 63.3077 101.338C63.542 101.338 63.7676 101.306 63.9844 101.241C64.2012 101.177 64.4034 101.086 64.5909 100.969C64.7842 100.846 64.9541 100.699 65.1006 100.529C65.253 100.354 65.376 100.16 65.4698 99.9492L67.2276 101.716C67.0049 102.032 66.7471 102.316 66.4541 102.568C66.167 102.82 65.8536 103.034 65.5137 103.21C65.1797 103.386 64.8252 103.518 64.4502 103.606C64.0811 103.699 63.7002 103.746 63.3077 103.746C62.6456 103.746 62.0215 103.623 61.4356 103.377C60.8555 103.125 60.3457 102.782 59.9063 102.349C59.4727 101.915 59.1299 101.408 58.878 100.828C58.626 100.248 58.5 99.6269 58.5 98.9648C58.5 98.2441 58.626 97.5703 58.878 96.9433C59.1299 96.3164 59.4727 95.7715 59.9063 95.3086C60.3457 94.8398 60.8555 94.4707 61.4356 94.2012C62.0215 93.9316 62.6456 93.7969 63.3077 93.7969C63.7002 93.7969 64.084 93.8467 64.459 93.9463C64.8399 94.0459 65.2002 94.1924 65.5401 94.3857C65.8858 94.5732 66.2022 94.8047 66.4893 95.0801C66.7823 95.3555 67.0342 95.6719 67.2452 96.0293ZM72.0264 101.268C72.1202 101.297 72.2139 101.317 72.3077 101.329C72.4014 101.335 72.4952 101.338 72.5889 101.338C72.8233 101.338 73.0489 101.306 73.2657 101.241C73.4825 101.177 73.6846 101.086 73.8721 100.969C74.0655 100.846 74.2354 100.699 74.3819 100.529C74.5342 100.354 74.6573 100.16 74.751 99.9492L76.5088 101.716C76.2862 102.032 76.0284 102.316 75.7354 102.568C75.4483 102.82 75.1348 103.034 74.795 103.21C74.461 103.386 74.1065 103.518 73.7315 103.606C73.3623 103.699 72.9815 103.746 72.5889 103.746C71.9268 103.746 71.3028 103.623 70.7168 103.377C70.1368 103.131 69.627 102.788 69.1875 102.349C68.754 101.909 68.4112 101.388 68.1592 100.784C67.9073 100.175 67.7813 99.5068 67.7813 98.7803C67.7813 98.0361 67.9073 97.3564 68.1592 96.7412C68.4112 96.126 68.754 95.6015 69.1875 95.168C69.627 94.7344 70.1368 94.3974 70.7168 94.1572C71.3028 93.917 71.9268 93.7969 72.5889 93.7969C72.9815 93.7969 73.3653 93.8437 73.7403 93.9375C74.1153 94.0312 74.4698 94.166 74.8038 94.3418C75.1436 94.5176 75.46 94.7344 75.753 94.9922C76.0459 95.2441 76.3038 95.5283 76.5264 95.8447L72.0264 101.268ZM73.2569 96.3193C73.1456 96.2783 73.0342 96.2519 72.9229 96.2402C72.8174 96.2285 72.7061 96.2226 72.5889 96.2226C72.2608 96.2226 71.9502 96.2842 71.6573 96.4072C71.3702 96.5244 71.1182 96.6943 70.9014 96.917C70.6905 97.1396 70.5235 97.4092 70.4004 97.7256C70.2774 98.0361 70.2159 98.3877 70.2159 98.7803C70.2159 98.8682 70.2188 98.9678 70.2247 99.0791C70.2364 99.1904 70.251 99.3047 70.2686 99.4219C70.292 99.5332 70.3184 99.6416 70.3477 99.7471C70.377 99.8525 70.4151 99.9463 70.462 100.028L73.2569 96.3193ZM89.6221 100.169C89.6221 100.661 89.5284 101.127 89.3409 101.566C89.1534 102 88.8956 102.378 88.5674 102.7C88.2452 103.022 87.8643 103.277 87.4249 103.465C86.9913 103.652 86.5254 103.746 86.0274 103.746C85.5821 103.746 85.1543 103.67 84.7442 103.518C84.334 103.359 83.962 103.131 83.628 102.832C83.2999 103.131 82.9307 103.359 82.5206 103.518C82.1163 103.67 81.6885 103.746 81.2373 103.746C80.7393 103.746 80.2735 103.652 79.8399 103.465C79.4063 103.277 79.0254 103.022 78.6973 102.7C78.375 102.378 78.1202 102 77.9327 101.566C77.7452 101.127 77.6514 100.661 77.6514 100.169V94.1748H80.0508V100.169C80.0508 100.333 80.0801 100.488 80.1387 100.635C80.2032 100.775 80.2881 100.901 80.3936 101.013C80.5049 101.118 80.6309 101.203 80.7715 101.268C80.918 101.326 81.0733 101.356 81.2373 101.356C81.4014 101.356 81.5567 101.326 81.7032 101.268C81.8497 101.203 81.9786 101.118 82.0899 101.013C82.2012 100.901 82.2862 100.775 82.3448 100.635C82.4092 100.488 82.4415 100.333 82.4415 100.169V94.1748H84.8321V100.169C84.8321 100.333 84.8643 100.488 84.9288 100.635C84.9932 100.775 85.0782 100.901 85.1836 101.013C85.295 101.118 85.4209 101.203 85.5616 101.268C85.7081 101.326 85.8633 101.356 86.0274 101.356C86.1915 101.356 86.3467 101.326 86.4932 101.268C86.6397 101.203 86.7657 101.118 86.8711 101.013C86.9825 100.901 87.0704 100.775 87.1348 100.635C87.1993 100.488 87.2315 100.333 87.2315 100.169V94.1748H89.6221V100.169ZM94.1924 91.5996C94.1924 91.8223 94.1485 92.0303 94.0606 92.2236C93.9786 92.417 93.8643 92.5869 93.7178 92.7334C93.5713 92.874 93.3985 92.9883 93.1993 93.0762C93.0059 93.1582 92.7979 93.1992 92.5752 93.1992C92.3526 93.1992 92.1416 93.1582 91.9424 93.0762C91.7491 92.9883 91.5791 92.874 91.4327 92.7334C91.292 92.5869 91.1778 92.417 91.0899 92.2236C91.0079 92.0303 90.9668 91.8223 90.9668 91.5996C90.9668 91.3828 91.0079 91.1777 91.0899 90.9844C91.1778 90.7851 91.292 90.6152 91.4327 90.4746C91.5791 90.3281 91.7491 90.2139 91.9424 90.1318C92.1416 90.0439 92.3526 90 92.5752 90C92.7979 90 93.0059 90.0439 93.1993 90.1318C93.3985 90.2139 93.5713 90.3281 93.7178 90.4746C93.8643 90.6152 93.9786 90.7851 94.0606 90.9844C94.1485 91.1777 94.1924 91.3828 94.1924 91.5996ZM93.7793 103.57H91.3623V94.1572H93.7793V103.57ZM100.784 103.57H95.2999V101.18H100.784C100.948 101.18 101.089 101.121 101.206 101.004C101.323 100.887 101.382 100.746 101.382 100.582C101.382 100.412 101.323 100.301 101.206 100.248C101.089 100.195 100.948 100.169 100.784 100.169H98.2881C97.8721 100.169 97.4825 100.09 97.1192 99.9316C96.7559 99.7734 96.4395 99.5596 96.17 99.29C95.9004 99.0146 95.6866 98.6953 95.5284 98.332C95.376 97.9687 95.2999 97.5791 95.2999 97.1631C95.2999 96.7471 95.376 96.3574 95.5284 95.9941C95.6866 95.6308 95.9004 95.3144 96.17 95.0449C96.4395 94.7754 96.7559 94.5644 97.1192 94.4121C97.4825 94.2539 97.8721 94.1748 98.2881 94.1748H103.148V96.5654H98.2881C98.1241 96.5654 97.9834 96.624 97.8663 96.7412C97.7491 96.8584 97.6905 96.999 97.6905 97.1631C97.6905 97.333 97.7491 97.4795 97.8663 97.6025C97.9834 97.7197 98.1241 97.7783 98.2881 97.7783H100.784C101.194 97.7783 101.581 97.8486 101.944 97.9892C102.308 98.124 102.624 98.3144 102.893 98.5605C103.163 98.8066 103.377 99.1025 103.535 99.4482C103.693 99.7939 103.772 100.172 103.772 100.582C103.772 100.998 103.693 101.388 103.535 101.751C103.377 102.108 103.163 102.425 102.893 102.7C102.624 102.97 102.308 103.184 101.944 103.342C101.581 103.494 101.194 103.57 100.784 103.57ZM108.8 101.268C108.893 101.297 108.987 101.317 109.081 101.329C109.175 101.335 109.269 101.338 109.362 101.338C109.597 101.338 109.822 101.306 110.039 101.241C110.256 101.177 110.458 101.086 110.645 100.969C110.839 100.846 111.009 100.699 111.155 100.529C111.308 100.354 111.431 100.16 111.524 99.9492L113.282 101.716C113.06 102.032 112.802 102.316 112.509 102.568C112.222 102.82 111.908 103.034 111.568 103.21C111.234 103.386 110.88 103.518 110.505 103.606C110.136 103.699 109.755 103.746 109.362 103.746C108.7 103.746 108.076 103.623 107.49 103.377C106.91 103.131 106.4 102.788 105.961 102.349C105.527 101.909 105.185 101.388 104.933 100.784C104.681 100.175 104.555 99.5068 104.555 98.7803C104.555 98.0361 104.681 97.3564 104.933 96.7412C105.185 96.126 105.527 95.6015 105.961 95.168C106.4 94.7344 106.91 94.3974 107.49 94.1572C108.076 93.917 108.7 93.7969 109.362 93.7969C109.755 93.7969 110.139 93.8437 110.514 93.9375C110.889 94.0312 111.243 94.166 111.577 94.3418C111.917 94.5176 112.233 94.7344 112.526 94.9922C112.819 95.2441 113.077 95.5283 113.3 95.8447L108.8 101.268ZM110.03 96.3193C109.919 96.2783 109.808 96.2519 109.696 96.2402C109.591 96.2285 109.479 96.2226 109.362 96.2226C109.034 96.2226 108.724 96.2842 108.431 96.4072C108.143 96.5244 107.892 96.6943 107.675 96.917C107.464 97.1396 107.297 97.4092 107.174 97.7256C107.051 98.0361 106.989 98.3877 106.989 98.7803C106.989 98.8682 106.992 98.9678 106.998 99.0791C107.01 99.1904 107.024 99.3047 107.042 99.4219C107.065 99.5332 107.092 99.6416 107.121 99.7471C107.15 99.8525 107.188 99.9463 107.235 100.028L110.03 96.3193Z" fill="#FDFDFD"/>
<path d="M19.58 111.53C19.58 110.937 19.6667 110.413 19.84 109.96C20.02 109.507 20.26 109.13 20.56 108.83C20.8667 108.523 21.22 108.293 21.62 108.14C22.0267 107.987 22.4567 107.91 22.91 107.91C23.3567 107.91 23.7767 107.987 24.17 108.14C24.57 108.293 24.92 108.523 25.22 108.83C25.52 109.13 25.7567 109.507 25.93 109.96C26.11 110.413 26.2 110.937 26.2 111.53C26.2 112.123 26.11 112.647 25.93 113.1C25.7567 113.553 25.52 113.933 25.22 114.24C24.92 114.54 24.57 114.767 24.17 114.92C23.7767 115.073 23.3567 115.15 22.91 115.15C22.4567 115.15 22.0267 115.073 21.62 114.92C21.22 114.767 20.8667 114.54 20.56 114.24C20.26 113.933 20.02 113.553 19.84 113.1C19.6667 112.647 19.58 112.123 19.58 111.53ZM20.6 111.53C20.6 111.95 20.6533 112.333 20.76 112.68C20.8667 113.02 21.0167 113.31 21.21 113.55C21.41 113.79 21.65 113.977 21.93 114.11C22.2167 114.237 22.5367 114.3 22.89 114.3C23.2433 114.3 23.56 114.237 23.84 114.11C24.12 113.977 24.3567 113.79 24.55 113.55C24.75 113.31 24.9033 113.02 25.01 112.68C25.1167 112.333 25.17 111.95 25.17 111.53C25.17 111.11 25.1167 110.73 25.01 110.39C24.9033 110.043 24.75 109.75 24.55 109.51C24.3567 109.27 24.12 109.087 23.84 108.96C23.56 108.827 23.2433 108.76 22.89 108.76C22.5367 108.76 22.2167 108.827 21.93 108.96C21.65 109.087 21.41 109.27 21.21 109.51C21.0167 109.75 20.8667 110.043 20.76 110.39C20.6533 110.73 20.6 111.11 20.6 111.53ZM27.5832 109.95C27.7965 109.897 28.0799 109.84 28.4332 109.78C28.7865 109.72 29.1932 109.69 29.6532 109.69C30.0665 109.69 30.4099 109.75 30.6832 109.87C30.9565 109.983 31.1732 110.147 31.3332 110.36C31.4999 110.567 31.6165 110.817 31.6832 111.11C31.7499 111.403 31.7832 111.727 31.7832 112.08V115H30.8532V112.28C30.8532 111.96 30.8299 111.687 30.7832 111.46C30.7432 111.233 30.6732 111.05 30.5732 110.91C30.4732 110.77 30.3399 110.67 30.1732 110.61C30.0065 110.543 29.7999 110.51 29.5532 110.51C29.4532 110.51 29.3499 110.513 29.2432 110.52C29.1365 110.527 29.0332 110.537 28.9332 110.55C28.8399 110.557 28.7532 110.567 28.6732 110.58C28.5999 110.593 28.5465 110.603 28.5132 110.61V115H27.5832V109.95ZM33.0354 112.41C33.0354 111.95 33.1021 111.55 33.2354 111.21C33.3687 110.863 33.5454 110.577 33.7654 110.35C33.9854 110.123 34.2387 109.953 34.5254 109.84C34.8121 109.727 35.1054 109.67 35.4054 109.67C36.1054 109.67 36.6421 109.89 37.0154 110.33C37.3887 110.763 37.5754 111.427 37.5754 112.32C37.5754 112.36 37.5754 112.413 37.5754 112.48C37.5754 112.54 37.5721 112.597 37.5654 112.65H34.0054C34.0454 113.19 34.2021 113.6 34.4754 113.88C34.7487 114.16 35.1754 114.3 35.7554 114.3C36.0821 114.3 36.3554 114.273 36.5754 114.22C36.8021 114.16 36.9721 114.103 37.0854 114.05L37.2154 114.83C37.1021 114.89 36.9021 114.953 36.6154 115.02C36.3354 115.087 36.0154 115.12 35.6554 115.12C35.2021 115.12 34.8087 115.053 34.4754 114.92C34.1487 114.78 33.8787 114.59 33.6654 114.35C33.4521 114.11 33.2921 113.827 33.1854 113.5C33.0854 113.167 33.0354 112.803 33.0354 112.41ZM36.6054 111.9C36.6121 111.48 36.5054 111.137 36.2854 110.87C36.0721 110.597 35.7754 110.46 35.3954 110.46C35.1821 110.46 34.9921 110.503 34.8254 110.59C34.6654 110.67 34.5287 110.777 34.4154 110.91C34.3021 111.043 34.2121 111.197 34.1454 111.37C34.0854 111.543 34.0454 111.72 34.0254 111.9H36.6054ZM44.8358 112.41C44.8358 111.803 44.6858 111.337 44.3858 111.01C44.0858 110.683 43.6858 110.52 43.1858 110.52C42.9058 110.52 42.6858 110.53 42.5258 110.55C42.3724 110.57 42.2491 110.593 42.1558 110.62V113.9C42.2691 113.993 42.4324 114.083 42.6458 114.17C42.8591 114.257 43.0924 114.3 43.3458 114.3C43.6124 114.3 43.8391 114.253 44.0258 114.16C44.2191 114.06 44.3758 113.927 44.4958 113.76C44.6158 113.587 44.7024 113.387 44.7558 113.16C44.8091 112.927 44.8358 112.677 44.8358 112.41ZM45.8058 112.41C45.8058 112.803 45.7524 113.167 45.6458 113.5C45.5458 113.833 45.3958 114.12 45.1958 114.36C44.9958 114.6 44.7491 114.787 44.4558 114.92C44.1691 115.053 43.8391 115.12 43.4658 115.12C43.1658 115.12 42.8991 115.08 42.6658 115C42.4391 114.92 42.2691 114.843 42.1558 114.77V116.85H41.2258V109.96C41.4458 109.907 41.7191 109.85 42.0458 109.79C42.3791 109.723 42.7624 109.69 43.1958 109.69C43.5958 109.69 43.9558 109.753 44.2758 109.88C44.5958 110.007 44.8691 110.187 45.0958 110.42C45.3224 110.653 45.4958 110.94 45.6158 111.28C45.7424 111.613 45.8058 111.99 45.8058 112.41ZM48.6745 115.1C48.1011 115.087 47.6945 114.963 47.4545 114.73C47.2145 114.497 47.0945 114.133 47.0945 113.64V107.4L48.0245 107.24V113.49C48.0245 113.643 48.0378 113.77 48.0645 113.87C48.0911 113.97 48.1345 114.05 48.1945 114.11C48.2545 114.17 48.3345 114.217 48.4345 114.25C48.5345 114.277 48.6578 114.3 48.8045 114.32L48.6745 115.1ZM51.6088 114.33C51.8288 114.33 52.0222 114.327 52.1888 114.32C52.3622 114.307 52.5055 114.287 52.6188 114.26V112.71C52.5522 112.677 52.4422 112.65 52.2888 112.63C52.1422 112.603 51.9622 112.59 51.7488 112.59C51.6088 112.59 51.4588 112.6 51.2988 112.62C51.1455 112.64 51.0022 112.683 50.8688 112.75C50.7422 112.81 50.6355 112.897 50.5488 113.01C50.4622 113.117 50.4188 113.26 50.4188 113.44C50.4188 113.773 50.5255 114.007 50.7388 114.14C50.9522 114.267 51.2422 114.33 51.6088 114.33ZM51.5288 109.67C51.9022 109.67 52.2155 109.72 52.4688 109.82C52.7288 109.913 52.9355 110.05 53.0888 110.23C53.2488 110.403 53.3622 110.613 53.4288 110.86C53.4955 111.1 53.5288 111.367 53.5288 111.66V114.91C53.4488 114.923 53.3355 114.943 53.1888 114.97C53.0488 114.99 52.8888 115.01 52.7088 115.03C52.5288 115.05 52.3322 115.067 52.1188 115.08C51.9122 115.1 51.7055 115.11 51.4988 115.11C51.2055 115.11 50.9355 115.08 50.6888 115.02C50.4422 114.96 50.2288 114.867 50.0488 114.74C49.8688 114.607 49.7288 114.433 49.6288 114.22C49.5288 114.007 49.4788 113.75 49.4788 113.45C49.4788 113.163 49.5355 112.917 49.6488 112.71C49.7688 112.503 49.9288 112.337 50.1288 112.21C50.3288 112.083 50.5622 111.99 50.8288 111.93C51.0955 111.87 51.3755 111.84 51.6688 111.84C51.7622 111.84 51.8588 111.847 51.9588 111.86C52.0588 111.867 52.1522 111.88 52.2388 111.9C52.3322 111.913 52.4122 111.927 52.4788 111.94C52.5455 111.953 52.5922 111.963 52.6188 111.97V111.71C52.6188 111.557 52.6022 111.407 52.5688 111.26C52.5355 111.107 52.4755 110.973 52.3888 110.86C52.3022 110.74 52.1822 110.647 52.0288 110.58C51.8822 110.507 51.6888 110.47 51.4488 110.47C51.1422 110.47 50.8722 110.493 50.6388 110.54C50.4122 110.58 50.2422 110.623 50.1288 110.67L50.0188 109.9C50.1388 109.847 50.3388 109.797 50.6188 109.75C50.8988 109.697 51.2022 109.67 51.5288 109.67ZM57.3334 115.12C56.9134 115.12 56.5434 115.053 56.2234 114.92C55.9101 114.787 55.6434 114.6 55.4234 114.36C55.2101 114.12 55.0501 113.837 54.9434 113.51C54.8368 113.177 54.7834 112.81 54.7834 112.41C54.7834 112.01 54.8401 111.643 54.9534 111.31C55.0734 110.977 55.2401 110.69 55.4534 110.45C55.6668 110.203 55.9268 110.013 56.2334 109.88C56.5468 109.74 56.8934 109.67 57.2734 109.67C57.5068 109.67 57.7401 109.69 57.9734 109.73C58.2068 109.77 58.4301 109.833 58.6434 109.92L58.4334 110.71C58.2934 110.643 58.1301 110.59 57.9434 110.55C57.7634 110.51 57.5701 110.49 57.3634 110.49C56.8434 110.49 56.4434 110.653 56.1634 110.98C55.8901 111.307 55.7534 111.783 55.7534 112.41C55.7534 112.69 55.7834 112.947 55.8434 113.18C55.9101 113.413 56.0101 113.613 56.1434 113.78C56.2834 113.947 56.4601 114.077 56.6734 114.17C56.8868 114.257 57.1468 114.3 57.4534 114.3C57.7001 114.3 57.9234 114.277 58.1234 114.23C58.3234 114.183 58.4801 114.133 58.5934 114.08L58.7234 114.86C58.6701 114.893 58.5934 114.927 58.4934 114.96C58.3934 114.987 58.2801 115.01 58.1534 115.03C58.0268 115.057 57.8901 115.077 57.7434 115.09C57.6034 115.11 57.4668 115.12 57.3334 115.12ZM59.4319 112.41C59.4319 111.95 59.4985 111.55 59.6319 111.21C59.7652 110.863 59.9419 110.577 60.1619 110.35C60.3819 110.123 60.6352 109.953 60.9219 109.84C61.2085 109.727 61.5019 109.67 61.8019 109.67C62.5019 109.67 63.0385 109.89 63.4119 110.33C63.7852 110.763 63.9719 111.427 63.9719 112.32C63.9719 112.36 63.9719 112.413 63.9719 112.48C63.9719 112.54 63.9685 112.597 63.9619 112.65H60.4019C60.4419 113.19 60.5985 113.6 60.8719 113.88C61.1452 114.16 61.5719 114.3 62.1519 114.3C62.4785 114.3 62.7519 114.273 62.9719 114.22C63.1985 114.16 63.3685 114.103 63.4819 114.05L63.6119 114.83C63.4985 114.89 63.2985 114.953 63.0119 115.02C62.7319 115.087 62.4119 115.12 62.0519 115.12C61.5985 115.12 61.2052 115.053 60.8719 114.92C60.5452 114.78 60.2752 114.59 60.0619 114.35C59.8485 114.11 59.6885 113.827 59.5819 113.5C59.4819 113.167 59.4319 112.803 59.4319 112.41ZM63.0019 111.9C63.0085 111.48 62.9019 111.137 62.6819 110.87C62.4685 110.597 62.1719 110.46 61.7919 110.46C61.5785 110.46 61.3885 110.503 61.2219 110.59C61.0619 110.67 60.9252 110.777 60.8119 110.91C60.6985 111.043 60.6085 111.197 60.5419 111.37C60.4819 111.543 60.4419 111.72 60.4219 111.9H63.0019ZM71.8723 115C71.6856 114.52 71.4856 113.973 71.2723 113.36C71.0656 112.74 70.8756 112.097 70.7023 111.43C70.5289 112.097 70.3389 112.74 70.1323 113.36C69.9256 113.973 69.7289 114.52 69.5423 115H68.7323C68.4256 114.313 68.1256 113.53 67.8323 112.65C67.5389 111.77 67.2623 110.82 67.0023 109.8H68.0023C68.0689 110.113 68.1489 110.453 68.2423 110.82C68.3356 111.187 68.4323 111.553 68.5323 111.92C68.6389 112.287 68.7489 112.64 68.8623 112.98C68.9756 113.32 69.0823 113.617 69.1823 113.87C69.2956 113.557 69.4056 113.227 69.5123 112.88C69.6256 112.527 69.7323 112.173 69.8323 111.82C69.9323 111.46 70.0256 111.11 70.1123 110.77C70.2056 110.423 70.2856 110.1 70.3523 109.8H71.1223C71.1823 110.1 71.2556 110.423 71.3423 110.77C71.4289 111.11 71.5223 111.46 71.6223 111.82C71.7223 112.173 71.8256 112.527 71.9323 112.88C72.0456 113.227 72.1589 113.557 72.2723 113.87C72.3723 113.617 72.4756 113.32 72.5823 112.98C72.6956 112.64 72.8056 112.287 72.9123 111.92C73.0189 111.553 73.1189 111.187 73.2123 110.82C73.3056 110.453 73.3856 110.113 73.4523 109.8H74.4123C74.1523 110.82 73.8756 111.77 73.5823 112.65C73.2889 113.53 72.9889 114.313 72.6823 115H71.8723ZM76.3257 115H75.3957V109.8H76.3257V115ZM75.8557 108.86C75.689 108.86 75.5457 108.807 75.4257 108.7C75.3124 108.587 75.2557 108.437 75.2557 108.25C75.2557 108.063 75.3124 107.917 75.4257 107.81C75.5457 107.697 75.689 107.64 75.8557 107.64C76.0224 107.64 76.1624 107.697 76.2757 107.81C76.3957 107.917 76.4557 108.063 76.4557 108.25C76.4557 108.437 76.3957 108.587 76.2757 108.7C76.1624 108.807 76.0224 108.86 75.8557 108.86ZM78.795 109.8H80.765V110.58H78.795V112.98C78.795 113.24 78.815 113.457 78.855 113.63C78.895 113.797 78.955 113.93 79.035 114.03C79.115 114.123 79.215 114.19 79.335 114.23C79.455 114.27 79.595 114.29 79.755 114.29C80.035 114.29 80.2583 114.26 80.425 114.2C80.5983 114.133 80.7183 114.087 80.785 114.06L80.965 114.83C80.8717 114.877 80.7083 114.933 80.475 115C80.2417 115.073 79.975 115.11 79.675 115.11C79.3217 115.11 79.0283 115.067 78.795 114.98C78.5683 114.887 78.385 114.75 78.245 114.57C78.105 114.39 78.005 114.17 77.945 113.91C77.8917 113.643 77.865 113.337 77.865 112.99V108.35L78.795 108.19V109.8ZM81.9484 115V107.4L82.8784 107.24V109.9C83.0518 109.833 83.2351 109.783 83.4284 109.75C83.6284 109.71 83.8251 109.69 84.0184 109.69C84.4318 109.69 84.7751 109.75 85.0484 109.87C85.3218 109.983 85.5384 110.147 85.6984 110.36C85.8651 110.567 85.9818 110.817 86.0484 111.11C86.1151 111.403 86.1484 111.727 86.1484 112.08V115H85.2184V112.28C85.2184 111.96 85.1951 111.687 85.1484 111.46C85.1084 111.233 85.0384 111.05 84.9384 110.91C84.8384 110.77 84.7051 110.67 84.5384 110.61C84.3718 110.543 84.1651 110.51 83.9184 110.51C83.8184 110.51 83.7151 110.517 83.6084 110.53C83.5018 110.543 83.3984 110.56 83.2984 110.58C83.2051 110.593 83.1184 110.61 83.0384 110.63C82.9651 110.65 82.9118 110.667 82.8784 110.68V115H81.9484ZM91.7358 114.33C91.9558 114.33 92.1491 114.327 92.3158 114.32C92.4891 114.307 92.6324 114.287 92.7458 114.26V112.71C92.6791 112.677 92.5691 112.65 92.4158 112.63C92.2691 112.603 92.0891 112.59 91.8758 112.59C91.7358 112.59 91.5858 112.6 91.4258 112.62C91.2724 112.64 91.1291 112.683 90.9958 112.75C90.8691 112.81 90.7624 112.897 90.6758 113.01C90.5891 113.117 90.5458 113.26 90.5458 113.44C90.5458 113.773 90.6524 114.007 90.8658 114.14C91.0791 114.267 91.3691 114.33 91.7358 114.33ZM91.6558 109.67C92.0291 109.67 92.3424 109.72 92.5958 109.82C92.8558 109.913 93.0624 110.05 93.2158 110.23C93.3758 110.403 93.4891 110.613 93.5558 110.86C93.6224 111.1 93.6558 111.367 93.6558 111.66V114.91C93.5758 114.923 93.4624 114.943 93.3158 114.97C93.1758 114.99 93.0158 115.01 92.8358 115.03C92.6558 115.05 92.4591 115.067 92.2458 115.08C92.0391 115.1 91.8324 115.11 91.6258 115.11C91.3324 115.11 91.0624 115.08 90.8158 115.02C90.5691 114.96 90.3558 114.867 90.1758 114.74C89.9958 114.607 89.8558 114.433 89.7558 114.22C89.6558 114.007 89.6058 113.75 89.6058 113.45C89.6058 113.163 89.6624 112.917 89.7758 112.71C89.8958 112.503 90.0558 112.337 90.2558 112.21C90.4558 112.083 90.6891 111.99 90.9558 111.93C91.2224 111.87 91.5024 111.84 91.7958 111.84C91.8891 111.84 91.9858 111.847 92.0858 111.86C92.1858 111.867 92.2791 111.88 92.3658 111.9C92.4591 111.913 92.5391 111.927 92.6058 111.94C92.6724 111.953 92.7191 111.963 92.7458 111.97V111.71C92.7458 111.557 92.7291 111.407 92.6958 111.26C92.6624 111.107 92.6024 110.973 92.5158 110.86C92.4291 110.74 92.3091 110.647 92.1558 110.58C92.0091 110.507 91.8158 110.47 91.5758 110.47C91.2691 110.47 90.9991 110.493 90.7658 110.54C90.5391 110.58 90.3691 110.623 90.2558 110.67L90.1458 109.9C90.2658 109.847 90.4658 109.797 90.7458 109.75C91.0258 109.697 91.3291 109.67 91.6558 109.67ZM96.7604 115.1C96.1871 115.087 95.7804 114.963 95.5404 114.73C95.3004 114.497 95.1804 114.133 95.1804 113.64V107.4L96.1104 107.24V113.49C96.1104 113.643 96.1237 113.77 96.1504 113.87C96.1771 113.97 96.2204 114.05 96.2804 114.11C96.3404 114.17 96.4204 114.217 96.5204 114.25C96.6204 114.277 96.7437 114.3 96.8904 114.32L96.7604 115.1ZM99.4948 115.1C98.9214 115.087 98.5148 114.963 98.2748 114.73C98.0348 114.497 97.9148 114.133 97.9148 113.64V107.4L98.8448 107.24V113.49C98.8448 113.643 98.8581 113.77 98.8848 113.87C98.9114 113.97 98.9548 114.05 99.0148 114.11C99.0748 114.17 99.1548 114.217 99.2548 114.25C99.3548 114.277 99.4781 114.3 99.6248 114.32L99.4948 115.1ZM106.594 112.41C106.594 111.803 106.444 111.337 106.144 111.01C105.844 110.683 105.444 110.52 104.944 110.52C104.664 110.52 104.444 110.53 104.284 110.55C104.13 110.57 104.007 110.593 103.914 110.62V113.9C104.027 113.993 104.19 114.083 104.404 114.17C104.617 114.257 104.85 114.3 105.104 114.3C105.37 114.3 105.597 114.253 105.784 114.16C105.977 114.06 106.134 113.927 106.254 113.76C106.374 113.587 106.46 113.387 106.514 113.16C106.567 112.927 106.594 112.677 106.594 112.41ZM107.564 112.41C107.564 112.803 107.51 113.167 107.404 113.5C107.304 113.833 107.154 114.12 106.954 114.36C106.754 114.6 106.507 114.787 106.214 114.92C105.927 115.053 105.597 115.12 105.224 115.12C104.924 115.12 104.657 115.08 104.424 115C104.197 114.92 104.027 114.843 103.914 114.77V116.85H102.984V109.96C103.204 109.907 103.477 109.85 103.804 109.79C104.137 109.723 104.52 109.69 104.954 109.69C105.354 109.69 105.714 109.753 106.034 109.88C106.354 110.007 106.627 110.187 106.854 110.42C107.08 110.653 107.254 110.94 107.374 111.28C107.5 111.613 107.564 111.99 107.564 112.41ZM110.792 109.69C110.872 109.69 110.962 109.697 111.062 109.71C111.169 109.717 111.272 109.73 111.372 109.75C111.472 109.763 111.562 109.78 111.642 109.8C111.729 109.813 111.792 109.827 111.832 109.84L111.672 110.65C111.599 110.623 111.476 110.593 111.302 110.56C111.136 110.52 110.919 110.5 110.652 110.5C110.479 110.5 110.306 110.52 110.132 110.56C109.966 110.593 109.856 110.617 109.802 110.63V115H108.872V110.02C109.092 109.94 109.366 109.867 109.692 109.8C110.019 109.727 110.386 109.69 110.792 109.69ZM113.66 115H112.73V109.8H113.66V115ZM113.19 108.86C113.023 108.86 112.88 108.807 112.76 108.7C112.646 108.587 112.59 108.437 112.59 108.25C112.59 108.063 112.646 107.917 112.76 107.81C112.88 107.697 113.023 107.64 113.19 107.64C113.356 107.64 113.496 107.697 113.61 107.81C113.73 107.917 113.79 108.063 113.79 108.25C113.79 108.437 113.73 108.587 113.61 108.7C113.496 108.807 113.356 108.86 113.19 108.86ZM117.519 115.12C117.099 115.12 116.729 115.053 116.409 114.92C116.096 114.787 115.829 114.6 115.609 114.36C115.396 114.12 115.236 113.837 115.129 113.51C115.022 113.177 114.969 112.81 114.969 112.41C114.969 112.01 115.026 111.643 115.139 111.31C115.259 110.977 115.426 110.69 115.639 110.45C115.852 110.203 116.112 110.013 116.419 109.88C116.732 109.74 117.079 109.67 117.459 109.67C117.692 109.67 117.926 109.69 118.159 109.73C118.392 109.77 118.616 109.833 118.829 109.92L118.619 110.71C118.479 110.643 118.316 110.59 118.129 110.55C117.949 110.51 117.756 110.49 117.549 110.49C117.029 110.49 116.629 110.653 116.349 110.98C116.076 111.307 115.939 111.783 115.939 112.41C115.939 112.69 115.969 112.947 116.029 113.18C116.096 113.413 116.196 113.613 116.329 113.78C116.469 113.947 116.646 114.077 116.859 114.17C117.072 114.257 117.332 114.3 117.639 114.3C117.886 114.3 118.109 114.277 118.309 114.23C118.509 114.183 118.666 114.133 118.779 114.08L118.909 114.86C118.856 114.893 118.779 114.927 118.679 114.96C118.579 114.987 118.466 115.01 118.339 115.03C118.212 115.057 118.076 115.077 117.929 115.09C117.789 115.11 117.652 115.12 117.519 115.12ZM119.617 112.41C119.617 111.95 119.684 111.55 119.817 111.21C119.951 110.863 120.127 110.577 120.347 110.35C120.567 110.123 120.821 109.953 121.107 109.84C121.394 109.727 121.687 109.67 121.987 109.67C122.687 109.67 123.224 109.89 123.597 110.33C123.971 110.763 124.157 111.427 124.157 112.32C124.157 112.36 124.157 112.413 124.157 112.48C124.157 112.54 124.154 112.597 124.147 112.65H120.587C120.627 113.19 120.784 113.6 121.057 113.88C121.331 114.16 121.757 114.3 122.337 114.3C122.664 114.3 122.937 114.273 123.157 114.22C123.384 114.16 123.554 114.103 123.667 114.05L123.797 114.83C123.684 114.89 123.484 114.953 123.197 115.02C122.917 115.087 122.597 115.12 122.237 115.12C121.784 115.12 121.391 115.053 121.057 114.92C120.731 114.78 120.461 114.59 120.247 114.35C120.034 114.11 119.874 113.827 119.767 113.5C119.667 113.167 119.617 112.803 119.617 112.41ZM123.187 111.9C123.194 111.48 123.087 111.137 122.867 110.87C122.654 110.597 122.357 110.46 121.977 110.46C121.764 110.46 121.574 110.503 121.407 110.59C121.247 110.67 121.111 110.777 120.997 110.91C120.884 111.043 120.794 111.197 120.727 111.37C120.667 111.543 120.627 111.72 120.607 111.9H123.187ZM126.703 114.33C127.083 114.33 127.363 114.28 127.543 114.18C127.73 114.08 127.823 113.92 127.823 113.7C127.823 113.473 127.733 113.293 127.553 113.16C127.373 113.027 127.077 112.877 126.663 112.71C126.463 112.63 126.27 112.55 126.083 112.47C125.903 112.383 125.747 112.283 125.613 112.17C125.48 112.057 125.373 111.92 125.293 111.76C125.213 111.6 125.173 111.403 125.173 111.17C125.173 110.71 125.343 110.347 125.683 110.08C126.023 109.807 126.487 109.67 127.073 109.67C127.22 109.67 127.367 109.68 127.513 109.7C127.66 109.713 127.797 109.733 127.923 109.76C128.05 109.78 128.16 109.803 128.253 109.83C128.353 109.857 128.43 109.88 128.483 109.9L128.313 110.7C128.213 110.647 128.057 110.593 127.843 110.54C127.63 110.48 127.373 110.45 127.073 110.45C126.813 110.45 126.587 110.503 126.393 110.61C126.2 110.71 126.103 110.87 126.103 111.09C126.103 111.203 126.123 111.303 126.163 111.39C126.21 111.477 126.277 111.557 126.363 111.63C126.457 111.697 126.57 111.76 126.703 111.82C126.837 111.88 126.997 111.943 127.183 112.01C127.43 112.103 127.65 112.197 127.843 112.29C128.037 112.377 128.2 112.48 128.333 112.6C128.473 112.72 128.58 112.867 128.653 113.04C128.727 113.207 128.763 113.413 128.763 113.66C128.763 114.14 128.583 114.503 128.223 114.75C127.87 114.997 127.363 115.12 126.703 115.12C126.243 115.12 125.883 115.08 125.623 115C125.363 114.927 125.187 114.87 125.093 114.83L125.263 114.03C125.37 114.07 125.54 114.13 125.773 114.21C126.007 114.29 126.317 114.33 126.703 114.33ZM131.056 114.46C131.056 114.64 130.996 114.797 130.876 114.93C130.756 115.063 130.593 115.13 130.386 115.13C130.18 115.13 130.016 115.063 129.896 114.93C129.776 114.797 129.716 114.64 129.716 114.46C129.716 114.28 129.776 114.123 129.896 113.99C130.016 113.857 130.18 113.79 130.386 113.79C130.593 113.79 130.756 113.857 130.876 113.99C130.996 114.123 131.056 114.28 131.056 114.46Z" fill="white"/>
<line x1="55.5" y1="78" x2="55.5" y2="60" stroke="white"/>
<line x1="55.3536" y1="59.6464" x2="63.3536" y2="67.6464" stroke="white"/>
<line x1="63.5032" y1="67.9432" x2="67.5032" y2="32.9432" stroke="white"/>
<line x1="67.4578" y1="32.799" x2="85.4578" y2="73.799" stroke="white"/>
<line x1="85.5192" y1="73.8626" x2="95.5192" y2="38.8626" stroke="white"/>
</svg>
